Picaflor-12 pt.ufo
<glyph name="exclam" format="2">
	<advance width="194"/>
	<unicode hex="0021"/>
	<outline>
		<contour>
			<point x="87.5" y="123" type="line"/>
			<point x="106.5" y="123" type="line"/>
			<point x="148" y="672" type="line"/>
			<point x="46" y="672" type="line"/>
		</contour>
		<contour>
			<point x="97" y="621" type="curve" smooth="yes"/>
			<point x="125" y="621"/>
			<point x="148" y="644"/>
			<point x="148" y="672" type="curve" smooth="yes"/>
			<point x="148" y="700"/>
			<point x="125" y="723"/>
			<point x="97" y="723" type="curve" smooth="yes"/>
			<point x="69" y="723"/>
			<point x="46" y="700"/>
			<point x="46" y="672" type="curve" smooth="yes"/>
			<point x="46" y="644"/>
			<point x="69" y="621"/>
		</contour>
		<component base="period" xOffset="20"/>
	</outline>
</glyph>
<glyph name="numbersign" format="2">
	<advance width="339.5"/>
	<unicode hex="0023"/>
	<outline>
		<contour>
			<point x="153.5" y="0" type="line"/>
			<point x="184" y="0" type="line"/>
			<point x="284" y="700" type="line"/>
			<point x="253.5" y="700" type="line"/>
		</contour>
		<contour>
			<point x="36" y="209" type="line"/>
			<point x="264.5" y="209" type="line"/>
			<point x="264.5" y="239" type="line"/>
			<point x="36" y="239" type="line"/>
		</contour>
		<contour>
			<point x="52.5" y="0" type="line"/>
			<point x="83" y="0" type="line"/>
			<point x="183" y="700" type="line"/>
			<point x="152.5" y="700" type="line"/>
		</contour>
		<contour>
			<point x="75" y="481" type="line"/>
			<point x="303.5" y="481" type="line"/>
			<point x="303.5" y="511" type="line"/>
			<point x="75" y="511" type="line"/>
		</contour>
	</outline>
</glyph>
<glyph name="dollar" format="2">
	<advance width="433"/>
	<unicode hex="0024"/>
	<outline>
		<contour>
			<point x="235" y="-59.5" type="line"/>
			<point x="265" y="-59.5" type="line"/>
			<point x="265" y="740.5" type="line"/>
			<point x="235" y="740.5" type="line"/>
		</contour>
		<component base="S"/>
	</outline>
</glyph>
<glyph name="ampersand" format="2">
	<advance width="799"/>
	<unicode hex="0026"/>
	<outline>
		<contour>
			<point x="602.5" y="-8" type="curve" smooth="yes"/>
			<point x="706.5" y="-7.5"/>
			<point x="773" y="45.5"/>
			<point x="773" y="125" type="curve" smooth="yes"/>
			<point x="773" y="181"/>
			<point x="740.5" y="218"/>
			<point x="671.5" y="218" type="curve"/>
			<point x="670.5" y="200" type="line"/>
			<point x="693" y="198"/>
			<point x="708" y="186.5"/>
			<point x="708" y="139" type="curve" smooth="yes"/>
			<point x="708" y="68.5"/>
			<point x="667" y="22"/>
			<point x="602.5" y="22" type="curve" smooth="yes"/>
			<point x="485" y="22"/>
			<point x="422" y="178.5"/>
			<point x="301.5" y="421" type="curve" smooth="yes"/>
			<point x="266" y="494"/>
			<point x="242" y="566"/>
			<point x="242" y="599" type="curve" smooth="yes"/>
			<point x="242" y="636"/>
			<point x="269" y="678"/>
			<point x="331.5" y="678" type="curve"/>
			<point x="338" y="708" type="line"/>
			<point x="247" y="708"/>
			<point x="155.5" y="661"/>
			<point x="155.5" y="567.5" type="curve" smooth="yes"/>
			<point x="155.5" y="517"/>
			<point x="169" y="452"/>
			<point x="204.5" y="386.5" type="curve" smooth="yes"/>
			<point x="254.5" y="294.5"/>
			<point x="309" y="197"/>
			<point x="372.5" y="122.5" type="curve" smooth="yes"/>
			<point x="437.5" y="46"/>
			<point x="512.5" y="-8.5"/>
		</contour>
		<contour>
			<point x="252" y="414.5" type="curve"/>
			<point x="226" y="418.5" type="line"/>
			<point x="91" y="376"/>
			<point x="26" y="283.5"/>
			<point x="26" y="195" type="curve" smooth="yes"/>
			<point x="26" y="89.5"/>
			<point x="117.5" y="-8.5"/>
			<point x="291" y="-8.5" type="curve" smooth="yes"/>
			<point x="510.5" y="-8.5"/>
			<point x="663.5" y="162.5"/>
			<point x="663.5" y="286" type="curve" smooth="yes"/>
			<point x="663.5" y="356"/>
			<point x="614.5" y="422"/>
			<point x="500" y="422" type="curve"/>
			<point x="500" y="403" type="line"/>
			<point x="548" y="403"/>
			<point x="568.5" y="368.5"/>
			<point x="568.5" y="319" type="curve" smooth="yes"/>
			<point x="568.5" y="164"/>
			<point x="428.5" y="22"/>
			<point x="291" y="22" type="curve" smooth="yes"/>
			<point x="193" y="22"/>
			<point x="127.5" y="96.5"/>
			<point x="127.5" y="208.5" type="curve" smooth="yes"/>
			<point x="127.5" y="295"/>
			<point x="168" y="383"/>
		</contour>
		<contour>
			<point x="252" y="397.5" type="curve"/>
			<point x="294.5" y="388.5" type="line"/>
			<point x="423.5" y="402"/>
			<point x="507" y="487.5"/>
			<point x="507" y="570.5" type="curve" smooth="yes"/>
			<point x="507" y="642.5"/>
			<point x="444.5" y="708"/>
			<point x="338" y="708" type="curve"/>
			<point x="331.5" y="678" type="line"/>
			<point x="382.5" y="678"/>
			<point x="417" y="649"/>
			<point x="417" y="588.5" type="curve" smooth="yes"/>
			<point x="417" y="508.5"/>
			<point x="357" y="410"/>
		</contour>
	</outline>
</glyph>
<glyph name="quotesingle" format="2">
	<advance width="170.5"/>
	<unicode hex="0027"/>
	<outline>
		<contour>
			<point x="36" y="450" type="line"/>
			<point x="49.5" y="450" type="line"/>
			<point x="134.5" y="700" type="line"/>
			<point x="64.5" y="700" type="line"/>
		</contour>
	</outline>
</glyph>
<glyph name="parenleft" format="2">
	<advance width="255"/>
	<unicode hex="0028"/>
	<outline>
		<contour>
			<point x="37" y="350" type="curve" smooth="yes"/>
			<point x="37" y="177.5"/>
			<point x="107" y="-2"/>
			<point x="212" y="-53.5" type="curve"/>
			<point x="223" y="-38" type="line"/>
			<point x="173.5" y="12"/>
			<point x="140" y="165.5"/>
			<point x="140" y="350" type="curve" smooth="yes"/>
			<point x="140" y="534.5"/>
			<point x="173.5" y="688"/>
			<point x="223" y="738" type="curve"/>
			<point x="212" y="753.5" type="line"/>
			<point x="107" y="702"/>
			<point x="37" y="522.5"/>
		</contour>
	</outline>
</glyph>
<glyph name="asterisk" format="2">
	<advance width="296"/>
	<unicode hex="002A"/>
	<outline>
		<contour>
			<point x="198.5" y="465" type="line"/>
			<point x="247.5" y="515" type="line"/>
			<point x="157.5" y="575" type="line"/>
			<point x="148" y="575" type="line"/>
			<point x="146" y="575" type="line"/>
		</contour>
		<contour>
			<point x="97.5" y="465" type="line"/>
			<point x="150" y="575" type="line"/>
			<point x="148" y="575" type="line"/>
			<point x="138.5" y="575" type="line"/>
			<point x="48.5" y="515" type="line"/>
		</contour>
		<contour>
			<point x="141" y="567.5" type="line"/>
			<point x="148" y="575" type="line"/>
			<point x="61" y="655" type="line"/>
			<point x="31" y="594.5" type="line"/>
		</contour>
		<contour>
			<point x="143.5" y="575" type="line"/>
			<point x="148" y="575" type="line"/>
			<point x="148" y="700" type="line"/>
			<point x="113" y="700" type="line"/>
		</contour>
		<contour>
			<point x="148" y="575" type="line"/>
			<point x="153" y="575" type="line"/>
			<point x="183" y="700" type="line"/>
			<point x="148" y="700" type="line"/>
		</contour>
		<contour>
			<point x="155" y="567.5" type="line"/>
			<point x="265" y="594.5" type="line"/>
			<point x="235" y="655" type="line"/>
			<point x="148" y="575" type="line"/>
		</contour>
	</outline>
</glyph>
<glyph name="plus" format="2">
	<advance width="362"/>
	<unicode hex="002B"/>
	<outline>
		<contour>
			<point x="164" y="120" type="line"/>
			<point x="198" y="120" type="line"/>
			<point x="198" y="450" type="line"/>
			<point x="164" y="450" type="line"/>
		</contour>
		<contour>
			<point x="16" y="268" type="line"/>
			<point x="346" y="268" type="line"/>
			<point x="346" y="302" type="line"/>
			<point x="16" y="302" type="line"/>
		</contour>
	</outline>
</glyph>
<glyph name="comma" format="2">
	<advance width="182"/>
	<unicode hex="002C"/>
	<outline>
		<contour>
			<point x="42" y="-113" type="curve"/>
			<point x="56.5" y="-125.5" type="line"/>
			<point x="122" y="-56"/>
			<point x="146" y="0"/>
			<point x="146" y="45.5" type="curve" smooth="yes"/>
			<point x="146" y="76"/>
			<point x="126.5" y="96"/>
			<point x="97" y="96" type="curve" smooth="yes"/>
			<point x="57.5" y="96"/>
			<point x="36" y="60"/>
			<point x="36" y="29.5" type="curve" smooth="yes"/>
			<point x="36" y="3.5"/>
			<point x="52.5" y="-14.5"/>
			<point x="72" y="-14.5" type="curve" smooth="yes"/>
			<point x="78.5" y="-14.5"/>
			<point x="85.5" y="-12.5"/>
			<point x="92" y="-8" type="curve" smooth="yes"/>
			<point x="97.5" y="-4.5"/>
			<point x="101.5" y="0"/>
			<point x="106" y="0" type="curve" smooth="yes"/>
			<point x="108.5" y="0"/>
			<point x="110.5" y="-2.5"/>
			<point x="110.5" y="-6.5" type="curve" smooth="yes"/>
			<point x="110.5" y="-35.5"/>
			<point x="76.5" y="-74.5"/>
		</contour>
	</outline>
</glyph>
<glyph name="hyphen" format="2">
	<advance width="242"/>
	<unicode hex="002D"/>
	<outline>
		<contour>
			<point x="16" y="268" type="line"/>
			<point x="226" y="268" type="line"/>
			<point x="226" y="302" type="line"/>
			<point x="16" y="302" type="line"/>
		</contour>
	</outline>
</glyph>
<glyph name="period" format="2">
	<advance width="154"/>
	<unicode hex="002E"/>
	<outline>
		<contour>
			<point x="77" y="-6" type="curve" smooth="yes"/>
			<point x="105" y="-6"/>
			<point x="128" y="17"/>
			<point x="128" y="45" type="curve" smooth="yes"/>
			<point x="128" y="73"/>
			<point x="105" y="96"/>
			<point x="77" y="96" type="curve" smooth="yes"/>
			<point x="49" y="96"/>
			<point x="26" y="73"/>
			<point x="26" y="45" type="curve" smooth="yes"/>
			<point x="26" y="17"/>
			<point x="49" y="-6"/>
		</contour>
	</outline>
</glyph>
<glyph name="slash" format="2">
	<advance width="202.5"/>
	<unicode hex="002F"/>
	<outline>
		<contour>
			<point x="36" y="-50" type="line"/>
			<point x="66.5" y="-50" type="line"/>
			<point x="166.5" y="750" type="line"/>
			<point x="136" y="750" type="line"/>
		</contour>
	</outline>
</glyph>
<glyph name="zero" format="2">
	<advance width="484"/>
	<unicode hex="0030"/>
	<outline>
		<contour>
			<point x="242" y="-8" type="curve" smooth="yes"/>
			<point x="365" y="-8"/>
			<point x="447" y="132"/>
			<point x="447" y="350" type="curve" smooth="yes"/>
			<point x="447" y="568"/>
			<point x="365" y="708"/>
			<point x="242" y="708" type="curve" smooth="yes"/>
			<point x="119" y="708"/>
			<point x="37" y="568"/>
			<point x="37" y="350" type="curve" smooth="yes"/>
			<point x="37" y="132"/>
			<point x="119" y="-8"/>
		</contour>
		<contour>
			<point x="242" y="22" type="curve" smooth="yes"/>
			<point x="185" y="22"/>
			<point x="147" y="137.5"/>
			<point x="147" y="350" type="curve" smooth="yes"/>
			<point x="147" y="562.5"/>
			<point x="185" y="678"/>
			<point x="242" y="678" type="curve" smooth="yes"/>
			<point x="299" y="678"/>
			<point x="337" y="562.5"/>
			<point x="337" y="350" type="curve" smooth="yes"/>
			<point x="337" y="137.5"/>
			<point x="299" y="22"/>
		</contour>
	</outline>
</glyph>
<glyph name="one" format="2">
	<advance width="357"/>
	<unicode hex="0031"/>
	<outline>
		<contour>
			<point x="160" y="0" type="line"/>
			<point x="260" y="0" type="line"/>
			<point x="260" y="737" type="line"/>
			<point x="234.5" y="688" type="line"/>
			<point x="160" y="579.5" type="line"/>
		</contour>
		<contour>
			<point x="21.5" y="500" type="curve"/>
			<point x="56.5" y="314.5" type="line"/>
			<point x="75.5" y="314.5" type="line"/>
			<point x="62" y="421.5"/>
			<point x="77" y="465.5"/>
			<point x="161" y="560" type="curve"/>
			<point x="207.5" y="606"/>
			<point x="235" y="640"/>
			<point x="260" y="737" type="curve"/>
			<point x="252" y="737" type="line"/>
			<point x="208" y="632"/>
			<point x="106" y="537"/>
		</contour>
		<component base="_part.longserif" xScale="-1" yScale="-1" xOffset="366" yOffset="700"/>
		<component base="_part.longserif" xScale="-1" yScale="-1" xOffset="341" yOffset="700"/>
	</outline>
</glyph>
<glyph name="two" format="2">
	<advance width="436.5"/>
	<unicode hex="0032"/>
	<outline>
		<contour>
			<point x="42.5" y="0" type="curve"/>
			<point x="90.5" y="0" type="line"/>
			<point x="264" y="189.5"/>
			<point x="398" y="408.5"/>
			<point x="398" y="561.5" type="curve" smooth="yes"/>
			<point x="398" y="653.5"/>
			<point x="328" y="715"/>
			<point x="245" y="715" type="curve" smooth="yes"/>
			<point x="190.5" y="715"/>
			<point x="152" y="698.5"/>
			<point x="115" y="673.5" type="curve" smooth="yes"/>
			<point x="104" y="666"/>
			<point x="90" y="658.5"/>
			<point x="80.5" y="658.5" type="curve" smooth="yes"/>
			<point x="66.5" y="658.5"/>
			<point x="59.5" y="668"/>
			<point x="45.5" y="705" type="curve"/>
			<point x="26.5" y="703" type="line"/>
			<point x="91.5" y="477" type="line"/>
			<point x="110.5" y="477" type="line"/>
			<point x="107.5" y="510" type="line" smooth="yes"/>
			<point x="99" y="606"/>
			<point x="113" y="678"/>
			<point x="207" y="678" type="curve" smooth="yes"/>
			<point x="264" y="678"/>
			<point x="293.5" y="647"/>
			<point x="293.5" y="571.5" type="curve" smooth="yes"/>
			<point x="293.5" y="445"/>
			<point x="190" y="217"/>
		</contour>
		<contour>
			<point x="67.5" y="0" type="line"/>
			<point x="353.5" y="0" type="line"/>
			<point x="353.5" y="30" type="line"/>
			<point x="67.5" y="30" type="line"/>
		</contour>
		<contour>
			<point x="327.5" y="0" type="line"/>
			<point x="388.5" y="0" type="line"/>
			<point x="410.5" y="233" type="line"/>
			<point x="391.5" y="233" type="line"/>
		</contour>
	</outline>
</glyph>
<glyph name="three" format="2">
	<advance width="440.5"/>
	<unicode hex="0033"/>
	<outline>
		<contour>
			<point x="61.5" y="325.5" type="line"/>
			<point x="80" y="325.5" type="line"/>
			<point x="151" y="425" type="line"/>
			<point x="414.5" y="700" type="line"/>
			<point x="272" y="700" type="line"/>
		</contour>
		<contour>
			<point x="203" y="-8" type="curve"/>
			<point x="203" y="22" type="line"/>
			<point x="122.5" y="22"/>
			<point x="85.5" y="76"/>
			<point x="96" y="190" type="curve" smooth="yes"/>
			<point x="99" y="223" type="line"/>
			<point x="80" y="223" type="line"/>
			<point x="15" y="-3" type="line"/>
			<point x="34" y="-5" type="line"/>
			<point x="44" y="21"/>
			<point x="53" y="33"/>
			<point x="69" y="33" type="curve" smooth="yes"/>
			<point x="92" y="33"/>
			<point x="142" y="-8"/>
		</contour>
		<contour>
			<point x="203" y="22" type="curve"/>
			<point x="203" y="-8" type="line"/>
			<point x="327" y="-8"/>
			<point x="410" y="89.5"/>
			<point x="410" y="236" type="curve"/>
			<point x="310" y="236" type="line"/>
			<point x="310" y="95.5"/>
			<point x="267" y="23.5"/>
		</contour>
		<contour>
			<point x="310" y="236" type="curve"/>
			<point x="410" y="236" type="line"/>
			<point x="410" y="352"/>
			<point x="360.5" y="474.5"/>
			<point x="260" y="474.5" type="curve" smooth="yes"/>
			<point x="194" y="474.5"/>
			<point x="119" y="415.5"/>
			<point x="68" y="325.5" type="curve"/>
			<point x="80" y="325.5" type="line"/>
			<point x="144" y="416"/>
			<point x="195.5" y="437.5"/>
			<point x="233.5" y="437.5" type="curve" smooth="yes"/>
			<point x="283.5" y="437.5"/>
			<point x="310" y="383"/>
		</contour>
		<contour>
			<point x="96" y="467" type="line"/>
			<point x="115" y="467" type="line"/>
			<point x="93" y="700" type="line"/>
			<point x="32" y="700" type="line"/>
		</contour>
		<contour>
			<point x="73" y="670" type="line"/>
			<point x="329" y="670" type="line"/>
			<point x="329" y="700" type="line"/>
			<point x="73" y="700" type="line"/>
		</contour>
	</outline>
</glyph>
<glyph name="four" format="2">
	<advance width="502"/>
	<unicode hex="0034"/>
	<outline>
		<contour>
			<point x="3.5" y="140" type="line"/>
			<point x="36" y="140" type="line"/>
			<point x="364.5" y="717.5" type="line"/>
			<point x="364.5" y="779" type="line"/>
		</contour>
		<contour>
			<point x="32.5" y="140" type="line"/>
			<point x="428" y="140" type="line"/>
			<point x="428" y="170" type="line"/>
			<point x="49.5" y="170" type="line"/>
		</contour>
		<contour>
			<point x="33" y="140" type="line"/>
			<point x="99" y="140" type="line"/>
			<point x="99" y="215"/>
			<point x="141.5" y="322.5"/>
			<point x="189" y="409" type="curve"/>
			<point x="182" y="413.5" type="line"/>
		</contour>
		<contour>
			<point x="264.5" y="0" type="line"/>
			<point x="364.5" y="0" type="line"/>
			<point x="364.5" y="737" type="line"/>
			<point x="264.5" y="551" type="line"/>
		</contour>
		<contour>
			<point x="393" y="140" type="line"/>
			<point x="454" y="140" type="line"/>
			<point x="476" y="373" type="line"/>
			<point x="457" y="373" type="line"/>
		</contour>
		<component base="_part.longserif" xScale="-1" yScale="-1" xOffset="471" yOffset="700"/>
	</outline>
</glyph>
<glyph name="five" format="2">
	<advance width="445"/>
	<unicode hex="0035"/>
	<outline>
		<contour>
			<point x="315.5" y="236" type="curve"/>
			<point x="415.5" y="236" type="line"/>
			<point x="415.5" y="378"/>
			<point x="341.5" y="472.5"/>
			<point x="230" y="472.5" type="curve" smooth="yes"/>
			<point x="187" y="472.5"/>
			<point x="154" y="453.5"/>
			<point x="136.5" y="425" type="curve"/>
			<point x="77.5" y="425" type="line"/>
			<point x="77.5" y="325.5" type="line"/>
			<point x="96.5" y="325.5" type="line"/>
			<point x="117" y="393.5"/>
			<point x="162" y="438.5"/>
			<point x="209.5" y="438.5" type="curve" smooth="yes"/>
			<point x="273" y="438.5"/>
			<point x="315.5" y="370.5"/>
		</contour>
		<contour>
			<point x="208.5" y="-8" type="curve"/>
			<point x="208.5" y="22" type="line"/>
			<point x="128" y="22"/>
			<point x="91" y="76"/>
			<point x="101.5" y="190" type="curve" smooth="yes"/>
			<point x="104.5" y="223" type="line"/>
			<point x="85.5" y="223" type="line"/>
			<point x="20.5" y="-3" type="line"/>
			<point x="39.5" y="-5" type="line"/>
			<point x="49.5" y="21"/>
			<point x="58.5" y="33"/>
			<point x="74.5" y="33" type="curve" smooth="yes"/>
			<point x="97.5" y="33"/>
			<point x="147.5" y="-8"/>
		</contour>
		<contour>
			<point x="208.5" y="22" type="curve"/>
			<point x="208.5" y="-8" type="line"/>
			<point x="332.5" y="-8"/>
			<point x="415.5" y="89.5"/>
			<point x="415.5" y="236" type="curve"/>
			<point x="315.5" y="236" type="line"/>
			<point x="315.5" y="96"/>
			<point x="272.5" y="23.5"/>
		</contour>
		<contour>
			<point x="77.5" y="400" type="line"/>
			<point x="111.5" y="400" type="line"/>
			<point x="177" y="453" type="line"/>
			<point x="177.5" y="700" type="line"/>
			<point x="77.5" y="700" type="line"/>
		</contour>
		<contour>
			<point x="127.5" y="670" type="line"/>
			<point x="379" y="670" type="line"/>
			<point x="379" y="700" type="line"/>
			<point x="127.5" y="700" type="line"/>
		</contour>
		<contour>
			<point x="337" y="467" type="line"/>
			<point x="356" y="467" type="line"/>
			<point x="420" y="700" type="line"/>
			<point x="359" y="700" type="line"/>
		</contour>
	</outline>
</glyph>
<glyph name="six" format="2">
	<advance width="509.5"/>
	<unicode hex="0036"/>
	<outline>
		<contour>
			<point x="267" y="-8" type="curve" smooth="yes"/>
			<point x="390.5" y="-8"/>
			<point x="472.5" y="83.5"/>
			<point x="472.5" y="221" type="curve"/>
			<point x="377" y="221" type="line"/>
			<point x="377" y="89"/>
			<point x="333" y="22.5"/>
			<point x="267" y="22" type="curve" smooth="yes"/>
			<point x="266" y="22"/>
			<point x="265" y="22"/>
			<point x="264.5" y="22" type="curve" smooth="yes"/>
			<point x="202.5" y="24.5"/>
			<point x="142" y="104.5"/>
			<point x="142" y="221" type="curve"/>
			<point x="137" y="350" type="line"/>
			<point x="37" y="350" type="line"/>
			<point x="37" y="135"/>
			<point x="129" y="-8"/>
		</contour>
		<contour>
			<point x="109.5" y="221" type="curve"/>
			<point x="142" y="221" type="line"/>
			<point x="142" y="350"/>
			<point x="192" y="414.5"/>
			<point x="267" y="415" type="curve"/>
			<point x="267" y="445" type="line"/>
			<point x="169.5" y="445"/>
			<point x="109.5" y="355.5"/>
		</contour>
		<contour>
			<point x="37" y="350" type="curve"/>
			<point x="137" y="350" type="line"/>
			<point x="137" y="558"/>
			<point x="190" y="678"/>
			<point x="297" y="678" type="curve"/>
			<point x="297" y="708" type="line"/>
			<point x="109" y="708"/>
			<point x="37" y="526"/>
		</contour>
		<contour>
			<point x="377" y="221" type="curve"/>
			<point x="472.5" y="221" type="line"/>
			<point x="472.5" y="355.5"/>
			<point x="390.5" y="445"/>
			<point x="267" y="445" type="curve"/>
			<point x="267" y="415" type="line"/>
			<point x="333" y="414.5"/>
			<point x="377" y="350"/>
		</contour>
		<contour>
			<point x="388" y="510" type="curve" smooth="yes"/>
			<point x="385" y="477" type="line"/>
			<point x="404" y="477" type="line"/>
			<point x="471" y="703" type="line"/>
			<point x="450" y="705" type="line"/>
			<point x="440" y="679"/>
			<point x="431" y="667"/>
			<point x="415" y="667" type="curve" smooth="yes"/>
			<point x="392" y="667"/>
			<point x="353" y="708"/>
			<point x="297" y="708" type="curve"/>
			<point x="297" y="678" type="line"/>
			<point x="382" y="678"/>
			<point x="397" y="609"/>
		</contour>
		<contour>
			<point x="297" y="678" type="line"/>
			<point x="297" y="708" type="line"/>
		</contour>
	</outline>
</glyph>
<glyph name="seven" format="2">
	<advance width="457"/>
	<unicode hex="0037"/>
	<outline>
		<contour>
			<point x="105.5" y="-110.5" type="line"/>
			<point x="124.5" y="-110.5" type="line"/>
			<point x="425.5" y="700" type="line"/>
			<point x="319" y="700" type="line"/>
			<point x="210.5" y="408" type="line"/>
		</contour>
		<contour>
			<point x="65.5" y="378" type="line"/>
			<point x="406.5" y="378" type="line"/>
			<point x="406.5" y="408" type="line"/>
			<point x="65.5" y="408" type="line"/>
		</contour>
		<contour>
			<point x="95.5" y="467" type="line"/>
			<point x="114.5" y="467" type="line"/>
			<point x="92.5" y="700" type="line"/>
			<point x="31.5" y="700" type="line"/>
		</contour>
		<contour>
			<point x="85.5" y="670" type="line"/>
			<point x="397.5" y="670" type="line"/>
			<point x="397.5" y="700" type="line"/>
			<point x="85.5" y="700" type="line"/>
		</contour>
	</outline>
</glyph>
<glyph name="eight" format="2">
	<advance width="525"/>
	<unicode hex="0038"/>
	<outline>
		<contour>
			<point x="26" y="195.5" type="curve"/>
			<point x="126" y="195.5" type="line"/>
			<point x="126" y="313.5"/>
			<point x="186.5" y="381"/>
			<point x="262.5" y="380.5" type="curve" smooth="yes"/>
			<point x="338.5" y="380"/>
			<point x="399" y="312.5"/>
			<point x="399" y="195.5" type="curve"/>
			<point x="499" y="195.5" type="line"/>
			<point x="499" y="321"/>
			<point x="395.5" y="410.5"/>
			<point x="262.5" y="410.5" type="curve" smooth="yes"/>
			<point x="129.5" y="410.5"/>
			<point x="26" y="321"/>
		</contour>
		<contour>
			<point x="262.5" y="-8" type="curve" smooth="yes"/>
			<point x="395.5" y="-8"/>
			<point x="499" y="70"/>
			<point x="499" y="195.5" type="curve"/>
			<point x="399" y="195.5" type="line"/>
			<point x="399" y="78.5"/>
			<point x="338.5" y="22.5"/>
			<point x="262.5" y="22" type="curve" smooth="yes"/>
			<point x="186.5" y="21.5"/>
			<point x="126" y="77.5"/>
			<point x="126" y="195.5" type="curve"/>
			<point x="26" y="195.5" type="line"/>
			<point x="26" y="70"/>
			<point x="129.5" y="-8"/>
		</contour>
		<contour>
			<point x="262.5" y="393" type="curve"/>
			<point x="262.5" y="410.5" type="line"/>
			<point x="201" y="410.5"/>
			<point x="162.5" y="472.5"/>
			<point x="162.5" y="546" type="curve" smooth="yes"/>
			<point x="162.5" y="619"/>
			<point x="201" y="670"/>
			<point x="262.5" y="670" type="curve"/>
			<point x="262.5" y="700" type="line"/>
			<point x="135.5" y="700"/>
			<point x="67.5" y="623.5"/>
			<point x="67.5" y="546.5" type="curve" smooth="yes"/>
			<point x="67.5" y="470"/>
			<point x="135.5" y="393"/>
		</contour>
		<contour>
			<point x="262.5" y="410.5" type="curve"/>
			<point x="262.5" y="393" type="line"/>
			<point x="389.5" y="393"/>
			<point x="457.5" y="470"/>
			<point x="457.5" y="546.5" type="curve" smooth="yes"/>
			<point x="457.5" y="623.5"/>
			<point x="389.5" y="700"/>
			<point x="262.5" y="700" type="curve"/>
			<point x="262.5" y="670" type="line"/>
			<point x="324" y="670"/>
			<point x="362.5" y="619"/>
			<point x="362.5" y="546" type="curve" smooth="yes"/>
			<point x="362.5" y="472.5"/>
			<point x="324" y="410.5"/>
		</contour>
	</outline>
</glyph>
<glyph name="equal" format="2">
	<advance width="312"/>
	<unicode hex="003D"/>
	<outline>
		<contour>
			<point x="16" y="323.5" type="line"/>
			<point x="296" y="323.5" type="line"/>
			<point x="296" y="357.5" type="line"/>
			<point x="16" y="357.5" type="line"/>
		</contour>
		<contour>
			<point x="16" y="212.5" type="line"/>
			<point x="296" y="212.5" type="line"/>
			<point x="296" y="246.5" type="line"/>
			<point x="16" y="246.5" type="line"/>
		</contour>
	</outline>
</glyph>
<glyph name="question" format="2">
	<advance width="434"/>
	<unicode hex="003F"/>
	<outline>
		<contour>
			<point x="230" y="246.5" type="curve" smooth="yes"/>
			<point x="314.5" y="246.5"/>
			<point x="397" y="360"/>
			<point x="397" y="479" type="curve"/>
			<point x="297" y="479" type="line"/>
			<point x="297" y="349.5"/>
			<point x="262.5" y="286"/>
			<point x="215" y="286" type="curve" smooth="yes"/>
			<point x="163.5" y="286"/>
			<point x="117" y="323.5"/>
			<point x="99.5" y="404.5" type="curve"/>
			<point x="80.5" y="404.5" type="line"/>
			<point x="123.5" y="281.5" type="line"/>
			<point x="163.5" y="273" type="line"/>
			<point x="185" y="254.5"/>
			<point x="207.5" y="246.5"/>
		</contour>
		<contour>
			<point x="132" y="122.5" type="line"/>
			<point x="151" y="122.5" type="line"/>
			<point x="182.5" y="272.5" type="line"/>
			<point x="123" y="285" type="line"/>
			<point x="80.5" y="404.5" type="line"/>
		</contour>
		<contour>
			<point x="67.5" y="477" type="line"/>
			<point x="84.5" y="477" type="line"/>
			<point x="81.5" y="510" type="line" smooth="yes"/>
			<point x="71" y="624"/>
			<point x="133.5" y="678"/>
			<point x="214" y="678" type="curve"/>
			<point x="214" y="708" type="line"/>
			<point x="153" y="708"/>
			<point x="103" y="667"/>
			<point x="80" y="667" type="curve" smooth="yes"/>
			<point x="64" y="667"/>
			<point x="55" y="679"/>
			<point x="45" y="705" type="curve"/>
			<point x="26" y="703" type="line"/>
		</contour>
		<contour>
			<point x="297" y="479" type="curve"/>
			<point x="397" y="479" type="line"/>
			<point x="397" y="616.5"/>
			<point x="323" y="708"/>
			<point x="214" y="708" type="curve"/>
			<point x="214" y="678" type="line"/>
			<point x="287" y="676.5"/>
			<point x="297" y="610"/>
		</contour>
		<component base="period" xOffset="65"/>
	</outline>
</glyph>
<glyph name="B" format="2">
	<advance width="501"/>
	<unicode hex="0042"/>
	<unicode hex="0062"/>
	<anchor x="249" y="700" name="top"/>
	<anchor x="249" y="0" name="bottom"/>
	<outline>
		<contour>
			<point x="194" y="407" type="curve"/>
			<point x="194" y="393" type="line"/>
			<point x="351" y="393"/>
			<point x="434" y="484"/>
			<point x="434" y="566.5" type="curve" smooth="yes"/>
			<point x="434" y="647.5"/>
			<point x="360" y="700"/>
			<point x="253" y="700" type="curve" smooth="yes"/>
			<point x="194" y="700" type="line"/>
			<point x="194" y="670" type="line"/>
			<point x="216" y="670" type="line" smooth="yes"/>
			<point x="305" y="670"/>
			<point x="339" y="624.5"/>
			<point x="339" y="553" type="curve" smooth="yes"/>
			<point x="339" y="464"/>
			<point x="280" y="407"/>
		</contour>
		<contour>
			<point x="194" y="0" type="line"/>
			<point x="253" y="0" type="line" smooth="yes"/>
			<point x="392" y="0"/>
			<point x="475" y="80.5"/>
			<point x="475" y="201" type="curve"/>
			<point x="375" y="201" type="line"/>
			<point x="375" y="85"/>
			<point x="311.5" y="30"/>
			<point x="216" y="30" type="curve" smooth="yes"/>
			<point x="194" y="30" type="line"/>
		</contour>
		<contour>
			<point x="375" y="201" type="curve"/>
			<point x="475" y="201" type="line"/>
			<point x="475" y="318"/>
			<point x="392" y="396"/>
			<point x="253" y="396" type="curve" smooth="yes"/>
			<point x="194" y="396" type="line"/>
			<point x="194" y="377" type="line"/>
			<point x="216" y="377" type="line" smooth="yes"/>
			<point x="311.5" y="377"/>
			<point x="375" y="313"/>
		</contour>
		<component base="_part.halfstemleft" xOffset="11"/>
	</outline>
</glyph>
<glyph name="C" format="2">
	<advance width="464.5"/>
	<unicode hex="0043"/>
	<unicode hex="0063"/>
	<anchor x="262" y="708" name="top"/>
	<anchor x="262" y="-8" name="bottom"/>
	<outline>
		<contour>
			<point x="37" y="350" type="curve"/>
			<point x="147" y="350" type="line"/>
			<point x="147" y="558"/>
			<point x="185" y="678"/>
			<point x="262" y="678" type="curve"/>
			<point x="262" y="708" type="line"/>
			<point x="104" y="708"/>
			<point x="37" y="526"/>
		</contour>
		<contour>
			<point x="262" y="-8" type="curve"/>
			<point x="262" y="22" type="line"/>
			<point x="185" y="22"/>
			<point x="147" y="142"/>
			<point x="147" y="350" type="curve"/>
			<point x="37" y="350" type="line"/>
			<point x="37" y="174"/>
			<point x="104" y="-8"/>
		</contour>
		<contour>
			<point x="353" y="510" type="curve" smooth="yes"/>
			<point x="350" y="477" type="line"/>
			<point x="367" y="477" type="line"/>
			<point x="434" y="703" type="line"/>
			<point x="415" y="705" type="line"/>
			<point x="405" y="679"/>
			<point x="396" y="667"/>
			<point x="380" y="667" type="curve" smooth="yes"/>
			<point x="357" y="667"/>
			<point x="318" y="708"/>
			<point x="262" y="708" type="curve"/>
			<point x="262" y="678" type="line"/>
			<point x="347" y="678"/>
			<point x="362" y="609"/>
		</contour>
		<contour>
			<point x="262" y="22" type="curve"/>
			<point x="262" y="-8" type="line"/>
			<point x="301.5" y="-8"/>
			<point x="337.5" y="16.5"/>
			<point x="363.5" y="59" type="curve" smooth="yes"/>
			<point x="377.5" y="82.5"/>
			<point x="390.5" y="93.5"/>
			<point x="399.5" y="93.5" type="curve" smooth="yes"/>
			<point x="412" y="93.5"/>
			<point x="418" y="74"/>
			<point x="412" y="40" type="curve"/>
			<point x="431" y="40" type="line"/>
			<point x="435.5" y="60.5"/>
			<point x="438" y="85"/>
			<point x="438" y="112" type="curve" smooth="yes"/>
			<point x="438" y="177.5"/>
			<point x="424.5" y="258"/>
			<point x="399.5" y="332" type="curve"/>
			<point x="380.5" y="330" type="line"/>
			<point x="382.5" y="321"/>
			<point x="384" y="301"/>
			<point x="384" y="280" type="curve" smooth="yes"/>
			<point x="384" y="82"/>
			<point x="316" y="22"/>
		</contour>
	</outline>
</glyph>
<glyph name="D" format="2">
	<advance width="508"/>
	<unicode hex="0044"/>
	<unicode hex="0064"/>
	<anchor x="230" y="350" name="center"/>
	<anchor x="230" y="0" name="bottom"/>
	<anchor x="215" y="700" name="top"/>
	<outline>
		<contour>
			<point x="361" y="350" type="curve"/>
			<point x="471" y="350" type="line"/>
			<point x="471" y="526"/>
			<point x="378" y="700"/>
			<point x="215" y="700" type="curve" smooth="yes"/>
			<point x="164.5" y="700" type="line"/>
			<point x="164.5" y="670" type="line"/>
			<point x="215" y="670" type="line" smooth="yes"/>
			<point x="304.5" y="670"/>
			<point x="361" y="555"/>
		</contour>
		<contour>
			<point x="164.5" y="0" type="line"/>
			<point x="215" y="0" type="line" smooth="yes"/>
			<point x="378" y="0"/>
			<point x="471" y="184"/>
			<point x="471" y="350" type="curve"/>
			<point x="361" y="350" type="line"/>
			<point x="361" y="145"/>
			<point x="304.5" y="30"/>
			<point x="215" y="30" type="curve" smooth="yes"/>
			<point x="164.5" y="30" type="line"/>
		</contour>
		<component base="_part.stem" xOffset="-9"/>
		<component base="_part.shortserif" xOffset="-9"/>
		<component base="_part.shortserif" xOffset="-9" yOffset="-670"/>
	</outline>
</glyph>
<glyph name="E" format="2">
	<advance width="467"/>
	<unicode hex="0045"/>
	<unicode hex="0065"/>
	<anchor x="321" y="0" name="ogonek"/>
	<anchor x="235" y="700" name="top"/>
	<anchor x="22" y="700" name="topleft"/>
	<anchor x="221" y="0" name="bottom"/>
	<outline>
		<contour>
			<point x="329" y="0" type="line"/>
			<point x="380" y="0" type="line"/>
			<point x="435" y="168" type="line"/>
			<point x="416" y="168" type="line"/>
		</contour>
		<contour>
			<point x="227" y="0" type="line"/>
			<point x="363" y="0" type="line"/>
			<point x="363" y="30" type="line"/>
			<point x="227" y="30" type="line"/>
		</contour>
		<contour>
			<point x="293.5" y="309" type="line"/>
			<point x="313.5" y="309" type="line"/>
			<point x="313.5" y="427" type="line"/>
			<point x="270" y="427" type="line"/>
		</contour>
		<contour>
			<point x="187" y="408" type="line"/>
			<point x="313.5" y="408" type="line"/>
			<point x="313.5" y="438" type="line"/>
			<point x="187" y="438" type="line"/>
		</contour>
		<contour>
			<point x="270" y="419" type="line"/>
			<point x="313.5" y="419" type="line"/>
			<point x="313.5" y="537" type="line"/>
			<point x="293.5" y="537" type="line"/>
		</contour>
		<contour>
			<point x="386" y="532" type="line"/>
			<point x="405" y="532" type="line"/>
			<point x="380" y="700" type="line"/>
			<point x="329" y="700" type="line"/>
		</contour>
		<contour>
			<point x="247" y="670" type="line"/>
			<point x="373" y="670" type="line"/>
			<point x="373" y="700" type="line"/>
			<point x="247" y="700" type="line"/>
		</contour>
		<component base="_part.stemserifs" xOffset="-9"/>
	</outline>
</glyph>
<glyph name="F" format="2">
	<advance width="437"/>
	<unicode hex="0046"/>
	<unicode hex="0066"/>
	<anchor x="206" y="700" name="top"/>
	<anchor x="206" y="0" name="bottom"/>
	<outline>
		<contour>
			<point x="386" y="532" type="line"/>
			<point x="405" y="532" type="line"/>
			<point x="380" y="700" type="line"/>
			<point x="329" y="700" type="line"/>
		</contour>
		<contour>
			<point x="292.5" y="259" type="line"/>
			<point x="312.5" y="259" type="line"/>
			<point x="312.5" y="377" type="line"/>
			<point x="269" y="377" type="line"/>
		</contour>
		<contour>
			<point x="187" y="358" type="line"/>
			<point x="312.5" y="358" type="line"/>
			<point x="312.5" y="388" type="line"/>
			<point x="187" y="388" type="line"/>
		</contour>
		<contour>
			<point x="269" y="369" type="line"/>
			<point x="312.5" y="369" type="line"/>
			<point x="312.5" y="487" type="line"/>
			<point x="292.5" y="487" type="line"/>
		</contour>
		<contour>
			<point x="247" y="670" type="line"/>
			<point x="373" y="670" type="line"/>
			<point x="373" y="700" type="line"/>
			<point x="247" y="700" type="line"/>
		</contour>
		<component base="_part.stemserifs" xOffset="-9"/>
		<component base="_part.longserif" xScale="-1" yScale="-1" xOffset="315" yOffset="700"/>
	</outline>
</glyph>
<glyph name="G" format="2">
	<advance width="544"/>
	<unicode hex="0047"/>
	<unicode hex="0067"/>
	<anchor x="272" y="708" name="top"/>
	<anchor x="272" y="0" name="bottom"/>
	<outline>
		<contour>
			<point x="281" y="-8" type="curve"/>
			<point x="281" y="22" type="line"/>
			<point x="204" y="22"/>
			<point x="147" y="142"/>
			<point x="147" y="350" type="curve"/>
			<point x="37" y="350" type="line"/>
			<point x="37" y="174"/>
			<point x="123" y="-8"/>
		</contour>
		<contour>
			<point x="281" y="22" type="curve"/>
			<point x="281" y="-8" type="line"/>
			<point x="357" y="-8"/>
			<point x="358.5" y="30.5"/>
			<point x="406.5" y="30.5" type="curve" smooth="yes"/>
			<point x="429" y="30.5"/>
			<point x="442" y="20.5"/>
			<point x="442" y="0" type="curve"/>
			<point x="461" y="0" type="line"/>
			<point x="461" y="427" type="line"/>
			<point x="361" y="427" type="line"/>
			<point x="361" y="83.5" type="line" smooth="yes"/>
			<point x="361" y="65.5"/>
			<point x="352.5" y="49.5"/>
			<point x="338.5" y="39" type="curve" smooth="yes"/>
			<point x="325" y="28"/>
			<point x="305" y="22"/>
		</contour>
		<contour>
			<point x="37" y="350" type="curve"/>
			<point x="147" y="350" type="line"/>
			<point x="147" y="558"/>
			<point x="195" y="678"/>
			<point x="272" y="678" type="curve"/>
			<point x="272" y="708" type="line"/>
			<point x="114" y="708"/>
			<point x="37" y="526"/>
		</contour>
		<contour>
			<point x="364" y="510" type="curve" smooth="yes"/>
			<point x="361" y="477" type="line"/>
			<point x="378" y="477" type="line"/>
			<point x="445" y="703" type="line"/>
			<point x="426" y="705" type="line"/>
			<point x="416" y="679"/>
			<point x="407" y="667"/>
			<point x="391" y="667" type="curve" smooth="yes"/>
			<point x="368" y="667"/>
			<point x="329" y="708"/>
			<point x="272" y="708" type="curve"/>
			<point x="272" y="678" type="line"/>
			<point x="358" y="678"/>
			<point x="373" y="609"/>
		</contour>
		<component base="_part.longserif" xOffset="256" yOffset="-273"/>
		<component base="_part.longserif" xOffset="196" yOffset="-273"/>
	</outline>
</glyph>
<glyph name="H" format="2">
	<advance width="584"/>
	<unicode hex="0048"/>
	<unicode hex="0068"/>
	<anchor x="292" y="350" name="center"/>
	<anchor x="292" y="700" name="top"/>
	<anchor x="22" y="700" name="topleft"/>
	<anchor x="292" y="0" name="bottom"/>
	<outline>
		<contour>
			<point x="187" y="408" type="line"/>
			<point x="397" y="408" type="line"/>
			<point x="397" y="438" type="line"/>
			<point x="187" y="438" type="line"/>
		</contour>
		<component base="_part.stemserifs" xOffset="281"/>
		<component base="_part.stemserifs" xOffset="-9"/>
	</outline>
</glyph>
<glyph name="J" format="2">
	<advance width="427"/>
	<unicode hex="004A"/>
	<unicode hex="006A"/>
	<anchor x="227" y="700" name="top"/>
	<anchor x="227" y="0" name="bottom"/>
	<outline>
		<contour>
			<point x="200.5" y="-8" type="curve" smooth="yes"/>
			<point x="288.5" y="-8"/>
			<point x="340.5" y="45"/>
			<point x="340.5" y="140" type="curve"/>
			<point x="240.5" y="152" type="line"/>
			<point x="240.5" y="77"/>
			<point x="204.5" y="34"/>
			<point x="149.5" y="34" type="curve" smooth="yes"/>
			<point x="74.5" y="34"/>
			<point x="70.5" y="130"/>
			<point x="70.5" y="257" type="curve"/>
			<point x="40.5" y="237" type="line"/>
			<point x="40.5" y="48"/>
			<point x="72" y="-8"/>
		</contour>
		<contour>
			<point x="40.5" y="237" type="line"/>
			<point x="70.5" y="237" type="line"/>
			<point x="70.5" y="500" type="line"/>
			<point x="40.5" y="500" type="line"/>
		</contour>
		<contour>
			<point x="42.5" y="532" type="line"/>
			<point x="62.5" y="532" type="line"/>
			<point x="119.5" y="700" type="line"/>
			<point x="67.5" y="700" type="line"/>
		</contour>
		<contour>
			<point x="340.5" y="140" type="line"/>
			<point x="340.5" y="700" type="line"/>
			<point x="240.5" y="700" type="line"/>
			<point x="240.5" y="152" type="line"/>
		</contour>
		<contour>
			<point x="91.5" y="670" type="line"/>
			<point x="400.5" y="670" type="line"/>
			<point x="400.5" y="700" type="line"/>
			<point x="91.5" y="700" type="line"/>
		</contour>
	</outline>
</glyph>
<glyph name="K" format="2">
	<advance width="540"/>
	<unicode hex="004B"/>
	<unicode hex="006B"/>
	<anchor x="260" y="700" name="top"/>
	<anchor x="260" y="0" name="bottom"/>
	<outline>
		<contour>
			<point x="362" y="0" type="line"/>
			<point x="463" y="0" type="line"/>
			<point x="275" y="516" type="line"/>
			<point x="213" y="410" type="line"/>
		</contour>
		<contour>
			<point x="139.5" y="333" type="line"/>
			<point x="174" y="333" type="line"/>
			<point x="384" y="697" type="line"/>
			<point x="349.5" y="697" type="line"/>
		</contour>
		<contour>
			<point x="298.5" y="670" type="line"/>
			<point x="423.5" y="670" type="line"/>
			<point x="423.5" y="700" type="line"/>
			<point x="298.5" y="700" type="line"/>
		</contour>
		<component base="_part.stemserifs" xOffset="-9"/>
		<component base="_part.longserif" xOffset="247" yOffset="-670"/>
	</outline>
</glyph>
<glyph name="M" format="2">
	<advance width="596"/>
	<unicode hex="004D"/>
	<unicode hex="006D"/>
	<anchor x="298" y="700" name="top"/>
	<anchor x="298" y="0" name="bottom"/>
	<outline>
		<contour>
			<point x="252" y="-58" type="line"/>
			<point x="298" y="178.5" type="line"/>
			<point x="196" y="700" type="line"/>
			<point x="104" y="700" type="line"/>
		</contour>
		<contour>
			<point x="238" y="23" type="line"/>
			<point x="264" y="3" type="line"/>
			<point x="400" y="700" type="line"/>
			<point x="369" y="700" type="line"/>
		</contour>
		<component base="_part.shortserif" xOffset="348"/>
		<component base="_part.stemthin" xOffset="11"/>
		<component base="_part.halfstemright" xOffset="293"/>
	</outline>
</glyph>
<glyph name="N" format="2">
	<advance width="524"/>
	<unicode hex="004E"/>
	<unicode hex="006E"/>
	<anchor x="283" y="700" name="top"/>
	<anchor x="262" y="0" name="bottom"/>
	<outline>
		<contour>
			<point x="438" y="-57" type="line"/>
			<point x="438" y="190" type="line"/>
			<point x="184" y="700" type="line"/>
			<point x="97" y="700" type="line"/>
			<point x="97" y="628" type="line"/>
		</contour>
		<component base="_part.shortserif" xOffset="313"/>
		<component base="_part.stemthin" xOffset="11"/>
		<component base="_part.verticalstrokethin" xOffset="333"/>
	</outline>
</glyph>
<glyph name="O" format="2">
	<advance width="524"/>
	<unicode hex="004F"/>
	<unicode hex="006F"/>
	<anchor x="262" y="350" name="center"/>
	<anchor x="478" y="10" name="ogonek"/>
	<anchor x="262" y="700" name="top"/>
	<anchor x="512" y="700" name="topright"/>
	<anchor x="12" y="700" name="topleft"/>
	<anchor x="262" y="0" name="bottom"/>
	<outline>
		<contour>
			<point x="377" y="350" type="curve"/>
			<point x="487" y="350" type="line"/>
			<point x="487" y="526"/>
			<point x="420" y="708"/>
			<point x="262" y="708" type="curve"/>
			<point x="262" y="678" type="line"/>
			<point x="339" y="678"/>
			<point x="377" y="558"/>
		</contour>
		<contour>
			<point x="262" y="-8" type="curve"/>
			<point x="262" y="22" type="line"/>
			<point x="185" y="22"/>
			<point x="147" y="142"/>
			<point x="147" y="350" type="curve"/>
			<point x="37" y="350" type="line"/>
			<point x="37" y="174"/>
			<point x="104" y="-8"/>
		</contour>
		<contour>
			<point x="262" y="22" type="curve"/>
			<point x="262" y="-8" type="line"/>
			<point x="420" y="-8"/>
			<point x="487" y="174"/>
			<point x="487" y="350" type="curve"/>
			<point x="377" y="350" type="line"/>
			<point x="377" y="142"/>
			<point x="339" y="22"/>
		</contour>
		<contour>
			<point x="37" y="350" type="curve"/>
			<point x="147" y="350" type="line"/>
			<point x="147" y="558"/>
			<point x="185" y="678"/>
			<point x="262" y="678" type="curve"/>
			<point x="262" y="708" type="line"/>
			<point x="104" y="708"/>
			<point x="37" y="526"/>
		</contour>
	</outline>
</glyph>
<glyph name="P" format="2">
	<advance width="496"/>
	<unicode hex="0050"/>
	<unicode hex="0070"/>
	<outline>
		<contour>
			<point x="194" y="155" type="line"/>
			<point x="253" y="155" type="line" smooth="yes"/>
			<point x="383" y="155"/>
			<point x="460" y="273"/>
			<point x="460" y="450" type="curve"/>
			<point x="365" y="450" type="line"/>
			<point x="365" y="278"/>
			<point x="311.5" y="185"/>
			<point x="216" y="185" type="curve" smooth="yes"/>
			<point x="194" y="185" type="line"/>
		</contour>
		<contour>
			<point x="365" y="450" type="curve"/>
			<point x="460" y="450" type="line"/>
			<point x="460" y="600"/>
			<point x="383" y="700"/>
			<point x="253" y="700" type="curve" smooth="yes"/>
			<point x="194" y="700" type="line"/>
			<point x="194" y="670" type="line"/>
			<point x="216" y="670" type="line" smooth="yes"/>
			<point x="311.5" y="670"/>
			<point x="365" y="595"/>
		</contour>
		<component base="_part.halfstemleft" xOffset="11"/>
		<component base="_part.longserif" xScale="-1" yScale="-1" xOffset="315" yOffset="700"/>
	</outline>
</glyph>
<glyph name="Q" format="2">
	<advance width="502"/>
	<unicode hex="0051"/>
	<unicode hex="0071"/>
	<anchor x="251" y="700" name="top"/>
	<anchor x="251" y="0" name="bottom"/>
	<outline>
		<contour>
			<point x="415" y="-107" type="curve" smooth="yes"/>
			<point x="461.5" y="-107"/>
			<point x="484.5" y="-94"/>
			<point x="535.5" y="-37.5" type="curve"/>
			<point x="522" y="-24" type="line"/>
			<point x="484" y="-64"/>
			<point x="451" y="-78"/>
			<point x="430" y="-78" type="curve" smooth="yes"/>
			<point x="382.5" y="-78"/>
			<point x="359.5" y="-37"/>
			<point x="315" y="126" type="curve" smooth="yes"/>
			<point x="305" y="163.5"/>
			<point x="283" y="189"/>
			<point x="256" y="189" type="curve" smooth="yes"/>
			<point x="232.5" y="189"/>
			<point x="194" y="164.5"/>
			<point x="161" y="128" type="curve"/>
			<point x="170.5" y="111" type="line"/>
			<point x="181.5" y="121"/>
			<point x="194.5" y="128"/>
			<point x="203" y="128" type="curve" smooth="yes"/>
			<point x="233" y="128"/>
			<point x="253" y="85"/>
			<point x="276" y="36" type="curve" smooth="yes"/>
			<point x="306.5" y="-30"/>
			<point x="343" y="-107"/>
		</contour>
		<component base="O"/>
	</outline>
</glyph>
<glyph name="R" format="2">
	<advance width="496"/>
	<unicode hex="0052"/>
	<unicode hex="0072"/>
	<anchor x="254" y="700" name="top"/>
	<anchor x="304" y="0" name="bottom"/>
	<outline>
		<contour>
			<point x="479" y="-8" type="curve" smooth="yes"/>
			<point x="502" y="-8"/>
			<point x="522" y="-4"/>
			<point x="530" y="1" type="curve"/>
			<point x="527" y="30" type="line"/>
			<point x="524" y="29.5"/>
			<point x="519" y="28.5"/>
			<point x="516" y="28.5" type="curve" smooth="yes"/>
			<point x="411" y="28.5"/>
			<point x="437" y="217"/>
			<point x="378" y="317" type="curve" smooth="yes"/>
			<point x="345" y="375"/>
			<point x="271" y="386"/>
			<point x="183" y="386" type="curve"/>
			<point x="183" y="368" type="line"/>
			<point x="399" y="368"/>
			<point x="236" y="-8"/>
		</contour>
		<contour>
			<point x="194" y="397" type="curve"/>
			<point x="194" y="382" type="line"/>
			<point x="369" y="382"/>
			<point x="451" y="468"/>
			<point x="451" y="551" type="curve" smooth="yes"/>
			<point x="451" y="642"/>
			<point x="371" y="700"/>
			<point x="253" y="700" type="curve" smooth="yes"/>
			<point x="194" y="700" type="line"/>
			<point x="194" y="670" type="line"/>
			<point x="216" y="670" type="line" smooth="yes"/>
			<point x="317.5" y="670"/>
			<point x="356" y="623"/>
			<point x="356" y="550" type="curve" smooth="yes"/>
			<point x="356" y="456.5"/>
			<point x="290" y="397"/>
		</contour>
		<component base="_part.stemserifs" xOffset="-9"/>
	</outline>
</glyph>
<glyph name="S" format="2">
	<advance width="456.5"/>
	<unicode hex="0053"/>
	<unicode hex="0073"/>
	<anchor x="251" y="708" name="top"/>
	<anchor x="227" y="0" name="bottom"/>
	<outline>
		<contour>
			<point x="231" y="-8" type="curve" smooth="yes"/>
			<point x="342" y="-8"/>
			<point x="424" y="73"/>
			<point x="424" y="194" type="curve" smooth="yes"/>
			<point x="424" y="281"/>
			<point x="358" y="344"/>
			<point x="313" y="389" type="curve" smooth="yes"/>
			<point x="268" y="434"/>
			<point x="165" y="530"/>
			<point x="165" y="605.5" type="curve" smooth="yes"/>
			<point x="165" y="646.5"/>
			<point x="199.5" y="678"/>
			<point x="251" y="678" type="curve" smooth="yes"/>
			<point x="342.5" y="678"/>
			<point x="352" y="609"/>
			<point x="343" y="510" type="curve" smooth="yes"/>
			<point x="340" y="477" type="line"/>
			<point x="359" y="477" type="line"/>
			<point x="426" y="703" type="line"/>
			<point x="405" y="705" type="line"/>
			<point x="395" y="679"/>
			<point x="386" y="667"/>
			<point x="370" y="667" type="curve" smooth="yes"/>
			<point x="347" y="667"/>
			<point x="308" y="708"/>
			<point x="251" y="708" type="curve" smooth="yes"/>
			<point x="152" y="708"/>
			<point x="83" y="643"/>
			<point x="83" y="551" type="curve" smooth="yes"/>
			<point x="83" y="459"/>
			<point x="186" y="363"/>
			<point x="231" y="318" type="curve" smooth="yes"/>
			<point x="276" y="273"/>
			<point x="342" y="215.5"/>
			<point x="342" y="128.5" type="curve" smooth="yes"/>
			<point x="342" y="64.5"/>
			<point x="297.5" y="22"/>
			<point x="231" y="22" type="curve" smooth="yes"/>
			<point x="86" y="22"/>
			<point x="90.5" y="153.5"/>
			<point x="129.5" y="330" type="curve"/>
			<point x="110.5" y="331.5" type="line"/>
			<point x="26.5" y="23.5" type="line"/>
			<point x="45.5" y="23.5" type="line"/>
			<point x="49.5" y="37.5"/>
			<point x="57.5" y="47.5"/>
			<point x="70.5" y="48" type="curve" smooth="yes"/>
			<point x="83" y="48.5"/>
			<point x="98.5" y="37"/>
			<point x="124.5" y="23.5" type="curve" smooth="yes"/>
			<point x="153.5" y="8.5"/>
			<point x="194" y="-8"/>
		</contour>
	</outline>
</glyph>
<glyph name="T" format="2">
	<advance width="452"/>
	<unicode hex="0054"/>
	<unicode hex="0074"/>
	<anchor x="226" y="350" name="center"/>
	<anchor x="226" y="0" name="bottom"/>
	<anchor x="226" y="700" name="top"/>
	<outline>
		<contour>
			<point x="407" y="467" type="line"/>
			<point x="426" y="467" type="line"/>
			<point x="404" y="700" type="line"/>
			<point x="343" y="700" type="line"/>
		</contour>
		<contour>
			<point x="26" y="467" type="line"/>
			<point x="45" y="467" type="line"/>
			<point x="109" y="700" type="line"/>
			<point x="48" y="700" type="line"/>
		</contour>
		<contour>
			<point x="70" y="670" type="line"/>
			<point x="156" y="670" type="line"/>
			<point x="156" y="700" type="line"/>
			<point x="70" y="700" type="line"/>
		</contour>
		<contour>
			<point x="296" y="670" type="line"/>
			<point x="382" y="670" type="line"/>
			<point x="382" y="700" type="line"/>
			<point x="296" y="700" type="line"/>
		</contour>
		<component base="_part.stemserifs" xOffset="70"/>
	</outline>
</glyph>
<glyph name="U" format="2">
	<advance width="476"/>
	<unicode hex="0055"/>
	<unicode hex="0075"/>
	<anchor x="257" y="-8" name="ogonek"/>
	<anchor x="271" y="700" name="top"/>
	<anchor x="470" y="700" name="topright"/>
	<anchor x="241" y="0" name="bottom"/>
	<outline>
		<contour>
			<point x="257" y="-8" type="curve" smooth="yes"/>
			<point x="376.5" y="-8"/>
			<point x="406" y="35.5"/>
			<point x="406" y="219.5" type="curve"/>
			<point x="376" y="219.5" type="line"/>
			<point x="376" y="82"/>
			<point x="365" y="22.5"/>
			<point x="277.5" y="22.5" type="curve" smooth="yes"/>
			<point x="222.5" y="22.5"/>
			<point x="186" y="50.5"/>
			<point x="186" y="140" type="curve"/>
			<point x="86" y="140" type="line"/>
			<point x="86" y="51"/>
			<point x="147.5" y="-8"/>
		</contour>
		<contour>
			<point x="86" y="140" type="line"/>
			<point x="186" y="140" type="line"/>
			<point x="186" y="700" type="line"/>
			<point x="86" y="700" type="line"/>
		</contour>
		<contour>
			<point x="376" y="219.5" type="line"/>
			<point x="406" y="219.5" type="line"/>
			<point x="406" y="700" type="line"/>
			<point x="376" y="700" type="line"/>
		</contour>
		<component base="_part.longserif" xOffset="-20"/>
		<component base="_part.shortserif" xOffset="281"/>
	</outline>
</glyph>
<glyph name="V" format="2">
	<advance width="461"/>
	<unicode hex="0056"/>
	<unicode hex="0076"/>
	<anchor x="230" y="700" name="top"/>
	<anchor x="230" y="0" name="bottom"/>
	<outline>
		<contour>
			<point x="233" y="-37" type="line"/>
			<point x="285" y="156" type="line"/>
			<point x="139" y="700" type="line"/>
			<point x="35" y="700" type="line"/>
		</contour>
		<contour>
			<point x="233" y="-37" type="line"/>
			<point x="431" y="700" type="line"/>
			<point x="400" y="700" type="line"/>
			<point x="219.5" y="27.5" type="line"/>
		</contour>
		<component base="_part.longserif" xOffset="-60"/>
		<component base="_part.shortserif" xOffset="301"/>
	</outline>
</glyph>
<glyph name="W" format="2">
	<advance width="648"/>
	<unicode hex="0057"/>
	<unicode hex="0077"/>
	<anchor x="334" y="700" name="top"/>
	<anchor x="329" y="0" name="bottom"/>
	<outline>
		<contour>
			<point x="441.5" y="-37" type="line"/>
			<point x="493" y="187" type="line"/>
			<point x="374" y="700" type="line"/>
			<point x="272" y="700" type="line"/>
		</contour>
		<contour>
			<point x="213.5" y="-37" type="line"/>
			<point x="265" y="187" type="line"/>
			<point x="146" y="700" type="line"/>
			<point x="44" y="700" type="line"/>
		</contour>
		<contour>
			<point x="328" y="595" type="line"/>
			<point x="200.5" y="42" type="line"/>
			<point x="213.5" y="-37" type="line"/>
			<point x="359" y="595" type="line"/>
		</contour>
		<contour>
			<point x="441.5" y="-37" type="line"/>
			<point x="611" y="700" type="line"/>
			<point x="580.5" y="700" type="line"/>
			<point x="428.5" y="42" type="line"/>
		</contour>
		<component base="_part.longserif" xOffset="-60"/>
		<component base="_part.shortserif" xOffset="488"/>
		<component base="_part.longserif" xOffset="181"/>
	</outline>
</glyph>
<glyph name="X" format="2">
	<advance width="446"/>
	<unicode hex="0058"/>
	<unicode hex="0078"/>
	<anchor x="242" y="700" name="top"/>
	<anchor x="242" y="0" name="bottom"/>
	<outline>
		<contour>
			<point x="298.5" y="0" type="line"/>
			<point x="399.5" y="0" type="line"/>
			<point x="144.5" y="700" type="line"/>
			<point x="43.5" y="700" type="line"/>
		</contour>
		<contour>
			<point x="24.5" y="0" type="line"/>
			<point x="55.5" y="0" type="line"/>
			<point x="225.5" y="398" type="line"/>
			<point x="194.5" y="398" type="line"/>
		</contour>
		<contour>
			<point x="199.5" y="337" type="line"/>
			<point x="230.5" y="337" type="line"/>
			<point x="385.5" y="700" type="line"/>
			<point x="354.5" y="700" type="line"/>
		</contour>
		<component base="_part.shortserif" xOffset="250"/>
		<component base="_part.shortserif" xOffset="-60" yOffset="-670"/>
		<component base="_part.longserif" xOffset="-60"/>
		<component base="_part.longserif" xOffset="194" yOffset="-670"/>
	</outline>
</glyph>
<glyph name="Y" format="2">
	<advance width="399"/>
	<unicode hex="0059"/>
	<unicode hex="0079"/>
	<anchor x="236" y="700" name="top"/>
	<anchor x="206" y="0" name="bottom"/>
	<anchor x="1" y="700" name="topleft"/>
	<outline>
		<contour>
			<point x="159" y="202" type="line"/>
			<point x="258" y="217.5" type="line"/>
			<point x="146.5" y="700" type="line"/>
			<point x="44" y="700" type="line"/>
		</contour>
		<contour>
			<point x="157.5" y="0" type="line"/>
			<point x="257.5" y="0" type="line"/>
			<point x="257.5" y="217.5" type="line"/>
			<point x="157.5" y="217.5" type="line"/>
		</contour>
		<contour>
			<point x="254.5" y="202" type="line"/>
			<point x="369.5" y="700" type="line"/>
			<point x="338.5" y="700" type="line"/>
			<point x="227" y="217.5" type="line"/>
		</contour>
		<component base="_part.longserif" xOffset="-60"/>
		<component base="_part.longserif" xScale="-1" yScale="-1" xOffset="364" yOffset="700"/>
		<component base="_part.shortserif" xOffset="239"/>
	</outline>
</glyph>
<glyph name="Z" format="2">
	<advance width="426"/>
	<unicode hex="005A"/>
	<unicode hex="007A"/>
	<anchor x="213" y="350" name="center"/>
	<anchor x="213" y="0" name="bottom"/>
	<anchor x="213" y="700" name="top"/>
	<outline>
		<contour>
			<point x="26" y="0" type="line"/>
			<point x="127" y="0" type="line"/>
			<point x="382" y="700" type="line"/>
			<point x="281" y="700" type="line"/>
		</contour>
		<contour>
			<point x="92" y="0" type="line"/>
			<point x="328" y="0" type="line"/>
			<point x="328" y="30" type="line"/>
			<point x="92" y="30" type="line"/>
		</contour>
		<contour>
			<point x="294" y="0" type="line"/>
			<point x="345" y="0" type="line"/>
			<point x="400" y="168" type="line"/>
			<point x="381" y="168" type="line"/>
		</contour>
		<contour>
			<point x="43" y="532" type="line"/>
			<point x="62" y="532" type="line"/>
			<point x="119" y="700" type="line"/>
			<point x="68" y="700" type="line"/>
		</contour>
		<contour>
			<point x="75" y="670" type="line"/>
			<point x="302" y="670" type="line"/>
			<point x="302" y="700" type="line"/>
			<point x="75" y="700" type="line"/>
		</contour>
	</outline>
</glyph>
<glyph name="bracketleft" format="2">
	<advance width="244"/>
	<unicode hex="005B"/>
	<outline>
		<contour>
			<point x="47" y="-50" type="line"/>
			<point x="127" y="-50" type="line"/>
			<point x="127" y="700" type="line"/>
			<point x="47" y="700" type="line"/>
		</contour>
		<contour>
			<point x="47" y="-50" type="line"/>
			<point x="207" y="-50" type="line"/>
			<point x="207" y="-16" type="line"/>
			<point x="47" y="-16" type="line"/>
		</contour>
		<contour>
			<point x="47" y="666" type="line"/>
			<point x="207" y="666" type="line"/>
			<point x="207" y="700" type="line"/>
			<point x="47" y="700" type="line"/>
		</contour>
	</outline>
</glyph>
<glyph name="asciicircum" format="2">
	<advance width="254.5"/>
	<unicode hex="005E"/>
	<outline>
		<contour>
			<point x="55" y="495" type="line"/>
			<point x="135" y="645.5" type="line"/>
			<point x="199.5" y="495" type="line"/>
			<point x="218.5" y="500" type="line"/>
			<point x="135" y="758.5" type="line"/>
			<point x="36" y="500" type="line"/>
		</contour>
	</outline>
</glyph>
<glyph name="braceleft" format="2">
	<advance width="277"/>
	<unicode hex="007B"/>
	<outline>
		<contour>
			<point x="81" y="550" type="curve"/>
			<point x="171" y="550" type="line"/>
			<point x="171" y="683.5"/>
			<point x="180.5" y="723"/>
			<point x="256" y="723.5" type="curve"/>
			<point x="256" y="753.5" type="line"/>
			<point x="116" y="754"/>
			<point x="81" y="684"/>
		</contour>
		<contour>
			<point x="256" y="-52.5" type="curve"/>
			<point x="256" y="-22.5" type="line"/>
			<point x="180.5" y="-22"/>
			<point x="171" y="17.5"/>
			<point x="171" y="151" type="curve"/>
			<point x="81" y="151" type="line"/>
			<point x="81" y="17"/>
			<point x="116" y="-53"/>
		</contour>
		<contour>
			<point x="81" y="151" type="curve"/>
			<point x="171" y="151" type="line"/>
			<point x="171" y="314.5"/>
			<point x="96" y="355"/>
			<point x="21" y="354.5" type="curve"/>
			<point x="21" y="335.5" type="line"/>
			<point x="69" y="335"/>
			<point x="81" y="307"/>
		</contour>
		<contour>
			<point x="21" y="365.5" type="curve"/>
			<point x="21" y="346.5" type="line"/>
			<point x="96" y="346"/>
			<point x="171" y="386.5"/>
			<point x="171" y="550" type="curve"/>
			<point x="81" y="550" type="line"/>
			<point x="81" y="394"/>
			<point x="69" y="366"/>
		</contour>
	</outline>
</glyph>
<glyph name="bar" format="2">
	<advance width="169"/>
	<unicode hex="007C"/>
	<outline>
		<contour>
			<point x="66.5" y="-100" type="line"/>
			<point x="102.5" y="-100" type="line"/>
			<point x="102.5" y="700" type="line"/>
			<point x="66.5" y="700" type="line"/>
		</contour>
	</outline>
</glyph>
<glyph name="yen" format="2">
	<advance width="460"/>
	<unicode hex="00A5"/>
	<outline>
		<contour>
			<point x="188.5" y="252" type="line"/>
			<point x="287.5" y="267.5" type="line"/>
			<point x="193" y="700" type="line"/>
			<point x="90.5" y="700" type="line"/>
		</contour>
		<contour>
			<point x="80" y="94" type="line"/>
			<point x="395" y="94" type="line"/>
			<point x="395" y="124" type="line"/>
			<point x="80" y="124" type="line"/>
		</contour>
		<contour>
			<point x="187.5" y="0" type="line"/>
			<point x="287.5" y="0" type="line"/>
			<point x="287.5" y="267.5" type="line"/>
			<point x="187.5" y="267.5" type="line"/>
		</contour>
		<contour>
			<point x="80" y="171" type="line"/>
			<point x="395" y="171" type="line"/>
			<point x="395" y="201" type="line"/>
			<point x="80" y="201" type="line"/>
		</contour>
		<contour>
			<point x="284.5" y="252" type="line"/>
			<point x="382.5" y="700" type="line"/>
			<point x="352" y="700" type="line"/>
			<point x="257.5" y="267.5" type="line"/>
		</contour>
		<contour>
			<point x="299.5" y="670" type="line"/>
			<point x="427.5" y="670" type="line"/>
			<point x="427.5" y="700" type="line"/>
			<point x="299.5" y="700" type="line"/>
		</contour>
		<component base="_part.longserif" xOffset="-14"/>
		<component base="_part.longserif" xScale="-1" yScale="-1" xOffset="394" yOffset="700"/>
	</outline>
</glyph>
<glyph name="brokenbar" format="2">
	<advance width="169"/>
	<unicode hex="00A6"/>
	<outline>
		<contour>
			<point x="66.5" y="350" type="line"/>
			<point x="102.5" y="350" type="line"/>
			<point x="102.5" y="700" type="line"/>
			<point x="66.5" y="700" type="line"/>
		</contour>
		<contour>
			<point x="66.5" y="-100" type="line"/>
			<point x="102.5" y="-100" type="line"/>
			<point x="102.5" y="250" type="line"/>
			<point x="66.5" y="250" type="line"/>
		</contour>
	</outline>
</glyph>
<glyph name="copyright" format="2">
	<advance width="827"/>
	<unicode hex="00A9"/>
	<outline>
		<contour>
			<point x="413.5" y="-17.5" type="curve" smooth="yes"/>
			<point x="616.5" y="-17.5"/>
			<point x="781" y="147"/>
			<point x="781" y="350" type="curve" smooth="yes"/>
			<point x="781" y="553"/>
			<point x="616.5" y="717.5"/>
			<point x="413.5" y="717.5" type="curve" smooth="yes"/>
			<point x="210.5" y="717.5"/>
			<point x="46" y="553"/>
			<point x="46" y="350" type="curve" smooth="yes"/>
			<point x="46" y="147"/>
			<point x="210.5" y="-17.5"/>
		</contour>
		<contour>
			<point x="413.5" y="10" type="curve" smooth="yes"/>
			<point x="226" y="10"/>
			<point x="73.5" y="162.5"/>
			<point x="73.5" y="350" type="curve" smooth="yes"/>
			<point x="73.5" y="537.5"/>
			<point x="226" y="690"/>
			<point x="413.5" y="690" type="curve" smooth="yes"/>
			<point x="601" y="690"/>
			<point x="753.5" y="537.5"/>
			<point x="753.5" y="350" type="curve" smooth="yes"/>
			<point x="753.5" y="162.5"/>
			<point x="601" y="10"/>
		</contour>
		<component base="C" xScale="0.7692" yScale="0.7692" xOffset="220" yOffset="81"/>
	</outline>
</glyph>
<glyph name="guillemotleft" format="2">
	<advance width="315.5"/>
	<unicode hex="00AB"/>
	<outline>
		<contour>
			<point x="199" y="319.5" type="line"/>
			<point x="223" y="319.5"/>
			<point x="255" y="356.5"/>
			<point x="279.5" y="412.5" type="curve"/>
			<point x="260.5" y="417.5" type="line"/>
			<point x="238" y="370.5"/>
			<point x="208" y="338.5"/>
			<point x="147" y="331.5" type="curve"/>
			<point x="147" y="320" type="line"/>
		</contour>
		<contour>
			<point x="149.5" y="228.5" type="curve"/>
			<point x="168.5" y="233.5" type="line"/>
			<point x="144" y="289.5"/>
			<point x="112" y="326.5"/>
			<point x="88" y="326.5" type="curve"/>
			<point x="36" y="326" type="line"/>
			<point x="36" y="314.5" type="line"/>
			<point x="96" y="308.5"/>
			<point x="126" y="276"/>
		</contour>
		<contour>
			<point x="88" y="319.5" type="line"/>
			<point x="112" y="319.5"/>
			<point x="144" y="356.5"/>
			<point x="168.5" y="412.5" type="curve"/>
			<point x="149.5" y="417.5" type="line"/>
			<point x="127" y="370.5"/>
			<point x="97" y="338.5"/>
			<point x="36" y="331.5" type="curve"/>
			<point x="36" y="320" type="line"/>
		</contour>
		<contour>
			<point x="260.5" y="228.5" type="curve"/>
			<point x="279.5" y="233.5" type="line"/>
			<point x="255" y="289.5"/>
			<point x="223" y="326.5"/>
			<point x="199" y="326.5" type="curve"/>
			<point x="147" y="326" type="line"/>
			<point x="147" y="314.5" type="line"/>
			<point x="207" y="308.5"/>
			<point x="237" y="276"/>
		</contour>
	</outline>
</glyph>
<glyph name="AE" format="2">
	<advance width="618"/>
	<unicode hex="00C6"/>
	<unicode hex="00E6"/>
	<outline>
		<contour>
			<point x="34.5" y="0" type="line"/>
			<point x="65" y="0" type="line"/>
			<point x="320" y="700" type="line"/>
			<point x="289.5" y="700" type="line"/>
		</contour>
		<contour>
			<point x="-14" y="0" type="line"/>
			<point x="114" y="0" type="line"/>
			<point x="114" y="30" type="line"/>
			<point x="-14" y="30" type="line"/>
		</contour>
		<contour>
			<point x="71.5" y="99" type="line"/>
			<point x="155.5" y="99" type="line"/>
			<point x="113.5" y="214.5" type="line"/>
		</contour>
		<contour>
			<point x="78.5" y="88" type="line"/>
			<point x="328.5" y="88" type="line"/>
			<point x="328.5" y="118" type="line"/>
			<point x="78.5" y="118" type="line"/>
		</contour>
		<contour>
			<point x="480" y="0" type="line"/>
			<point x="531" y="0" type="line"/>
			<point x="586" y="168" type="line"/>
			<point x="567" y="168" type="line"/>
		</contour>
		<contour>
			<point x="479" y="303" type="line"/>
			<point x="498" y="303" type="line"/>
			<point x="498" y="421" type="line"/>
			<point x="455.5" y="421" type="line"/>
		</contour>
		<contour>
			<point x="298" y="0" type="line"/>
			<point x="398" y="0" type="line"/>
			<point x="398" y="700" type="line"/>
			<point x="298" y="700" type="line"/>
		</contour>
		<contour>
			<point x="388" y="402" type="line"/>
			<point x="498" y="402" type="line"/>
			<point x="498" y="432" type="line"/>
			<point x="388" y="432" type="line"/>
		</contour>
		<contour>
			<point x="455.5" y="413" type="line"/>
			<point x="498" y="413" type="line"/>
			<point x="498" y="531" type="line"/>
			<point x="479" y="531" type="line"/>
		</contour>
		<contour>
			<point x="208.5" y="670" type="line"/>
			<point x="368.5" y="670" type="line"/>
			<point x="368.5" y="700" type="line"/>
			<point x="208.5" y="700" type="line"/>
		</contour>
		<contour>
			<point x="542.5" y="532" type="line"/>
			<point x="561.5" y="532" type="line"/>
			<point x="536.5" y="700" type="line"/>
			<point x="485.5" y="700" type="line"/>
		</contour>
		<contour>
			<point x="398" y="670" type="line"/>
			<point x="524" y="670" type="line"/>
			<point x="524" y="700" type="line"/>
			<point x="398" y="700" type="line"/>
		</contour>
		<contour>
			<point x="238" y="0" type="line"/>
			<point x="514" y="0" type="line"/>
			<point x="514" y="30" type="line"/>
			<point x="238" y="30" type="line"/>
		</contour>
	</outline>
</glyph>
<glyph name="Eth" format="2">
	<advance width="599"/>
	<unicode hex="00D0"/>
	<unicode hex="00F0"/>
	<outline>
		<contour>
			<point x="452" y="350" type="curve"/>
			<point x="562" y="350" type="line"/>
			<point x="562" y="526"/>
			<point x="445" y="700"/>
			<point x="232" y="700" type="curve"/>
			<point x="175.5" y="700" type="line"/>
			<point x="175.5" y="670" type="line"/>
			<point x="232" y="670" type="line"/>
			<point x="364" y="670"/>
			<point x="452" y="558"/>
		</contour>
		<contour>
			<point x="175.5" y="0" type="line"/>
			<point x="232" y="0" type="line"/>
			<point x="445" y="0"/>
			<point x="562" y="184"/>
			<point x="562" y="350" type="curve"/>
			<point x="452" y="350" type="line"/>
			<point x="452" y="152"/>
			<point x="364" y="30"/>
			<point x="232" y="30" type="curve"/>
			<point x="175.5" y="30" type="line"/>
		</contour>
		<component base="_part.stem" xOffset="-9"/>
		<component base="_part.shortserif" xOffset="-9"/>
		<component base="_part.shortserif" xOffset="-9" yOffset="-670"/>
		<component base="_part.wavestrokehorizontal" xOffset="126"/>
	</outline>
</glyph>
<glyph name="Thorn" format="2">
	<advance width="485"/>
	<unicode hex="00DE"/>
	<unicode hex="00FE"/>
	<anchor x="238" y="700" name="top"/>
	<anchor x="238" y="0" name="bottom"/>
	<outline>
		<contour>
			<point x="364" y="350" type="curve"/>
			<point x="459" y="350" type="line"/>
			<point x="459" y="480"/>
			<point x="370" y="550"/>
			<point x="242" y="550" type="curve" smooth="yes"/>
			<point x="183" y="550" type="line"/>
			<point x="183" y="520" type="line"/>
			<point x="205" y="520" type="line" smooth="yes"/>
			<point x="292" y="520"/>
			<point x="364" y="488"/>
		</contour>
		<contour>
			<point x="183" y="155" type="line"/>
			<point x="242" y="155" type="line" smooth="yes"/>
			<point x="370" y="155"/>
			<point x="459" y="227"/>
			<point x="459" y="350" type="curve"/>
			<point x="364" y="350" type="line"/>
			<point x="364" y="232"/>
			<point x="300" y="185"/>
			<point x="205" y="185" type="curve" smooth="yes"/>
			<point x="183" y="185" type="line"/>
		</contour>
		<component base="_part.stemserifs" xOffset="-20"/>
	</outline>
</glyph>
<glyph name="Hbar" format="2">
	<advance width="584"/>
	<unicode hex="0126"/>
	<unicode hex="0127"/>
	<outline>
		<contour>
			<point x="50" y="545" type="line"/>
			<point x="530" y="545" type="line"/>
			<point x="530" y="575" type="line"/>
			<point x="50" y="575" type="line"/>
		</contour>
		<component base="H"/>
	</outline>
</glyph>
<glyph name="Lslash" format="2">
	<advance width="412"/>
	<unicode hex="0141"/>
	<unicode hex="0142"/>
	<outline>
		<contour>
			<point x="41" y="319" type="line"/>
			<point x="283.5" y="459" type="line"/>
			<point x="268.5" y="485" type="line"/>
			<point x="26" y="345" type="line"/>
		</contour>
		<component base="L" xOffset="-4"/>
	</outline>
</glyph>
<glyph name="Eng" format="2">
	<advance width="502"/>
	<unicode hex="014A"/>
	<unicode hex="014B"/>
	<anchor x="271" y="700" name="top"/>
	<anchor x="251" y="0" name="bottom"/>
	<outline>
		<contour>
			<point x="427" y="-57" type="line"/>
			<point x="427" y="190" type="line"/>
			<point x="173" y="700" type="line"/>
			<point x="86" y="700" type="line"/>
			<point x="86" y="628" type="line"/>
		</contour>
		<contour>
			<point x="369.5" y="-177.5" type="curve" smooth="yes"/>
			<point x="404" y="-177.5"/>
			<point x="427" y="-143"/>
			<point x="427" y="-67" type="curve" smooth="yes"/>
			<point x="427" y="0" type="line"/>
			<point x="397" y="0" type="line"/>
			<point x="397" y="-67" type="line" smooth="yes"/>
			<point x="397" y="-103.5"/>
			<point x="393" y="-127.5"/>
			<point x="372" y="-127.5" type="curve" smooth="yes"/>
			<point x="351" y="-127.5"/>
			<point x="333.5" y="-101.5"/>
			<point x="321.5" y="-63" type="curve"/>
			<point x="302.5" y="-67.5" type="line"/>
			<point x="306" y="-133.5"/>
			<point x="340.5" y="-177.5"/>
		</contour>
		<component base="_part.shortserif" xOffset="302"/>
		<component base="_part.stemthin"/>
		<component base="_part.verticalstrokethin" xOffset="322"/>
	</outline>
</glyph>
<glyph name="Tbar" format="2">
	<advance width="452"/>
	<unicode hex="0166"/>
	<unicode hex="0167"/>
	<outline>
		<contour>
			<point x="86" y="327.5" type="line"/>
			<point x="366" y="327.5" type="line"/>
			<point x="366" y="357.5" type="line"/>
			<point x="86" y="357.5" type="line"/>
		</contour>
		<component base="T"/>
	</outline>
</glyph>
<glyph name="uni0302" format="2">
	<advance width="0"/>
	<unicode hex="0302"/>
	<anchor x="-119.5" y="859" name="top"/>
	<anchor x="-126.5" y="700" name="_top"/>
	<outline>
		<contour>
			<point x="-202" y="733" type="line"/>
			<point x="-119.5" y="795.5" type="line"/>
			<point x="-52.5" y="733" type="line"/>
			<point x="-36" y="743" type="line"/>
			<point x="-119.5" y="858.5" type="line"/>
			<point x="-218.5" y="743" type="line"/>
		</contour>
	</outline>
</glyph>
<glyph name="tildecomb" format="2">
	<advance width="0"/>
	<unicode hex="0303"/>
	<anchor x="-167" y="829" name="top"/>
	<anchor x="-167" y="700" name="_top"/>
	<outline>
		<contour>
			<point x="-137.5" y="754.5" type="curve" smooth="yes"/>
			<point x="-102.5" y="754.5"/>
			<point x="-61" y="783"/>
			<point x="-36" y="825.5" type="curve"/>
			<point x="-55" y="830.5" type="line"/>
			<point x="-77" y="808"/>
			<point x="-97.5" y="800"/>
			<point x="-119.5" y="800" type="curve" smooth="yes"/>
			<point x="-161" y="800"/>
			<point x="-174" y="829"/>
			<point x="-215" y="829" type="curve" smooth="yes"/>
			<point x="-242" y="829"/>
			<point x="-274.5" y="806"/>
			<point x="-295" y="771" type="curve"/>
			<point x="-276" y="766" type="line"/>
			<point x="-259.5" y="786"/>
			<point x="-245.5" y="793"/>
			<point x="-231.5" y="793" type="curve" smooth="yes"/>
			<point x="-202.5" y="793"/>
			<point x="-178" y="754.5"/>
		</contour>
	</outline>
</glyph>
<glyph name="uni0306" format="2">
	<advance width="0"/>
	<unicode hex="0306"/>
	<anchor x="-126.5" y="853" name="top"/>
	<anchor x="-126.5" y="700" name="_top"/>
	<outline>
		<contour>
			<point x="-135" y="750" type="curve" smooth="yes"/>
			<point x="-71.5" y="750"/>
			<point x="-36" y="789"/>
			<point x="-36" y="853" type="curve"/>
			<point x="-55" y="853" type="line"/>
			<point x="-55" y="823.5"/>
			<point x="-79" y="800"/>
			<point x="-135" y="800" type="curve" smooth="yes"/>
			<point x="-182" y="800"/>
			<point x="-199" y="823.5"/>
			<point x="-199" y="853" type="curve"/>
			<point x="-218.5" y="853" type="line"/>
			<point x="-218.5" y="789"/>
			<point x="-188.5" y="750"/>
		</contour>
	</outline>
</glyph>
<glyph name="uni0307" format="2">
	<advance width="0"/>
	<unicode hex="0307"/>
	<anchor x="-75" y="700" name="_top"/>
	<outline>
		<contour>
			<point x="-76" y="747.5" type="curve" smooth="yes"/>
			<point x="-54" y="747.5"/>
			<point x="-36" y="765.5"/>
			<point x="-36" y="787.5" type="curve" smooth="yes"/>
			<point x="-36" y="809.5"/>
			<point x="-54" y="827.5"/>
			<point x="-76" y="827.5" type="curve" smooth="yes"/>
			<point x="-97.5" y="827.5"/>
			<point x="-116" y="809.5"/>
			<point x="-116" y="787.5" type="curve" smooth="yes"/>
			<point x="-116" y="765.5"/>
			<point x="-97.5" y="747.5"/>
		</contour>
	</outline>
</glyph>
<glyph name="uni0308" format="2">
	<advance width="0"/>
	<unicode hex="0308"/>
	<anchor x="-158" y="825" name="top"/>
	<anchor x="-158" y="700" name="_top"/>
	<outline>
		<contour>
			<point x="-73.5" y="750" type="curve" smooth="yes"/>
			<point x="-53" y="750"/>
			<point x="-36" y="767"/>
			<point x="-36" y="787.5" type="curve" smooth="yes"/>
			<point x="-36" y="808"/>
			<point x="-53" y="825"/>
			<point x="-73.5" y="825" type="curve" smooth="yes"/>
			<point x="-94" y="825"/>
			<point x="-111" y="808"/>
			<point x="-111" y="787.5" type="curve" smooth="yes"/>
			<point x="-111" y="767"/>
			<point x="-94" y="750"/>
		</contour>
		<contour>
			<point x="-243.5" y="750" type="curve" smooth="yes"/>
			<point x="-223" y="750"/>
			<point x="-206" y="767"/>
			<point x="-206" y="787.5" type="curve" smooth="yes"/>
			<point x="-206" y="808"/>
			<point x="-223" y="825"/>
			<point x="-243.5" y="825" type="curve" smooth="yes"/>
			<point x="-264" y="825"/>
			<point x="-281" y="808"/>
			<point x="-281" y="787.5" type="curve" smooth="yes"/>
			<point x="-281" y="767"/>
			<point x="-264" y="750"/>
		</contour>
	</outline>
</glyph>
<glyph name="uni030A" format="2">
	<advance width="0"/>
	<unicode hex="030A"/>
	<anchor x="-86" y="844" name="top"/>
	<anchor x="-86" y="700" name="_top"/>
	<outline>
		<contour>
			<point x="-86" y="741.5" type="curve" smooth="yes"/>
			<point x="-57" y="741.5"/>
			<point x="-33" y="765"/>
			<point x="-33" y="794" type="curve" smooth="yes"/>
			<point x="-33" y="823"/>
			<point x="-57" y="847"/>
			<point x="-86" y="847" type="curve" smooth="yes"/>
			<point x="-114.5" y="847"/>
			<point x="-138.5" y="823"/>
			<point x="-138.5" y="794" type="curve" smooth="yes"/>
			<point x="-138.5" y="765"/>
			<point x="-114.5" y="741.5"/>
		</contour>
		<contour>
			<point x="-86" y="771.5" type="curve" smooth="yes"/>
			<point x="-98.5" y="771.5"/>
			<point x="-108.5" y="781.5"/>
			<point x="-108.5" y="794" type="curve" smooth="yes"/>
			<point x="-108.5" y="806.5"/>
			<point x="-98.5" y="817"/>
			<point x="-86" y="817" type="curve" smooth="yes"/>
			<point x="-73.5" y="817"/>
			<point x="-63" y="806.5"/>
			<point x="-63" y="794" type="curve" smooth="yes"/>
			<point x="-63" y="781.5"/>
			<point x="-73.5" y="771.5"/>
		</contour>
	</outline>
</glyph>
<glyph name="uni030B" format="2">
	<advance width="0"/>
	<unicode hex="030B"/>
	<anchor x="-130.5" y="876" name="top"/>
	<anchor x="-153.5" y="700" name="_top"/>
	<outline>
		<contour>
			<point x="-105.5" y="744" type="line"/>
			<point x="-92" y="744" type="line"/>
			<point x="-35" y="875.5" type="line"/>
			<point x="-96" y="875.5" type="line"/>
		</contour>
		<contour>
			<point x="-200.5" y="744" type="line"/>
			<point x="-187" y="744" type="line"/>
			<point x="-130" y="875.5" type="line"/>
			<point x="-191" y="875.5" type="line"/>
		</contour>
	</outline>
</glyph>
<glyph name="uni030C" format="2">
	<advance width="0"/>
	<unicode hex="030C"/>
	<guideline x="128" y="700" angle="90"/>
	<anchor x="-126.5" y="859" name="top"/>
	<anchor x="-126.5" y="700" name="_top"/>
	<outline>
		<contour>
			<point x="-126.5" y="744" type="line"/>
			<point x="-27.5" y="852.5" type="line"/>
			<point x="-44" y="862.5" type="line"/>
			<point x="-126.5" y="807" type="line"/>
			<point x="-193.5" y="862.5" type="line"/>
			<point x="-210" y="852.5" type="line"/>
		</contour>
	</outline>
</glyph>
<glyph name="uni0327" format="2">
	<advance width="0"/>
	<unicode hex="0327"/>
	<anchor x="-95" y="0" name="_bottom"/>
	<anchor x="-105" y="-181" name="bottom"/>
	<outline>
		<contour>
			<point x="-100.5" y="-185.5" type="curve" smooth="yes"/>
			<point x="-61.5" y="-185.5"/>
			<point x="-32" y="-157"/>
			<point x="-32" y="-113" type="curve" smooth="yes"/>
			<point x="-32" y="-83"/>
			<point x="-53" y="-53.5"/>
			<point x="-87.5" y="-53.5" type="curve" smooth="yes"/>
			<point x="-99" y="-53.5"/>
			<point x="-110" y="-59"/>
			<point x="-119" y="-73" type="curve"/>
			<point x="-117" y="-73" type="line"/>
			<point x="-77" y="5" type="line"/>
			<point x="-110" y="5" type="line"/>
			<point x="-140" y="-80" type="line"/>
			<point x="-122.5" y="-89" type="line"/>
			<point x="-117" y="-78"/>
			<point x="-110" y="-73.5"/>
			<point x="-103" y="-73.5" type="curve" smooth="yes"/>
			<point x="-85.5" y="-73.5"/>
			<point x="-75" y="-95"/>
			<point x="-75" y="-116.5" type="curve" smooth="yes"/>
			<point x="-75" y="-138"/>
			<point x="-85.5" y="-160"/>
			<point x="-109" y="-160" type="curve" smooth="yes"/>
			<point x="-123" y="-160"/>
			<point x="-134" y="-153"/>
			<point x="-139" y="-138" type="curve"/>
			<point x="-157" y="-144" type="line"/>
			<point x="-148.5" y="-168.5"/>
			<point x="-126" y="-185.5"/>
		</contour>
	</outline>
</glyph>
<glyph name="uni0328" format="2">
	<advance width="0"/>
	<unicode hex="0328"/>
	<anchor x="-93" y="0" name="_ogonek"/>
	<outline>
		<contour>
			<point x="-103.5" y="-177.5" type="curve" smooth="yes"/>
			<point x="-63.5" y="-177.5"/>
			<point x="-35" y="-133.5"/>
			<point x="-31" y="-67.5" type="curve"/>
			<point x="-49" y="-63" type="line"/>
			<point x="-54" y="-107"/>
			<point x="-72.5" y="-136.5"/>
			<point x="-96" y="-136.5" type="curve" smooth="yes"/>
			<point x="-114" y="-136.5"/>
			<point x="-123" y="-119"/>
			<point x="-123" y="-95" type="curve" smooth="yes"/>
			<point x="-123" y="-65.5"/>
			<point x="-109.5" y="-26"/>
			<point x="-83.5" y="0" type="curve"/>
			<point x="-83.5" y="5" type="line"/>
			<point x="-98.5" y="5" type="line"/>
			<point x="-98.5" y="0" type="line"/>
			<point x="-131.5" y="-26"/>
			<point x="-154" y="-72.5"/>
			<point x="-154" y="-117.5" type="curve" smooth="yes"/>
			<point x="-154" y="-153.5"/>
			<point x="-134" y="-177.5"/>
		</contour>
	</outline>
</glyph>
<glyph name="uni1E9E" format="2">
	<advance width="574"/>
	<unicode hex="1E9E"/>
	<unicode hex="00DF"/>
	<outline>
		<contour>
			<point x="392.5" y="-5" type="curve" smooth="yes"/>
			<point x="476.5" y="-5"/>
			<point x="538" y="51"/>
			<point x="538" y="134.5" type="curve" smooth="yes"/>
			<point x="538" y="180.5"/>
			<point x="515" y="223"/>
			<point x="445" y="272.5" type="curve" smooth="yes"/>
			<point x="413.5" y="294.5"/>
			<point x="405.5" y="309"/>
			<point x="405.5" y="344.5" type="curve" smooth="yes"/>
			<point x="405.5" y="402"/>
			<point x="462.5" y="500"/>
			<point x="462.5" y="578" type="curve" smooth="yes"/>
			<point x="462.5" y="656"/>
			<point x="401.5" y="708"/>
			<point x="310" y="708" type="curve" smooth="yes"/>
			<point x="169.5" y="708"/>
			<point x="76" y="636"/>
			<point x="76" y="548.5" type="curve"/>
			<point x="176" y="551.5" type="line"/>
			<point x="177" y="630.5"/>
			<point x="204.5" y="678"/>
			<point x="310" y="678" type="curve" smooth="yes"/>
			<point x="371" y="678"/>
			<point x="411.5" y="650.5"/>
			<point x="411.5" y="609" type="curve" smooth="yes"/>
			<point x="411.5" y="569.5"/>
			<point x="388.5" y="533.5"/>
			<point x="365" y="498" type="curve" smooth="yes"/>
			<point x="325.5" y="437.5"/>
			<point x="316.5" y="401"/>
			<point x="316.5" y="369.5" type="curve" smooth="yes"/>
			<point x="316.5" y="337"/>
			<point x="339.5" y="311"/>
			<point x="440" y="238.5" type="curve" smooth="yes"/>
			<point x="491.5" y="201"/>
			<point x="492" y="156"/>
			<point x="463.5" y="123.5" type="curve" smooth="yes"/>
			<point x="443" y="100"/>
			<point x="406.5" y="83"/>
			<point x="361" y="83" type="curve" smooth="yes"/>
			<point x="309.5" y="83"/>
			<point x="275.5" y="129"/>
			<point x="275.5" y="198.5" type="curve"/>
			<point x="256.5" y="198.5" type="line"/>
			<point x="257" y="76.5"/>
			<point x="312" y="-5"/>
		</contour>
		<contour>
			<point x="76" y="0" type="line"/>
			<point x="176" y="0" type="line"/>
			<point x="176" y="551.5" type="line"/>
			<point x="76" y="548.5" type="line"/>
		</contour>
		<component base="_part.longserif" xScale="-1" yScale="-1" xOffset="342" yOffset="700"/>
		<component base="_part.longserif" xScale="-1" yScale="-1" xOffset="282" yOffset="700"/>
	</outline>
</glyph>
<glyph name="emdash" format="2">
	<advance width="432"/>
	<unicode hex="2014"/>
	<outline>
		<contour>
			<point x="16" y="268" type="line"/>
			<point x="416" y="268" type="line"/>
			<point x="416" y="302" type="line"/>
			<point x="16" y="302" type="line"/>
		</contour>
	</outline>
</glyph>
<glyph name="quoteright" format="2">
	<advance width="181.5"/>
	<unicode hex="2019"/>
	<outline>
		<contour>
			<point x="37.5" y="494.5" type="curve"/>
			<point x="56.5" y="482.5" type="line"/>
			<point x="96" y="519.5"/>
			<point x="145.5" y="589.5"/>
			<point x="145.5" y="645" type="curve" smooth="yes"/>
			<point x="145.5" y="678"/>
			<point x="123.5" y="700"/>
			<point x="91" y="700" type="curve" smooth="yes"/>
			<point x="60.5" y="700"/>
			<point x="36" y="675.5"/>
			<point x="36" y="645.5" type="curve" smooth="yes"/>
			<point x="36" y="613.5"/>
			<point x="51.5" y="593"/>
			<point x="75.5" y="593" type="curve" smooth="yes"/>
			<point x="79" y="593"/>
			<point x="83.5" y="593.5"/>
			<point x="87.5" y="594.5" type="curve" smooth="yes"/>
			<point x="95" y="596.5"/>
			<point x="98" y="594.5"/>
			<point x="98" y="589.5" type="curve" smooth="yes"/>
			<point x="98" y="566"/>
			<point x="72.5" y="528.5"/>
		</contour>
	</outline>
</glyph>
<glyph name="dagger" format="2">
	<advance width="282"/>
	<unicode hex="2020"/>
	<outline>
		<contour>
			<point x="138.5" y="285" type="line"/>
			<point x="149" y="285" type="line"/>
			<point x="166" y="536.5" type="line"/>
			<point x="175" y="700" type="line"/>
			<point x="138.5" y="700" type="line"/>
		</contour>
		<contour>
			<point x="36" y="518" type="line"/>
			<point x="55" y="518" type="line"/>
			<point x="67" y="596.5" type="line"/>
			<point x="36" y="596.5" type="line"/>
		</contour>
		<contour>
			<point x="133" y="285" type="line"/>
			<point x="143.5" y="285" type="line"/>
			<point x="143.5" y="700" type="line"/>
			<point x="107" y="700" type="line"/>
			<point x="116" y="536.5" type="line"/>
		</contour>
		<contour>
			<point x="36" y="591" type="line"/>
			<point x="67" y="591" type="line"/>
			<point x="55" y="670" type="line"/>
			<point x="36" y="670" type="line"/>
		</contour>
		<contour>
			<point x="130" y="569" type="line"/>
			<point x="130" y="619" type="line"/>
			<point x="62" y="602" type="line"/>
			<point x="62" y="585.5" type="line"/>
		</contour>
		<contour>
			<point x="152" y="569" type="line"/>
			<point x="220" y="585.5" type="line"/>
			<point x="220" y="602" type="line"/>
			<point x="152" y="619" type="line"/>
		</contour>
		<contour>
			<point x="227" y="518" type="line"/>
			<point x="246" y="518" type="line"/>
			<point x="246" y="596.5" type="line"/>
			<point x="215" y="596.5" type="line"/>
		</contour>
		<contour>
			<point x="87" y="681" type="line"/>
			<point x="172.5" y="681" type="line"/>
			<point x="172.5" y="700" type="line"/>
			<point x="87" y="700" type="line"/>
		</contour>
		<contour>
			<point x="109.5" y="681" type="line"/>
			<point x="195" y="681" type="line"/>
			<point x="195" y="700" type="line"/>
			<point x="109.5" y="700" type="line"/>
		</contour>
		<contour>
			<point x="215" y="591" type="line"/>
			<point x="246" y="591" type="line"/>
			<point x="246" y="670" type="line"/>
			<point x="227" y="670" type="line"/>
		</contour>
	</outline>
</glyph>
<glyph name="daggerdbl" format="2">
	<advance width="280"/>
	<unicode hex="2021"/>
	<outline>
		<contour>
			<point x="106" y="283.5" type="line"/>
			<point x="174" y="283.5" type="line"/>
			<point x="154.5" y="491.5" type="line"/>
			<point x="174" y="700" type="line"/>
			<point x="106" y="700" type="line"/>
			<point x="125.5" y="491.5" type="line"/>
		</contour>
		<contour>
			<point x="35" y="324.5" type="line"/>
			<point x="54" y="324.5" type="line"/>
			<point x="66" y="403" type="line"/>
			<point x="35" y="403" type="line"/>
		</contour>
		<contour>
			<point x="86" y="283.5" type="line"/>
			<point x="171.5" y="283.5" type="line"/>
			<point x="171.5" y="302.5" type="line"/>
			<point x="86" y="302.5" type="line"/>
		</contour>
		<contour>
			<point x="108.5" y="283.5" type="line"/>
			<point x="194" y="283.5" type="line"/>
			<point x="194" y="302.5" type="line"/>
			<point x="108.5" y="302.5" type="line"/>
		</contour>
		<contour>
			<point x="35" y="398" type="line"/>
			<point x="66" y="398" type="line"/>
			<point x="54" y="476.5" type="line"/>
			<point x="35" y="476.5" type="line"/>
		</contour>
		<contour>
			<point x="129" y="375.5" type="line"/>
			<point x="129" y="425.5" type="line"/>
			<point x="61" y="408.5" type="line"/>
			<point x="61" y="392" type="line"/>
		</contour>
		<contour>
			<point x="151" y="375.5" type="line"/>
			<point x="219" y="392" type="line"/>
			<point x="219" y="408.5" type="line"/>
			<point x="151" y="425.5" type="line"/>
		</contour>
		<contour>
			<point x="226" y="324.5" type="line"/>
			<point x="245" y="324.5" type="line"/>
			<point x="245" y="403" type="line"/>
			<point x="214" y="403" type="line"/>
		</contour>
		<contour>
			<point x="35" y="507" type="line"/>
			<point x="54" y="507" type="line"/>
			<point x="66" y="585.5" type="line"/>
			<point x="35" y="585.5" type="line"/>
		</contour>
		<contour>
			<point x="214" y="398" type="line"/>
			<point x="245" y="398" type="line"/>
			<point x="245" y="476.5" type="line"/>
			<point x="226" y="476.5" type="line"/>
		</contour>
		<contour>
			<point x="35" y="580" type="line"/>
			<point x="66" y="580" type="line"/>
			<point x="54" y="659" type="line"/>
			<point x="35" y="659" type="line"/>
		</contour>
		<contour>
			<point x="129" y="558" type="line"/>
			<point x="129" y="608" type="line"/>
			<point x="61" y="591" type="line"/>
			<point x="61" y="574.5" type="line"/>
		</contour>
		<contour>
			<point x="151" y="558" type="line"/>
			<point x="219" y="574.5" type="line"/>
			<point x="219" y="591" type="line"/>
			<point x="151" y="608" type="line"/>
		</contour>
		<contour>
			<point x="226" y="507" type="line"/>
			<point x="245" y="507" type="line"/>
			<point x="245" y="585.5" type="line"/>
			<point x="214" y="585.5" type="line"/>
		</contour>
		<contour>
			<point x="86" y="681" type="line"/>
			<point x="171.5" y="681" type="line"/>
			<point x="171.5" y="700" type="line"/>
			<point x="86" y="700" type="line"/>
		</contour>
		<contour>
			<point x="108.5" y="681" type="line"/>
			<point x="194" y="681" type="line"/>
			<point x="194" y="700" type="line"/>
			<point x="108.5" y="700" type="line"/>
		</contour>
		<contour>
			<point x="214" y="580" type="line"/>
			<point x="245" y="580" type="line"/>
			<point x="245" y="659" type="line"/>
			<point x="226" y="659" type="line"/>
		</contour>
	</outline>
</glyph>
<glyph name="guilsinglleft" format="2">
	<advance width="252.5"/>
	<unicode hex="2039"/>
	<outline>
		<contour>
			<point x="87" y="319.5" type="line"/>
			<point x="141.5" y="319.5"/>
			<point x="193.5" y="356.5"/>
			<point x="217.5" y="412.5" type="curve"/>
			<point x="198.5" y="417.5" type="line"/>
			<point x="176" y="381"/>
			<point x="138.5" y="336"/>
			<point x="35" y="331.5" type="curve"/>
			<point x="35" y="320" type="line"/>
		</contour>
		<contour>
			<point x="198.5" y="228.5" type="curve"/>
			<point x="217.5" y="233.5" type="line"/>
			<point x="193.5" y="289.5"/>
			<point x="141.5" y="326.5"/>
			<point x="87" y="326.5" type="curve"/>
			<point x="35" y="326" type="line"/>
			<point x="35" y="314.5" type="line"/>
			<point x="137.5" y="305"/>
			<point x="175" y="265.5"/>
		</contour>
	</outline>
</glyph>
<glyph name="uni2055" format="2">
	<advance width="597"/>
	<unicode hex="2055"/>
	<outline>
		<contour>
			<point x="293" y="342" type="curve"/>
			<point x="298.5" y="366"/>
			<point x="317.5" y="400"/>
			<point x="368" y="413.5" type="curve" smooth="yes"/>
			<point x="397" y="420.5"/>
			<point x="428" y="417.5"/>
			<point x="455" y="444.5" type="curve" smooth="yes"/>
			<point x="476" y="465.5"/>
			<point x="488" y="500.5"/>
			<point x="485" y="535" type="curve"/>
			<point x="474" y="535.5" type="line"/>
			<point x="472.5" y="519"/>
			<point x="466" y="506.5"/>
			<point x="457" y="497.5" type="curve" smooth="yes"/>
			<point x="435" y="475.5"/>
			<point x="404" y="476.5"/>
			<point x="374" y="469.5" type="curve" smooth="yes"/>
			<point x="353.5" y="465"/>
			<point x="335.5" y="455"/>
			<point x="321.5" y="440.5" type="curve" smooth="yes"/>
			<point x="298" y="417"/>
			<point x="290.5" y="382.5"/>
		</contour>
		<contour>
			<point x="112" y="165" type="curve"/>
			<point x="123" y="164.5" type="line"/>
			<point x="124.5" y="181"/>
			<point x="131" y="193.5"/>
			<point x="140" y="202.5" type="curve" smooth="yes"/>
			<point x="162" y="224.5"/>
			<point x="193" y="223.5"/>
			<point x="223" y="230.5" type="curve" smooth="yes"/>
			<point x="243.5" y="235"/>
			<point x="261.5" y="245"/>
			<point x="275.5" y="259.5" type="curve" smooth="yes"/>
			<point x="299" y="283"/>
			<point x="306.5" y="317.5"/>
			<point x="304" y="358" type="curve"/>
			<point x="298.5" y="334"/>
			<point x="279.5" y="300"/>
			<point x="229" y="286.5" type="curve" smooth="yes"/>
			<point x="200" y="279.5"/>
			<point x="169" y="282.5"/>
			<point x="142" y="255.5" type="curve" smooth="yes"/>
			<point x="121" y="234.5"/>
			<point x="109" y="199.5"/>
		</contour>
		<contour>
			<point x="219.5" y="300.5" type="curve" smooth="yes"/>
			<point x="253" y="300.5"/>
			<point x="281" y="321"/>
			<point x="307.5" y="351.5" type="curve"/>
			<point x="287.5" y="338.5"/>
			<point x="249.5" y="328"/>
			<point x="204.5" y="354.5" type="curve" smooth="yes"/>
			<point x="179" y="370"/>
			<point x="159" y="394"/>
			<point x="121" y="394" type="curve" smooth="yes"/>
			<point x="91.5" y="394"/>
			<point x="58" y="378"/>
			<point x="36" y="351" type="curve"/>
			<point x="45" y="341.5" type="line"/>
			<point x="57.5" y="352"/>
			<point x="71" y="356"/>
			<point x="84" y="356" type="curve" smooth="yes"/>
			<point x="114.5" y="356"/>
			<point x="136" y="333.5"/>
			<point x="162" y="317" type="curve" smooth="yes"/>
			<point x="180" y="306"/>
			<point x="199.5" y="300.5"/>
		</contour>
		<contour>
			<point x="297.5" y="87.5" type="curve"/>
			<point x="307" y="96.5" type="line"/>
			<point x="296.5" y="109"/>
			<point x="292.5" y="122.5"/>
			<point x="292.5" y="135.5" type="curve" smooth="yes"/>
			<point x="292.5" y="166"/>
			<point x="315" y="187.5"/>
			<point x="331.5" y="214" type="curve" smooth="yes"/>
			<point x="342.5" y="231.5"/>
			<point x="348" y="251"/>
			<point x="348" y="271" type="curve" smooth="yes"/>
			<point x="348" y="304.5"/>
			<point x="327" y="332.5"/>
			<point x="297" y="359.5" type="curve"/>
			<point x="310" y="339.5"/>
			<point x="321" y="301"/>
			<point x="294" y="256" type="curve" smooth="yes"/>
			<point x="279" y="230.5"/>
			<point x="254.5" y="210.5"/>
			<point x="254.5" y="172.5" type="curve" smooth="yes"/>
			<point x="254.5" y="142.5"/>
			<point x="271" y="109.5"/>
		</contour>
		<contour>
			<point x="483.5" y="163.5" type="curve"/>
			<point x="484" y="174.5" type="line"/>
			<point x="467.5" y="176"/>
			<point x="455" y="182.5"/>
			<point x="446" y="191.5" type="curve" smooth="yes"/>
			<point x="424" y="213.5"/>
			<point x="425" y="244.5"/>
			<point x="418" y="274.5" type="curve" smooth="yes"/>
			<point x="413.5" y="295"/>
			<point x="403.5" y="313"/>
			<point x="389" y="327" type="curve" smooth="yes"/>
			<point x="365.5" y="350.5"/>
			<point x="331" y="358"/>
			<point x="290.5" y="355.5" type="curve"/>
			<point x="314" y="350.5"/>
			<point x="349" y="331"/>
			<point x="362" y="280.5" type="curve" smooth="yes"/>
			<point x="369" y="251.5"/>
			<point x="366" y="220.5"/>
			<point x="393" y="193.5" type="curve" smooth="yes"/>
			<point x="414" y="172.5"/>
			<point x="449" y="160.5"/>
		</contour>
		<contour>
			<point x="298" y="344.5" type="curve" smooth="yes"/>
			<point x="301" y="344.5"/>
			<point x="303" y="347"/>
			<point x="303" y="349.5" type="curve" smooth="yes"/>
			<point x="303" y="352.5"/>
			<point x="301" y="354.5"/>
			<point x="298" y="354.5" type="curve" smooth="yes"/>
			<point x="295.5" y="354.5"/>
			<point x="293" y="352.5"/>
			<point x="293" y="349.5" type="curve" smooth="yes"/>
			<point x="293" y="347"/>
			<point x="295.5" y="344.5"/>
		</contour>
		<contour>
			<point x="306.5" y="344.5" type="curve"/>
			<point x="283" y="349.5"/>
			<point x="248" y="369"/>
			<point x="235" y="419.5" type="curve" smooth="yes"/>
			<point x="228" y="448.5"/>
			<point x="231" y="479.5"/>
			<point x="204" y="506.5" type="curve" smooth="yes"/>
			<point x="183" y="527.5"/>
			<point x="148" y="539.5"/>
			<point x="113.5" y="536.5" type="curve"/>
			<point x="113" y="525.5" type="line"/>
			<point x="129.5" y="524"/>
			<point x="142" y="517.5"/>
			<point x="151" y="508.5" type="curve" smooth="yes"/>
			<point x="173" y="486.5"/>
			<point x="172" y="455.5"/>
			<point x="179" y="425.5" type="curve" smooth="yes"/>
			<point x="183.5" y="405"/>
			<point x="193.5" y="387"/>
			<point x="208" y="373" type="curve" smooth="yes"/>
			<point x="231.5" y="349.5"/>
			<point x="266" y="342"/>
		</contour>
		<contour>
			<point x="300" y="340.5" type="curve"/>
			<point x="287" y="360.5"/>
			<point x="276" y="399"/>
			<point x="303" y="444" type="curve" smooth="yes"/>
			<point x="318" y="469.5"/>
			<point x="342.5" y="489.5"/>
			<point x="342.5" y="527.5" type="curve" smooth="yes"/>
			<point x="342.5" y="557.5"/>
			<point x="326" y="590.5"/>
			<point x="299.5" y="612.5" type="curve"/>
			<point x="290" y="603.5" type="line"/>
			<point x="300.5" y="591"/>
			<point x="304.5" y="577.5"/>
			<point x="304.5" y="564.5" type="curve" smooth="yes"/>
			<point x="304.5" y="534"/>
			<point x="282" y="512.5"/>
			<point x="265.5" y="486" type="curve" smooth="yes"/>
			<point x="254.5" y="468.5"/>
			<point x="249" y="449"/>
			<point x="249" y="429" type="curve" smooth="yes"/>
			<point x="249" y="395.5"/>
			<point x="270" y="367.5"/>
		</contour>
		<contour>
			<point x="476" y="306" type="curve" smooth="yes"/>
			<point x="505.5" y="306"/>
			<point x="539" y="322"/>
			<point x="561" y="349" type="curve"/>
			<point x="552" y="358.5" type="line"/>
			<point x="539.5" y="348"/>
			<point x="526" y="344"/>
			<point x="513" y="344" type="curve" smooth="yes"/>
			<point x="482.5" y="344"/>
			<point x="461" y="366.5"/>
			<point x="435" y="383" type="curve" smooth="yes"/>
			<point x="417" y="394"/>
			<point x="397.5" y="399.5"/>
			<point x="377.5" y="399.5" type="curve" smooth="yes"/>
			<point x="344" y="399.5"/>
			<point x="316" y="379"/>
			<point x="289.5" y="348.5" type="curve"/>
			<point x="309.5" y="361.5"/>
			<point x="347.5" y="372"/>
			<point x="392.5" y="345.5" type="curve" smooth="yes"/>
			<point x="418" y="330"/>
			<point x="438" y="306"/>
		</contour>
	</outline>
</glyph>
<glyph name="Euro" format="2">
	<advance width="494"/>
	<unicode hex="20AC"/>
	<outline>
		<contour>
			<point x="56" y="350" type="curve"/>
			<point x="166" y="350" type="line"/>
			<point x="166" y="558"/>
			<point x="204" y="678"/>
			<point x="281" y="678" type="curve"/>
			<point x="281" y="708" type="line"/>
			<point x="123" y="708"/>
			<point x="56" y="526"/>
		</contour>
		<contour>
			<point x="281" y="-8" type="curve"/>
			<point x="281" y="22" type="line"/>
			<point x="204" y="22"/>
			<point x="166" y="142"/>
			<point x="166" y="350" type="curve"/>
			<point x="56" y="350" type="line"/>
			<point x="56" y="174"/>
			<point x="123" y="-8"/>
		</contour>
		<contour>
			<point x="11" y="290.5" type="line"/>
			<point x="341" y="290.5" type="line"/>
			<point x="341" y="320.5" type="line"/>
			<point x="11" y="320.5" type="line"/>
		</contour>
		<contour>
			<point x="11" y="367.5" type="line"/>
			<point x="341" y="367.5" type="line"/>
			<point x="341" y="397.5" type="line"/>
			<point x="11" y="397.5" type="line"/>
		</contour>
		<contour>
			<point x="281" y="22" type="curve"/>
			<point x="281" y="-8" type="line"/>
			<point x="320.5" y="-8"/>
			<point x="356.5" y="16.5"/>
			<point x="382.5" y="59" type="curve" smooth="yes"/>
			<point x="396.5" y="82.5"/>
			<point x="409.5" y="93.5"/>
			<point x="418.5" y="93.5" type="curve" smooth="yes"/>
			<point x="431" y="93.5"/>
			<point x="437" y="74"/>
			<point x="431" y="40" type="curve"/>
			<point x="450" y="40" type="line"/>
			<point x="454.5" y="60.5"/>
			<point x="457" y="85"/>
			<point x="457" y="112" type="curve" smooth="yes"/>
			<point x="457" y="177.5"/>
			<point x="443.5" y="258"/>
			<point x="418.5" y="332" type="curve"/>
			<point x="399.5" y="330" type="line"/>
			<point x="401.5" y="321"/>
			<point x="403" y="301"/>
			<point x="403" y="280" type="curve" smooth="yes"/>
			<point x="403" y="82"/>
			<point x="335" y="22"/>
		</contour>
		<contour>
			<point x="281" y="708" type="curve"/>
			<point x="281" y="678" type="line"/>
			<point x="335" y="678"/>
			<point x="403" y="643"/>
			<point x="403" y="445" type="curve" smooth="yes"/>
			<point x="403" y="424"/>
			<point x="401.5" y="404"/>
			<point x="399.5" y="395" type="curve"/>
			<point x="418.5" y="393" type="line"/>
			<point x="443.5" y="467"/>
			<point x="457" y="547.5"/>
			<point x="457" y="613" type="curve" smooth="yes"/>
			<point x="457" y="640"/>
			<point x="454.5" y="664.5"/>
			<point x="450" y="685" type="curve"/>
			<point x="431" y="685" type="line"/>
			<point x="436.5" y="659"/>
			<point x="427.5" y="646.5"/>
			<point x="414" y="646.5" type="curve" smooth="yes"/>
			<point x="405" y="646.5"/>
			<point x="392" y="652.5"/>
			<point x="379" y="664.5" type="curve" smooth="yes"/>
			<point x="350" y="691.5"/>
			<point x="315" y="708"/>
		</contour>
	</outline>
</glyph>
<glyph name="uni2698" format="2">
	<advance width="570"/>
	<unicode hex="2698"/>
	<outline>
		<contour>
			<point x="487.5" y="215.5" type="curve"/>
			<point x="488.5" y="232.5" type="line"/>
			<point x="456.5" y="235"/>
			<point x="436.5" y="260.5"/>
			<point x="415.5" y="301" type="curve" smooth="yes"/>
			<point x="390" y="347.5"/>
			<point x="363.5" y="399"/>
			<point x="318" y="394.5" type="curve" smooth="yes"/>
			<point x="303.5" y="393"/>
			<point x="292.5" y="389.5"/>
			<point x="285" y="379" type="curve"/>
			<point x="285" y="372" type="line"/>
			<point x="311" y="372"/>
			<point x="325.5" y="322.5"/>
			<point x="357.5" y="276" type="curve" smooth="yes"/>
			<point x="389.5" y="230"/>
			<point x="441.5" y="215.5"/>
		</contour>
		<contour>
			<point x="81.5" y="232.5" type="curve"/>
			<point x="83" y="215.5" type="line"/>
			<point x="128.5" y="215.5"/>
			<point x="180.5" y="230"/>
			<point x="212.5" y="276" type="curve" smooth="yes"/>
			<point x="245" y="322.5"/>
			<point x="259.5" y="372"/>
			<point x="285" y="372" type="curve"/>
			<point x="285" y="379" type="line"/>
			<point x="278" y="389.5"/>
			<point x="266.5" y="393"/>
			<point x="252" y="394.5" type="curve" smooth="yes"/>
			<point x="206.5" y="399"/>
			<point x="180" y="347.5"/>
			<point x="155" y="301" type="curve" smooth="yes"/>
			<point x="134" y="260.5"/>
			<point x="113.5" y="235"/>
		</contour>
		<contour>
			<point x="273" y="119" type="curve"/>
			<point x="285" y="119" type="line"/>
			<point x="285" y="356" type="line"/>
			<point x="278.5" y="355.5" type="line"/>
			<point x="267" y="322.5"/>
			<point x="246" y="298"/>
			<point x="246" y="255" type="curve" smooth="yes"/>
			<point x="246" y="230"/>
			<point x="254" y="174.5"/>
		</contour>
		<contour>
			<point x="285" y="119" type="line"/>
			<point x="297" y="119" type="line"/>
			<point x="316.5" y="174.5"/>
			<point x="324" y="230"/>
			<point x="324" y="255" type="curve" smooth="yes"/>
			<point x="324" y="298"/>
			<point x="303" y="322.5"/>
			<point x="291.5" y="355.5" type="curve"/>
			<point x="285" y="356" type="line"/>
		</contour>
		<contour>
			<point x="110" y="354" type="curve" smooth="yes"/>
			<point x="164" y="354"/>
			<point x="201.5" y="407.5"/>
			<point x="254.5" y="407.5" type="curve" smooth="yes"/>
			<point x="276" y="407.5"/>
			<point x="282" y="403"/>
			<point x="285" y="400.5" type="curve"/>
			<point x="285.5" y="409" type="line"/>
			<point x="272.5" y="430"/>
			<point x="245" y="446.5"/>
			<point x="223.5" y="446.5" type="curve" smooth="yes"/>
			<point x="151.5" y="446.5"/>
			<point x="113.5" y="384"/>
			<point x="59" y="384" type="curve" smooth="yes"/>
			<point x="51.5" y="384"/>
			<point x="46.5" y="386"/>
			<point x="39.5" y="389.5" type="curve"/>
			<point x="30.5" y="378.5" type="line"/>
			<point x="57.5" y="359"/>
			<point x="86.5" y="354"/>
		</contour>
		<contour>
			<point x="270" y="436.5" type="curve"/>
			<point x="274.5" y="441" type="line"/>
			<point x="267.5" y="462"/>
			<point x="255.5" y="478.5"/>
			<point x="242.5" y="488" type="curve" smooth="yes"/>
			<point x="231.5" y="496"/>
			<point x="219" y="499.5"/>
			<point x="206" y="499.5" type="curve" smooth="yes"/>
			<point x="188.5" y="499.5"/>
			<point x="170.5" y="494"/>
			<point x="152.5" y="485.5" type="curve" smooth="yes"/>
			<point x="129" y="475.5"/>
			<point x="110.5" y="468.5"/>
			<point x="94" y="474.5" type="curve"/>
			<point x="88" y="463" type="line"/>
			<point x="99.5" y="456"/>
			<point x="114" y="453"/>
			<point x="123.5" y="453" type="curve" smooth="yes"/>
			<point x="132" y="453"/>
			<point x="141.5" y="455.5"/>
			<point x="153.5" y="458.5" type="curve" smooth="yes"/>
			<point x="169.5" y="462"/>
			<point x="187.5" y="466.5"/>
			<point x="206" y="466.5" type="curve" smooth="yes"/>
			<point x="234" y="466.5"/>
			<point x="252" y="454.5"/>
		</contour>
		<contour>
			<point x="295.5" y="441" type="curve"/>
			<point x="300" y="436.5" type="line"/>
			<point x="318" y="454.5"/>
			<point x="336" y="466.5"/>
			<point x="364" y="466.5" type="curve" smooth="yes"/>
			<point x="382.5" y="466.5"/>
			<point x="400.5" y="462"/>
			<point x="416.5" y="458.5" type="curve" smooth="yes"/>
			<point x="428.5" y="455.5"/>
			<point x="438" y="453"/>
			<point x="446.5" y="453" type="curve" smooth="yes"/>
			<point x="456" y="453"/>
			<point x="470.5" y="456"/>
			<point x="482" y="463" type="curve"/>
			<point x="476" y="474.5" type="line"/>
			<point x="459.5" y="468.5"/>
			<point x="441" y="475.5"/>
			<point x="417.5" y="485.5" type="curve" smooth="yes"/>
			<point x="399.5" y="494"/>
			<point x="381.5" y="499.5"/>
			<point x="364" y="499.5" type="curve" smooth="yes"/>
			<point x="351" y="499.5"/>
			<point x="338.5" y="496"/>
			<point x="327.5" y="488" type="curve" smooth="yes"/>
			<point x="314.5" y="478.5"/>
			<point x="302.5" y="462"/>
		</contour>
		<contour>
			<point x="278.5" y="451.5" type="curve"/>
			<point x="285" y="451.5" type="line"/>
			<point x="285" y="569.5" type="line"/>
			<point x="278.5" y="569.5" type="line"/>
			<point x="267" y="562.5"/>
			<point x="259.5" y="545"/>
			<point x="259.5" y="526.5" type="curve" smooth="yes"/>
			<point x="259.5" y="507"/>
			<point x="267" y="477"/>
		</contour>
		<contour>
			<point x="460.5" y="354" type="curve" smooth="yes"/>
			<point x="483.5" y="354"/>
			<point x="512.5" y="359"/>
			<point x="539.5" y="378.5" type="curve"/>
			<point x="530.5" y="389.5" type="line"/>
			<point x="524" y="386"/>
			<point x="518.5" y="384"/>
			<point x="511.5" y="384" type="curve" smooth="yes"/>
			<point x="456.5" y="384"/>
			<point x="419" y="446.5"/>
			<point x="347" y="446.5" type="curve" smooth="yes"/>
			<point x="325.5" y="446.5"/>
			<point x="297.5" y="430"/>
			<point x="284.5" y="409" type="curve"/>
			<point x="285" y="400.5" type="line"/>
			<point x="288" y="403"/>
			<point x="294" y="407.5"/>
			<point x="315.5" y="407.5" type="curve" smooth="yes"/>
			<point x="368.5" y="407.5"/>
			<point x="406.5" y="354"/>
		</contour>
		<contour>
			<point x="285" y="451.5" type="line"/>
			<point x="291.5" y="451.5" type="line"/>
			<point x="303" y="477"/>
			<point x="311" y="507"/>
			<point x="311" y="526.5" type="curve" smooth="yes"/>
			<point x="311" y="545"/>
			<point x="303" y="562.5"/>
			<point x="291.5" y="569.5" type="curve"/>
			<point x="285" y="569.5" type="line"/>
		</contour>
	</outline>
</glyph>
<glyph name="uniA746" format="2">
	<advance width="566"/>
	<unicode hex="A746"/>
	<unicode hex="A747"/>
	<anchor x="359" y="350" name="center"/>
	<anchor x="359" y="700" name="top"/>
	<anchor x="545" y="700" name="topright"/>
	<anchor x="359" y="0" name="bottom"/>
	<outline>
		<contour>
			<point x="247" y="0" type="line"/>
			<point x="347" y="0" type="line"/>
			<point x="347" y="461" type="line"/>
			<point x="197" y="461" type="line"/>
			<point x="197" y="700" type="line"/>
			<point x="97" y="700" type="line"/>
			<point x="97" y="431" type="line"/>
			<point x="247" y="431" type="line"/>
		</contour>
		<contour>
			<point x="187" y="0" type="line"/>
			<point x="407" y="0" type="line"/>
			<point x="407" y="30" type="line"/>
			<point x="187" y="30" type="line"/>
		</contour>
		<contour>
			<point x="397" y="0" type="line"/>
			<point x="483" y="0" type="line"/>
			<point x="483" y="30" type="line"/>
			<point x="397" y="30" type="line"/>
		</contour>
		<contour>
			<point x="457" y="0" type="line"/>
			<point x="518" y="0" type="line"/>
			<point x="540" y="233" type="line"/>
			<point x="521" y="233" type="line"/>
		</contour>
		<contour>
			<point x="37" y="670" type="line"/>
			<point x="257" y="670" type="line"/>
			<point x="257" y="700" type="line"/>
			<point x="37" y="700" type="line"/>
		</contour>
	</outline>
</glyph>
<glyph name="u1F4AE" format="2">
	<advance width="680"/>
	<unicode hex="1F4AE"/>
	<outline>
		<contour>
			<point x="340" y="80" type="curve" smooth="yes"/>
			<point x="340" y="40" type="line"/>
			<point x="349.5" y="40" type="line"/>
			<point x="349.5" y="116"/>
			<point x="359.5" y="107"/>
			<point x="476.5" y="138" type="curve" smooth="yes"/>
			<point x="588.5" y="166.5"/>
			<point x="633" y="197"/>
			<point x="633" y="266" type="curve" smooth="yes"/>
			<point x="633" y="295.5"/>
			<point x="625.5" y="348.5"/>
			<point x="625.5" y="385" type="curve" smooth="yes"/>
			<point x="625.5" y="403.5"/>
			<point x="627.5" y="425"/>
			<point x="633" y="456.5" type="curve"/>
			<point x="617" y="456.5" type="line"/>
			<point x="610.5" y="423"/>
			<point x="609" y="407.5"/>
			<point x="609" y="385" type="curve" smooth="yes"/>
			<point x="609" y="348.5"/>
			<point x="614.5" y="321.5"/>
			<point x="614.5" y="283" type="curve" smooth="yes"/>
			<point x="614.5" y="240.5"/>
			<point x="553.5" y="222"/>
			<point x="439.5" y="176" type="curve" smooth="yes"/>
			<point x="380" y="151.5"/>
			<point x="340" y="113.5"/>
		</contour>
		<contour>
			<point x="330.5" y="40" type="curve"/>
			<point x="340" y="40" type="line"/>
			<point x="340" y="80" type="line" smooth="yes"/>
			<point x="340" y="113.5"/>
			<point x="300" y="152"/>
			<point x="240.5" y="176" type="curve" smooth="yes"/>
			<point x="126.5" y="222"/>
			<point x="65.5" y="240.5"/>
			<point x="65.5" y="283" type="curve" smooth="yes"/>
			<point x="65.5" y="321.5"/>
			<point x="71" y="348.5"/>
			<point x="71" y="385" type="curve" smooth="yes"/>
			<point x="71" y="407.5"/>
			<point x="69.5" y="423"/>
			<point x="63" y="456.5" type="curve"/>
			<point x="47" y="456.5" type="line"/>
			<point x="52.5" y="425"/>
			<point x="54.5" y="403.5"/>
			<point x="54.5" y="385" type="curve" smooth="yes"/>
			<point x="54.5" y="348.5"/>
			<point x="47" y="295.5"/>
			<point x="47" y="266" type="curve" smooth="yes"/>
			<point x="47" y="197"/>
			<point x="91.5" y="166.5"/>
			<point x="203.5" y="138" type="curve" smooth="yes"/>
			<point x="320.5" y="108"/>
			<point x="330.5" y="116"/>
		</contour>
		<contour>
			<point x="330.5" y="102" type="curve"/>
			<point x="340" y="102" type="line"/>
			<point x="340" y="198"/>
			<point x="114" y="316"/>
			<point x="114" y="379" type="curve" smooth="yes"/>
			<point x="114" y="402"/>
			<point x="133.5" y="437"/>
			<point x="151" y="469" type="curve" smooth="yes"/>
			<point x="169.5" y="504"/>
			<point x="181.5" y="547.5"/>
			<point x="181.5" y="578" type="curve"/>
			<point x="165" y="578" type="line"/>
			<point x="165" y="546.5"/>
			<point x="152" y="502.5"/>
			<point x="133.5" y="469.5" type="curve" smooth="yes"/>
			<point x="112.5" y="430.5"/>
			<point x="89" y="384.5"/>
			<point x="88.5" y="349" type="curve" smooth="yes"/>
			<point x="89" y="296"/>
			<point x="116" y="262"/>
			<point x="155" y="238" type="curve" smooth="yes"/>
			<point x="216" y="201"/>
			<point x="330.5" y="137.5"/>
		</contour>
		<contour>
			<point x="330.5" y="121" type="curve"/>
			<point x="340" y="121" type="line"/>
			<point x="340" y="281.5"/>
			<point x="211.5" y="369"/>
			<point x="211.5" y="433.5" type="curve" smooth="yes"/>
			<point x="211.5" y="472"/>
			<point x="261" y="559"/>
			<point x="261" y="637" type="curve"/>
			<point x="244.5" y="637" type="line"/>
			<point x="244.5" y="543"/>
			<point x="171.5" y="472.5"/>
			<point x="171.5" y="393.5" type="curve" smooth="yes"/>
			<point x="171.5" y="277.5"/>
			<point x="330.5" y="198.5"/>
		</contour>
		<contour>
			<point x="330.5" y="199" type="curve" smooth="yes"/>
			<point x="330.5" y="25" type="line"/>
			<point x="340" y="25" type="line"/>
			<point x="340" y="663" type="line"/>
			<point x="330.5" y="663" type="line"/>
			<point x="328.5" y="563"/>
			<point x="281.5" y="527.5"/>
			<point x="281.5" y="442" type="curve" smooth="yes"/>
			<point x="281.5" y="346"/>
			<point x="330.5" y="292.5"/>
		</contour>
		<contour>
			<point x="340" y="25" type="line"/>
			<point x="349.5" y="25" type="line"/>
			<point x="349.5" y="199" type="line" smooth="yes"/>
			<point x="349.5" y="292.5"/>
			<point x="398.5" y="346"/>
			<point x="398.5" y="442" type="curve" smooth="yes"/>
			<point x="398.5" y="527.5"/>
			<point x="351.5" y="563"/>
			<point x="349.5" y="663" type="curve"/>
			<point x="340" y="663" type="line"/>
		</contour>
		<contour>
			<point x="340" y="102" type="curve"/>
			<point x="349.5" y="102" type="line"/>
			<point x="349.5" y="137.5"/>
			<point x="464" y="201"/>
			<point x="525" y="238" type="curve" smooth="yes"/>
			<point x="564" y="262"/>
			<point x="591" y="296"/>
			<point x="591" y="349" type="curve" smooth="yes"/>
			<point x="591" y="384.5"/>
			<point x="567.5" y="430.5"/>
			<point x="546" y="469" type="curve" smooth="yes"/>
			<point x="528" y="503"/>
			<point x="515" y="546.5"/>
			<point x="515" y="578" type="curve"/>
			<point x="498.5" y="578" type="line"/>
			<point x="498.5" y="547"/>
			<point x="510.5" y="504"/>
			<point x="529" y="469" type="curve" smooth="yes"/>
			<point x="546.5" y="437"/>
			<point x="566" y="402"/>
			<point x="566" y="379" type="curve" smooth="yes"/>
			<point x="566" y="316"/>
			<point x="340" y="198"/>
		</contour>
		<contour>
			<point x="340" y="121" type="curve"/>
			<point x="349.5" y="121" type="line"/>
			<point x="349.5" y="198.5"/>
			<point x="508.5" y="277.5"/>
			<point x="508.5" y="393.5" type="curve" smooth="yes"/>
			<point x="508.5" y="472.5"/>
			<point x="435.5" y="543"/>
			<point x="435.5" y="637" type="curve"/>
			<point x="419" y="637" type="line"/>
			<point x="419" y="559"/>
			<point x="468.5" y="472"/>
			<point x="468.5" y="433.5" type="curve" smooth="yes"/>
			<point x="468.5" y="369"/>
			<point x="340" y="281.5"/>
		</contour>
	</outline>
</glyph>
<glyph name="A.ss01" format="2">
	<advance width="527"/>
	<anchor x="460" y="0" name="ogonek"/>
	<anchor x="264" y="0" name="bottom"/>
	<anchor x="264" y="700" name="top"/>
	<outline>
		<contour>
			<point x="379" y="0" type="line"/>
			<point x="483" y="0" type="line"/>
			<point x="321" y="700" type="line"/>
			<point x="229.5" y="700" type="line"/>
			<point x="225" y="677" type="line"/>
		</contour>
		<contour>
			<point x="237" y="149" type="curve" smooth="yes"/>
			<point x="270.5" y="149"/>
			<point x="308.5" y="181.5"/>
			<point x="332" y="230" type="curve"/>
			<point x="323" y="250" type="line"/>
			<point x="323" y="240.5"/>
			<point x="315.5" y="234"/>
			<point x="304" y="234" type="curve" smooth="yes"/>
			<point x="275" y="234"/>
			<point x="237" y="279"/>
			<point x="199" y="279" type="curve" smooth="yes"/>
			<point x="164.5" y="279"/>
			<point x="126" y="247"/>
			<point x="103" y="199" type="curve"/>
			<point x="108" y="178" type="line"/>
			<point x="111" y="188"/>
			<point x="116.5" y="194"/>
			<point x="127.5" y="194" type="curve" smooth="yes"/>
			<point x="156.5" y="194"/>
			<point x="199" y="149"/>
		</contour>
		<contour>
			<point x="217" y="700" type="line"/>
			<point x="28.5" y="0" type="line"/>
			<point x="60.5" y="0" type="line"/>
			<point x="249" y="700" type="line"/>
		</contour>
		<component base="_part.shortserif" xOffset="89"/>
		<component base="_part.longserif" xOffset="275" yOffset="-670"/>
		<component base="_part.shortserif" xOffset="-60" yOffset="-670"/>
	</outline>
</glyph>
<glyph name="A.ss02" format="2">
	<advance width="461"/>
	<anchor x="394" y="0" name="ogonek"/>
	<anchor x="223" y="0" name="bottom"/>
	<anchor x="227" y="703" name="top"/>
	<outline>
		<contour>
			<point x="176.5" y="39" type="curve"/>
			<point x="189" y="39" type="line"/>
			<point x="189.5" y="122" type="line"/>
			<point x="189.5" y="160.5"/>
			<point x="129.5" y="203"/>
			<point x="96.5" y="217.5" type="curve"/>
			<point x="96.5" y="198.5" type="line"/>
			<point x="134" y="175"/>
			<point x="163.5" y="134.5"/>
		</contour>
		<contour>
			<point x="182.5" y="122" type="curve"/>
			<point x="183" y="39" type="line"/>
			<point x="195.5" y="39" type="line"/>
			<point x="208.5" y="134.5"/>
			<point x="238" y="175"/>
			<point x="275.5" y="198.5" type="curve"/>
			<point x="275.5" y="217.5" type="line"/>
			<point x="244.5" y="204"/>
			<point x="182.5" y="160.5"/>
		</contour>
		<component base="V" xScale="-1" yScale="-1" xOffset="461" yOffset="700"/>
	</outline>
</glyph>
<glyph name="A.ss03" format="2">
	<advance width="514"/>
	<anchor x="419" y="0" name="ogonek"/>
	<anchor x="280" y="0" name="bottom"/>
	<anchor x="280" y="700" name="top"/>
	<outline>
		<contour>
			<point x="346.5" y="105" type="curve"/>
			<point x="361" y="135" type="line"/>
			<point x="308" y="189.5"/>
			<point x="212" y="220.5"/>
			<point x="125" y="220.5" type="curve" smooth="yes"/>
			<point x="30" y="220.5"/>
			<point x="-109.5" y="159.5"/>
			<point x="-180.5" y="159.5" type="curve" smooth="yes"/>
			<point x="-205" y="159.5"/>
			<point x="-240" y="172"/>
			<point x="-268" y="191" type="curve"/>
			<point x="-278" y="174.5" type="line"/>
			<point x="-232" y="138"/>
			<point x="-138.5" y="112.5"/>
			<point x="-51" y="112.5" type="curve" smooth="yes"/>
			<point x="53.5" y="112.5"/>
			<point x="173" y="144.5"/>
			<point x="249.5" y="144.5" type="curve" smooth="yes"/>
			<point x="305.5" y="144.5"/>
			<point x="340.5" y="128"/>
		</contour>
		<component base="V" xScale="-1" yScale="-1" xOffset="514" yOffset="700"/>
	</outline>
</glyph>
<glyph name="A.ss04" format="2">
	<advance width="461"/>
	<anchor x="394" y="0" name="ogonek"/>
	<anchor x="223" y="0" name="bottom"/>
	<anchor x="219" y="703" name="top"/>
	<outline>
		<contour>
			<point x="99.5" y="224" type="line"/>
			<point x="299.5" y="224" type="line"/>
			<point x="299.5" y="314" type="line"/>
			<point x="123.5" y="314" type="line"/>
		</contour>
		<component base="V" xScale="-1" yScale="-1" xOffset="461" yOffset="700"/>
	</outline>
</glyph>
<glyph name="A.ss05" format="2">
	<advance width="522"/>
	<anchor x="460" y="0" name="ogonek"/>
	<anchor x="264" y="0" name="bottom"/>
	<anchor x="264" y="700" name="top"/>
	<outline>
		<contour>
			<point x="379" y="0" type="line"/>
			<point x="483" y="0" type="line"/>
			<point x="321" y="700" type="line"/>
			<point x="229.5" y="700" type="line"/>
			<point x="225" y="677" type="line"/>
		</contour>
		<contour>
			<point x="37" y="0" type="line"/>
			<point x="68" y="0" type="line"/>
			<point x="256" y="700" type="line"/>
			<point x="225" y="700" type="line"/>
		</contour>
		<contour>
			<point x="241.5" y="100" type="curve" smooth="yes"/>
			<point x="296" y="100"/>
			<point x="345" y="120.5"/>
			<point x="363" y="152" type="curve"/>
			<point x="348" y="164.5" type="line"/>
			<point x="340" y="159"/>
			<point x="324.5" y="155.5"/>
			<point x="310" y="155.5" type="curve" smooth="yes"/>
			<point x="211" y="155"/>
			<point x="147" y="319"/>
			<point x="28.5" y="319" type="curve" smooth="yes"/>
			<point x="-10" y="319"/>
			<point x="-59" y="302"/>
			<point x="-95" y="276.5" type="curve"/>
			<point x="-84" y="260.5" type="line"/>
			<point x="-71.5" y="268.5"/>
			<point x="-59.5" y="272"/>
			<point x="-46.5" y="272" type="curve" smooth="yes"/>
			<point x="47" y="272"/>
			<point x="111" y="100"/>
		</contour>
		<component base="_part.shortserif" xOffset="89"/>
		<component base="_part.longserif" xOffset="270" yOffset="-670"/>
		<component base="_part.shortserif" xOffset="-54" yOffset="-671"/>
	</outline>
</glyph>
<glyph name="A.ss06" format="2">
	<advance width="477"/>
	<anchor x="410" y="0" name="ogonek"/>
	<anchor x="239" y="0" name="bottom"/>
	<anchor x="235" y="703" name="top"/>
	<outline>
		<contour>
			<point x="116" y="188" type="line"/>
			<point x="318" y="188" type="line"/>
			<point x="318" y="218" type="line"/>
			<point x="116" y="218" type="line"/>
		</contour>
		<component base="V" xScale="-1" yScale="-1" xOffset="477" yOffset="700"/>
	</outline>
</glyph>
<glyph name="AE.ss04" format="2">
	<advance width="618.5"/>
	<outline>
		<contour>
			<point x="34.5" y="0" type="line"/>
			<point x="65" y="0" type="line"/>
			<point x="320" y="700" type="line"/>
			<point x="289.5" y="700" type="line"/>
		</contour>
		<contour>
			<point x="238.5" y="0" type="line"/>
			<point x="458.5" y="0" type="line"/>
			<point x="458.5" y="30" type="line"/>
			<point x="238.5" y="30" type="line"/>
		</contour>
		<contour>
			<point x="378.5" y="0" type="line"/>
			<point x="514.5" y="0" type="line"/>
			<point x="514.5" y="30" type="line"/>
			<point x="378.5" y="30" type="line"/>
		</contour>
		<contour>
			<point x="-14" y="0" type="line"/>
			<point x="114" y="0" type="line"/>
			<point x="114" y="30" type="line"/>
			<point x="-14" y="30" type="line"/>
		</contour>
		<contour>
			<point x="298.5" y="0" type="line"/>
			<point x="398.5" y="0" type="line"/>
			<point x="398.5" y="700" type="line"/>
			<point x="298.5" y="700" type="line"/>
		</contour>
		<contour>
			<point x="542.5" y="532" type="line"/>
			<point x="561.5" y="532" type="line"/>
			<point x="536.5" y="700" type="line"/>
			<point x="485.5" y="700" type="line"/>
		</contour>
		<contour>
			<point x="455.5" y="413" type="line"/>
			<point x="498" y="413" type="line"/>
			<point x="498" y="531" type="line"/>
			<point x="479" y="531" type="line"/>
		</contour>
		<contour>
			<point x="479" y="303" type="line"/>
			<point x="498" y="303" type="line"/>
			<point x="498" y="421" type="line"/>
			<point x="455.5" y="421" type="line"/>
		</contour>
		<contour>
			<point x="388" y="402" type="line"/>
			<point x="498" y="402" type="line"/>
			<point x="498" y="432" type="line"/>
			<point x="388" y="432" type="line"/>
		</contour>
		<contour>
			<point x="209" y="670" type="line"/>
			<point x="369" y="670" type="line"/>
			<point x="369" y="700" type="line"/>
			<point x="209" y="700" type="line"/>
		</contour>
		<contour>
			<point x="480.5" y="0" type="line"/>
			<point x="531.5" y="0" type="line"/>
			<point x="586.5" y="168" type="line"/>
			<point x="567.5" y="168" type="line"/>
		</contour>
		<contour>
			<point x="398.5" y="670" type="line"/>
			<point x="524.5" y="670" type="line"/>
			<point x="524.5" y="700" type="line"/>
			<point x="398.5" y="700" type="line"/>
		</contour>
		<contour>
			<point x="141" y="279" type="line"/>
			<point x="341" y="279" type="line"/>
			<point x="341" y="369" type="line"/>
			<point x="174" y="369" type="line"/>
		</contour>
	</outline>
</glyph>
<glyph name="A_A.dlig" format="2">
	<advance width="822"/>
	<outline>
		<contour>
			<point x="73.5" y="88" type="line"/>
			<point x="318" y="88" type="line"/>
			<point x="318" y="118" type="line"/>
			<point x="73.5" y="118" type="line"/>
		</contour>
		<contour>
			<point x="228" y="737" type="line"/>
			<point x="176" y="544" type="line"/>
			<point x="322" y="0" type="line"/>
			<point x="426" y="0" type="line"/>
		</contour>
		<contour>
			<point x="228" y="737" type="line"/>
			<point x="30" y="0" type="line"/>
			<point x="61" y="0" type="line"/>
			<point x="241.5" y="672.5" type="line"/>
		</contour>
		<contour>
			<point x="475" y="30" type="line"/>
			<point x="255" y="30" type="line"/>
			<point x="255" y="0" type="line"/>
			<point x="475" y="0" type="line"/>
		</contour>
		<contour>
			<point x="114" y="30" type="line"/>
			<point x="-14" y="30" type="line"/>
			<point x="-14" y="0" type="line"/>
			<point x="114" y="0" type="line"/>
		</contour>
		<contour>
			<point x="434.5" y="88" type="line"/>
			<point x="679" y="88" type="line"/>
			<point x="679" y="118" type="line"/>
			<point x="434.5" y="118" type="line"/>
		</contour>
		<contour>
			<point x="589" y="737" type="line"/>
			<point x="537" y="544" type="line"/>
			<point x="683" y="0" type="line"/>
			<point x="787" y="0" type="line"/>
		</contour>
		<contour>
			<point x="589" y="737" type="line"/>
			<point x="391" y="0" type="line"/>
			<point x="422" y="0" type="line"/>
			<point x="602.5" y="672.5" type="line"/>
		</contour>
		<contour>
			<point x="836" y="30" type="line"/>
			<point x="616" y="30" type="line"/>
			<point x="616" y="0" type="line"/>
			<point x="836" y="0" type="line"/>
		</contour>
	</outline>
</glyph>
<glyph name="B.ss01" format="2">
	<advance width="510"/>
	<anchor x="248" y="700" name="top"/>
	<anchor x="248" y="0" name="bottom"/>
	<outline>
		<contour>
			<point x="193" y="407" type="curve"/>
			<point x="193" y="393" type="line"/>
			<point x="337" y="393"/>
			<point x="433" y="424.5"/>
			<point x="433" y="551.5" type="curve" smooth="yes"/>
			<point x="433" y="646.5"/>
			<point x="368" y="700"/>
			<point x="252" y="700" type="curve" smooth="yes"/>
			<point x="193" y="700" type="line"/>
			<point x="193" y="670" type="line"/>
			<point x="215" y="670" type="line" smooth="yes"/>
			<point x="289" y="670"/>
			<point x="338" y="643.5"/>
			<point x="338" y="538" type="curve" smooth="yes"/>
			<point x="338" y="459.5"/>
			<point x="309" y="407"/>
		</contour>
		<contour>
			<point x="183" y="0" type="line"/>
			<point x="242" y="0" type="line" smooth="yes"/>
			<point x="391" y="0"/>
			<point x="474" y="39"/>
			<point x="474" y="195" type="curve"/>
			<point x="379" y="195" type="line"/>
			<point x="379" y="83"/>
			<point x="349" y="30"/>
			<point x="205" y="30" type="curve" smooth="yes"/>
			<point x="183" y="30" type="line"/>
		</contour>
		<contour>
			<point x="379" y="195" type="curve"/>
			<point x="474" y="195" type="line"/>
			<point x="474" y="315"/>
			<point x="432.5" y="395"/>
			<point x="242" y="395" type="curve" smooth="yes"/>
			<point x="183" y="395" type="line"/>
			<point x="183" y="376" type="line"/>
			<point x="205" y="376" type="line" smooth="yes"/>
			<point x="319.5" y="376"/>
			<point x="379" y="348.5"/>
		</contour>
		<component base="_part.stemserifs" xOffset="-10"/>
	</outline>
</glyph>
<glyph name="C.ss04" format="2">
	<advance width="449"/>
	<anchor x="348" y="350" name="center"/>
	<anchor x="348" y="0" name="bottom"/>
	<anchor x="348" y="700" name="top"/>
	<outline>
		<contour>
			<point x="385" y="0" type="curve"/>
			<point x="385" y="30" type="line"/>
			<point x="242" y="30"/>
			<point x="147" y="140"/>
			<point x="147" y="350" type="curve"/>
			<point x="37" y="350" type="line"/>
			<point x="37" y="135"/>
			<point x="176" y="0"/>
		</contour>
		<contour>
			<point x="37" y="350" type="curve"/>
			<point x="147" y="350" type="line"/>
			<point x="147" y="560"/>
			<point x="242" y="678"/>
			<point x="385" y="678" type="curve"/>
			<point x="385" y="708" type="line"/>
			<point x="176" y="708"/>
			<point x="37" y="565"/>
		</contour>
		<contour>
			<point x="382" y="168" type="line"/>
			<point x="372.5" y="6" type="line"/>
			<point x="385" y="0" type="line"/>
			<point x="423" y="0" type="line"/>
			<point x="401" y="168" type="line"/>
		</contour>
		<contour>
			<point x="382" y="540" type="line"/>
			<point x="401" y="540" type="line"/>
			<point x="423" y="708" type="line"/>
			<point x="385" y="708" type="line"/>
			<point x="372.5" y="701.5" type="line"/>
		</contour>
	</outline>
</glyph>
<glyph name="C.ss06" format="2">
	<advance width="464"/>
	<anchor x="272" y="708" name="top"/>
	<anchor x="272" y="-10" name="bottom"/>
	<outline>
		<contour>
			<point x="37" y="350" type="curve"/>
			<point x="147" y="350" type="line"/>
			<point x="147" y="558"/>
			<point x="195" y="678"/>
			<point x="272" y="678" type="curve"/>
			<point x="272" y="708" type="line"/>
			<point x="114" y="708"/>
			<point x="37" y="526"/>
		</contour>
		<contour>
			<point x="272" y="-8" type="curve"/>
			<point x="272" y="22" type="line"/>
			<point x="195" y="22"/>
			<point x="147" y="142"/>
			<point x="147" y="350" type="curve"/>
			<point x="37" y="350" type="line"/>
			<point x="37" y="174"/>
			<point x="114" y="-8"/>
		</contour>
		<contour>
			<point x="272" y="22" type="curve"/>
			<point x="272" y="-8" type="line"/>
			<point x="325" y="-8"/>
			<point x="333.5" y="32"/>
			<point x="387.5" y="32" type="curve" smooth="yes"/>
			<point x="401.5" y="32"/>
			<point x="415.5" y="26"/>
			<point x="420.5" y="18" type="curve"/>
			<point x="439.5" y="20" type="line"/>
			<point x="390.5" y="233" type="line"/>
			<point x="371.5" y="231" type="line"/>
			<point x="386.5" y="120"/>
			<point x="353" y="22"/>
		</contour>
		<contour>
			<point x="363" y="510" type="curve" smooth="yes"/>
			<point x="360" y="477" type="line"/>
			<point x="377" y="477" type="line"/>
			<point x="444" y="703" type="line"/>
			<point x="425" y="705" type="line"/>
			<point x="415" y="679"/>
			<point x="406" y="667"/>
			<point x="390" y="667" type="curve" smooth="yes"/>
			<point x="367" y="667"/>
			<point x="328" y="708"/>
			<point x="272" y="708" type="curve"/>
			<point x="272" y="678" type="line"/>
			<point x="357" y="678"/>
			<point x="372" y="609"/>
		</contour>
	</outline>
</glyph>
<glyph name="Ccedilla.ss01" format="2">
	<advance width="437"/>
	<outline>
		<contour>
			<point x="229" y="-217" type="curve"/>
			<point x="247" y="-230" type="line"/>
			<point x="274.5" y="-205.5"/>
			<point x="292.5" y="-169.5"/>
			<point x="292.5" y="-141.5" type="curve" smooth="yes"/>
			<point x="292.5" y="-123"/>
			<point x="286" y="-104"/>
			<point x="273" y="-82.5" type="curve" smooth="yes"/>
			<point x="259" y="-59"/>
			<point x="250" y="-46.5"/>
			<point x="250" y="-32.5" type="curve" smooth="yes"/>
			<point x="250" y="-24.5"/>
			<point x="252" y="-16"/>
			<point x="260" y="-5" type="curve"/>
			<point x="240.5" y="5.5" type="line"/>
			<point x="217.5" y="-23.5"/>
			<point x="201.5" y="-57.5"/>
			<point x="201.5" y="-75.5" type="curve" smooth="yes"/>
			<point x="201.5" y="-94"/>
			<point x="212" y="-112"/>
			<point x="232" y="-136" type="curve" smooth="yes"/>
			<point x="245.5" y="-152"/>
			<point x="252.5" y="-164"/>
			<point x="252.5" y="-176" type="curve" smooth="yes"/>
			<point x="252.5" y="-189"/>
			<point x="244.5" y="-201"/>
		</contour>
		<component base="C"/>
	</outline>
</glyph>
<glyph name="E.ss01" format="2">
	<advance width="495"/>
	<anchor x="306" y="0" name="ogonek"/>
	<anchor x="235" y="700" name="top"/>
	<anchor x="22" y="700" name="topleft"/>
	<anchor x="235" y="0" name="bottom"/>
	<outline>
		<contour>
			<point x="329" y="0" type="line"/>
			<point x="401" y="1" type="line"/>
			<point x="463" y="263" type="line"/>
			<point x="453" y="263" type="line"/>
		</contour>
		<contour>
			<point x="227" y="0" type="line"/>
			<point x="363" y="0" type="line"/>
			<point x="363" y="30" type="line"/>
			<point x="227" y="30" type="line"/>
		</contour>
		<contour>
			<point x="247" y="670" type="line"/>
			<point x="373" y="670" type="line"/>
			<point x="373" y="700" type="line"/>
			<point x="247" y="700" type="line"/>
		</contour>
		<contour>
			<point x="438" y="557" type="line"/>
			<point x="445" y="564" type="line"/>
			<point x="380" y="700" type="line"/>
			<point x="329" y="700" type="line"/>
			<point x="365" y="625" type="line"/>
		</contour>
		<component base="_part.stemserifs" xOffset="-9"/>
		<component base="_part.wavestrokehorizontal" xOffset="126" yOffset="80"/>
	</outline>
</glyph>
<glyph name="E.ss03" format="2">
	<advance width="495"/>
	<anchor x="306" y="0" name="ogonek"/>
	<anchor x="243" y="700" name="top"/>
	<anchor x="22" y="700" name="topleft"/>
	<anchor x="243" y="0" name="bottom"/>
	<outline>
		<contour>
			<point x="227" y="0" type="line"/>
			<point x="363" y="0" type="line"/>
			<point x="363" y="30" type="line"/>
			<point x="227" y="30" type="line"/>
		</contour>
		<contour>
			<point x="329" y="0" type="line"/>
			<point x="401" y="1" type="line"/>
			<point x="463" y="263" type="line"/>
			<point x="444" y="263" type="line"/>
		</contour>
		<contour>
			<point x="247" y="670" type="line"/>
			<point x="373" y="670" type="line"/>
			<point x="373" y="700" type="line"/>
			<point x="247" y="700" type="line"/>
		</contour>
		<contour>
			<point x="431.5" y="550.5" type="line"/>
			<point x="445" y="564" type="line"/>
			<point x="380" y="700" type="line"/>
			<point x="329" y="700" type="line"/>
			<point x="365" y="625" type="line"/>
		</contour>
		<contour>
			<point x="171" y="347" type="curve"/>
			<point x="197" y="317" type="line"/>
			<point x="197" y="340"/>
			<point x="230.5" y="356.5"/>
			<point x="286.5" y="356.5" type="curve"/>
			<point x="363" y="356.5"/>
			<point x="482.5" y="324.5"/>
			<point x="587" y="324.5" type="curve" smooth="yes"/>
			<point x="674.5" y="324.5"/>
			<point x="768" y="350"/>
			<point x="814" y="386.5" type="curve"/>
			<point x="804" y="403" type="line"/>
			<point x="776" y="384"/>
			<point x="741" y="371.5"/>
			<point x="716.5" y="371.5" type="curve" smooth="yes"/>
			<point x="645.5" y="371.5"/>
			<point x="506" y="432.5"/>
			<point x="411" y="432.5" type="curve" smooth="yes"/>
			<point x="316.5" y="432.5"/>
			<point x="220.5" y="398.5"/>
		</contour>
		<component base="_part.stemserifs" xOffset="-9"/>
	</outline>
</glyph>
<glyph name="F.ss01" format="2">
	<advance width="436"/>
	<outline>
		<contour>
			<point x="97" y="0" type="line"/>
			<point x="317" y="0" type="line"/>
			<point x="317" y="30" type="line"/>
			<point x="97" y="30" type="line"/>
		</contour>
		<contour>
			<point x="394" y="417" type="line"/>
			<point x="413" y="417" type="line"/>
			<point x="401" y="700" type="line"/>
			<point x="330" y="700" type="line"/>
		</contour>
		<contour>
			<point x="247" y="670" type="line"/>
			<point x="393" y="670" type="line"/>
			<point x="393" y="700" type="line"/>
			<point x="247" y="700" type="line"/>
		</contour>
		<component base="_part.stemserifs" xOffset="-9"/>
		<component base="_part.wavestrokehorizontal" xOffset="115" yOffset="-70"/>
	</outline>
</glyph>
<glyph name="G.ss04" format="2">
	<advance width="555"/>
	<anchor x="348" y="350" name="center"/>
	<anchor x="348" y="0" name="bottom"/>
	<anchor x="348" y="700" name="top"/>
	<outline>
		<contour>
			<point x="361" y="0" type="line"/>
			<point x="385" y="0" type="line"/>
			<point x="461" y="0" type="line"/>
			<point x="461" y="427" type="line"/>
			<point x="361" y="427" type="line"/>
		</contour>
		<contour>
			<point x="385" y="-8" type="curve"/>
			<point x="385" y="22" type="line"/>
			<point x="242" y="22"/>
			<point x="147" y="140"/>
			<point x="147" y="350" type="curve"/>
			<point x="37" y="350" type="line"/>
			<point x="37" y="135"/>
			<point x="176" y="-8"/>
		</contour>
		<contour>
			<point x="37" y="350" type="curve"/>
			<point x="147" y="350" type="line"/>
			<point x="147" y="560"/>
			<point x="242" y="678"/>
			<point x="385" y="678" type="curve"/>
			<point x="385" y="708" type="line"/>
			<point x="176" y="708"/>
			<point x="37" y="565"/>
		</contour>
		<contour>
			<point x="385" y="10" type="line"/>
			<point x="385" y="-8" type="line"/>
			<point x="409.5" y="-8"/>
			<point x="440" y="-5"/>
			<point x="461" y="0" type="curve"/>
			<point x="461" y="9" type="line"/>
		</contour>
		<contour>
			<point x="382" y="540" type="line"/>
			<point x="401" y="540" type="line"/>
			<point x="423" y="708" type="line"/>
			<point x="385" y="708" type="line"/>
			<point x="372.5" y="701.5" type="line"/>
		</contour>
		<component base="_part.longserif" xOffset="267" yOffset="-273"/>
		<component base="_part.longserif" xOffset="207" yOffset="-273"/>
	</outline>
</glyph>
<glyph name="G.ss06" format="2">
	<advance width="515"/>
	<anchor x="272" y="700" name="top"/>
	<anchor x="272" y="0" name="bottom"/>
	<outline>
		<contour>
			<point x="281" y="-8" type="curve"/>
			<point x="281" y="22" type="line"/>
			<point x="204" y="22"/>
			<point x="147" y="142"/>
			<point x="147" y="350" type="curve"/>
			<point x="37" y="350" type="line"/>
			<point x="37" y="174"/>
			<point x="123" y="-8"/>
		</contour>
		<contour>
			<point x="37" y="350" type="curve"/>
			<point x="147" y="350" type="line"/>
			<point x="147" y="558"/>
			<point x="195" y="678"/>
			<point x="272" y="678" type="curve"/>
			<point x="272" y="708" type="line"/>
			<point x="114" y="708"/>
			<point x="37" y="526"/>
		</contour>
		<contour>
			<point x="281" y="22" type="curve"/>
			<point x="281" y="-8" type="line"/>
			<point x="366.5" y="-8"/>
			<point x="415.5" y="46"/>
			<point x="479" y="46" type="curve"/>
			<point x="479" y="76" type="line"/>
			<point x="464.5" y="77.5"/>
			<point x="461" y="98.5"/>
			<point x="461" y="182.5" type="curve" smooth="yes"/>
			<point x="461" y="240" type="line" smooth="yes"/>
			<point x="461" y="325.5"/>
			<point x="468" y="347"/>
			<point x="479" y="347" type="curve"/>
			<point x="479" y="377" type="line"/>
			<point x="361" y="377" type="line"/>
			<point x="361" y="83.5" type="line" smooth="yes"/>
			<point x="361" y="53.5"/>
			<point x="355" y="43.5"/>
			<point x="331.5" y="32" type="curve" smooth="yes"/>
			<point x="318.5" y="25.5"/>
			<point x="301.5" y="22"/>
		</contour>
		<contour>
			<point x="364" y="510" type="curve" smooth="yes"/>
			<point x="361" y="477" type="line"/>
			<point x="378" y="477" type="line"/>
			<point x="445" y="703" type="line"/>
			<point x="426" y="705" type="line"/>
			<point x="416" y="679"/>
			<point x="407" y="667"/>
			<point x="391" y="667" type="curve" smooth="yes"/>
			<point x="368" y="667"/>
			<point x="329" y="708"/>
			<point x="272" y="708" type="curve"/>
			<point x="272" y="678" type="line"/>
			<point x="358" y="678"/>
			<point x="373" y="609"/>
		</contour>
		<component base="_part.longserif" xOffset="196" yOffset="-323"/>
	</outline>
</glyph>
<glyph name="H.ss01" format="2">
	<advance width="584"/>
	<outline>
		<contour>
			<point x="301" y="302.5" type="curve" smooth="yes"/>
			<point x="338.5" y="302.5"/>
			<point x="378" y="333"/>
			<point x="400" y="378.5" type="curve"/>
			<point x="387" y="391.5" type="line"/>
			<point x="387" y="381.5"/>
			<point x="379" y="375.5"/>
			<point x="368" y="375.5" type="curve" smooth="yes"/>
			<point x="339" y="375.5"/>
			<point x="321" y="420.5"/>
			<point x="283" y="420.5" type="curve" smooth="yes"/>
			<point x="245.5" y="420.5"/>
			<point x="206" y="390"/>
			<point x="184" y="344.5" type="curve"/>
			<point x="197" y="331.5" type="line"/>
			<point x="197" y="341.5"/>
			<point x="205" y="347.5"/>
			<point x="216" y="347.5" type="curve" smooth="yes"/>
			<point x="245" y="347.5"/>
			<point x="263" y="302.5"/>
		</contour>
		<component base="_part.stemserifs" xOffset="-9"/>
		<component base="_part.stemserifs" xOffset="281"/>
	</outline>
</glyph>
<glyph name="H.ss03" format="2">
	<advance width="593"/>
	<anchor x="291" y="350" name="center"/>
	<anchor x="291" y="700" name="top"/>
	<anchor x="21" y="700" name="topleft"/>
	<anchor x="291" y="0" name="bottom"/>
	<outline>
		<contour>
			<point x="396" y="450.5" type="curve"/>
			<point x="404" y="454" type="line"/>
			<point x="403.5" y="519.5"/>
			<point x="358.5" y="574.5"/>
			<point x="291" y="574.5" type="curve" smooth="yes"/>
			<point x="207.5" y="574.5"/>
			<point x="137.5" y="511"/>
			<point x="57" y="511" type="curve" smooth="yes"/>
			<point x="17.5" y="511"/>
			<point x="-21.5" y="523.5"/>
			<point x="-49.5" y="542.5" type="curve"/>
			<point x="-59" y="525" type="line"/>
			<point x="-15.5" y="491"/>
			<point x="57.5" y="468"/>
			<point x="126.5" y="468" type="curve" smooth="yes"/>
			<point x="211" y="468"/>
			<point x="252.5" y="500"/>
			<point x="314" y="500" type="curve"/>
			<point x="363" y="500"/>
			<point x="396" y="480"/>
		</contour>
		<component base="_part.stemserifs"/>
		<component base="_part.stemserifs" xOffset="290"/>
	</outline>
</glyph>
<glyph name="H_E.dlig" format="2">
	<advance width="757"/>
	<anchor x="292" y="350" name="center"/>
	<outline>
		<contour>
			<point x="97" y="0" type="line"/>
			<point x="197" y="0" type="line"/>
			<point x="197" y="700" type="line"/>
			<point x="97" y="700" type="line"/>
		</contour>
		<contour>
			<point x="187" y="408" type="line"/>
			<point x="397" y="408" type="line"/>
			<point x="397" y="438" type="line"/>
			<point x="187" y="438" type="line"/>
		</contour>
		<contour>
			<point x="387" y="0" type="line"/>
			<point x="487" y="0" type="line"/>
			<point x="487" y="700" type="line"/>
			<point x="387" y="700" type="line"/>
		</contour>
		<contour>
			<point x="647" y="30" type="line"/>
			<point x="327" y="30" type="line"/>
			<point x="327" y="0" type="line"/>
			<point x="647" y="0" type="line"/>
		</contour>
		<contour>
			<point x="257" y="30" type="line"/>
			<point x="37" y="30" type="line"/>
			<point x="37" y="0" type="line"/>
			<point x="257" y="0" type="line"/>
		</contour>
		<contour>
			<point x="619" y="0" type="line"/>
			<point x="670" y="0" type="line"/>
			<point x="725" y="168" type="line"/>
			<point x="706" y="168" type="line"/>
		</contour>
		<contour>
			<point x="583.5" y="309" type="line"/>
			<point x="602.5" y="309" type="line"/>
			<point x="602.5" y="427" type="line"/>
			<point x="560" y="427" type="line"/>
		</contour>
		<contour>
			<point x="477" y="408" type="line"/>
			<point x="602.5" y="408" type="line"/>
			<point x="602.5" y="438" type="line"/>
			<point x="477" y="438" type="line"/>
		</contour>
		<contour>
			<point x="560" y="419" type="line"/>
			<point x="602.5" y="419" type="line"/>
			<point x="602.5" y="537" type="line"/>
			<point x="583.5" y="537" type="line"/>
		</contour>
		<contour>
			<point x="676" y="532" type="line"/>
			<point x="695" y="532" type="line"/>
			<point x="670" y="700" type="line"/>
			<point x="619" y="700" type="line"/>
		</contour>
		<contour>
			<point x="537" y="670" type="line"/>
			<point x="663" y="670" type="line"/>
			<point x="663" y="700" type="line"/>
			<point x="537" y="700" type="line"/>
		</contour>
		<contour>
			<point x="387" y="0" type="line"/>
			<point x="487" y="0" type="line"/>
			<point x="487" y="700" type="line"/>
			<point x="387" y="700" type="line"/>
		</contour>
		<contour>
			<point x="327" y="670" type="line"/>
			<point x="547" y="670" type="line"/>
			<point x="547" y="700" type="line"/>
			<point x="327" y="700" type="line"/>
		</contour>
		<contour>
			<point x="257" y="700" type="line"/>
			<point x="37" y="700" type="line"/>
			<point x="37" y="670" type="line"/>
			<point x="257" y="670" type="line"/>
		</contour>
	</outline>
</glyph>
<glyph name="J.ss01" format="2">
	<advance width="497.5"/>
	<anchor x="359" y="700" name="top"/>
	<anchor x="359" y="0" name="bottom"/>
	<outline>
		<contour>
			<point x="217" y="-8" type="curve" smooth="yes"/>
			<point x="349.5" y="-8"/>
			<point x="406" y="63.5"/>
			<point x="406" y="181.5" type="curve"/>
			<point x="306" y="178.5" type="line"/>
			<point x="304" y="93.5"/>
			<point x="286.5" y="22"/>
			<point x="217" y="22" type="curve" smooth="yes"/>
			<point x="164" y="22"/>
			<point x="115.5" y="43"/>
			<point x="115.5" y="91" type="curve" smooth="yes"/>
			<point x="115.5" y="156.5"/>
			<point x="211.5" y="210.5"/>
			<point x="211.5" y="304" type="curve" smooth="yes"/>
			<point x="211.5" y="391.5"/>
			<point x="128" y="472.5"/>
			<point x="34" y="536" type="curve"/>
			<point x="21.5" y="522" type="line"/>
			<point x="84" y="471.5"/>
			<point x="125.5" y="424.5"/>
			<point x="125.5" y="365" type="curve" smooth="yes"/>
			<point x="125.5" y="291.5"/>
			<point x="64.5" y="239"/>
			<point x="64.5" y="122" type="curve" smooth="yes"/>
			<point x="64.5" y="42"/>
			<point x="133.5" y="-8"/>
		</contour>
		<contour>
			<point x="83" y="532" type="line"/>
			<point x="104" y="532" type="line"/>
			<point x="161" y="700" type="line"/>
			<point x="108" y="700" type="line"/>
		</contour>
		<contour>
			<point x="306" y="178.5" type="line"/>
			<point x="406" y="181.5" type="line"/>
			<point x="406" y="700" type="line"/>
			<point x="306" y="700" type="line"/>
		</contour>
		<contour>
			<point x="132" y="670" type="line"/>
			<point x="466" y="670" type="line"/>
			<point x="466" y="700" type="line"/>
			<point x="132" y="700" type="line"/>
		</contour>
	</outline>
</glyph>
<glyph name="J.ss04" format="2">
	<advance width="409.5"/>
	<anchor x="209" y="700" name="top"/>
	<anchor x="209" y="0" name="bottom"/>
	<outline>
		<contour>
			<point x="25" y="532" type="line"/>
			<point x="44" y="532" type="line"/>
			<point x="102" y="700" type="line"/>
			<point x="50" y="700" type="line"/>
		</contour>
		<contour>
			<point x="323" y="350" type="line"/>
			<point x="323" y="700" type="line"/>
			<point x="223" y="700" type="line"/>
			<point x="223" y="350" type="line"/>
		</contour>
		<contour>
			<point x="74" y="670" type="line"/>
			<point x="383" y="670" type="line"/>
			<point x="383" y="700" type="line"/>
			<point x="74" y="700" type="line"/>
		</contour>
		<contour>
			<point x="85" y="0" type="line"/>
			<point x="107.5" y="7" type="line"/>
			<point x="89" y="233" type="line"/>
			<point x="70" y="233" type="line"/>
			<point x="47" y="0" type="line"/>
		</contour>
		<contour>
			<point x="85" y="30" type="curve"/>
			<point x="85" y="0" type="line"/>
			<point x="294" y="0"/>
			<point x="323" y="135"/>
			<point x="323" y="350" type="curve"/>
			<point x="223" y="350" type="line"/>
			<point x="223" y="140"/>
			<point x="228" y="30"/>
		</contour>
	</outline>
</glyph>
<glyph name="J.ss06" format="2">
	<advance width="283.5"/>
	<anchor x="150" y="700" name="top"/>
	<anchor x="150" y="0" name="bottom"/>
	<outline>
		<contour>
			<point x="197.5" y="70" type="line"/>
			<point x="197.5" y="700" type="line"/>
			<point x="97.5" y="700" type="line"/>
			<point x="97.5" y="85.5" type="line"/>
		</contour>
		<contour>
			<point x="-20" y="-19.5" type="curve"/>
			<point x="-39" y="-19.5" type="line"/>
			<point x="-39" y="-70"/>
			<point x="7.5" y="-93"/>
			<point x="58.5" y="-93" type="curve" smooth="yes"/>
			<point x="142" y="-93"/>
			<point x="197.5" y="-54"/>
			<point x="197.5" y="70" type="curve"/>
			<point x="97.5" y="85.5" type="line"/>
			<point x="97.5" y="-38.5"/>
			<point x="72.5" y="-63"/>
			<point x="38" y="-63" type="curve" smooth="yes"/>
			<point x="10" y="-63"/>
			<point x="-20" y="-46.5"/>
		</contour>
		<component base="_part.longserif" xScale="-1" xOffset="304"/>
	</outline>
</glyph>
<glyph name="J.ss09" format="2">
	<advance width="803"/>
	<anchor x="670" y="700" name="top"/>
	<anchor x="670" y="0" name="bottom"/>
	<outline>
		<contour>
			<point x="405" y="532" type="line"/>
			<point x="424" y="532" type="line"/>
			<point x="481" y="700" type="line"/>
			<point x="430" y="700" type="line"/>
		</contour>
		<contour>
			<point x="617" y="178.5" type="line"/>
			<point x="717" y="181.5" type="line"/>
			<point x="717" y="700" type="line"/>
			<point x="617" y="700" type="line"/>
		</contour>
		<contour>
			<point x="443" y="670" type="line"/>
			<point x="777" y="670" type="line"/>
			<point x="777" y="700" type="line"/>
			<point x="443" y="700" type="line"/>
		</contour>
		<contour>
			<point x="26" y="90.5" type="curve" smooth="yes"/>
			<point x="26" y="22.5"/>
			<point x="78" y="-8"/>
			<point x="127.5" y="-8" type="curve" smooth="yes"/>
			<point x="222.5" y="-8"/>
			<point x="324.5" y="87.5"/>
			<point x="324.5" y="185" type="curve" smooth="yes"/>
			<point x="324.5" y="239.5"/>
			<point x="293.5" y="290"/>
			<point x="243" y="339.5" type="curve" smooth="yes"/>
			<point x="211" y="370.5"/>
			<point x="132" y="426"/>
			<point x="132" y="500" type="curve" smooth="yes"/>
			<point x="132" y="597"/>
			<point x="227.5" y="595"/>
			<point x="311.5" y="545" type="curve" smooth="yes"/>
			<point x="377.5" y="506"/>
			<point x="436.5" y="437.5"/>
			<point x="436.5" y="365" type="curve" smooth="yes"/>
			<point x="436.5" y="301.5"/>
			<point x="375.5" y="194"/>
			<point x="375.5" y="122" type="curve" smooth="yes"/>
			<point x="375.5" y="44"/>
			<point x="444.5" y="-8"/>
			<point x="528" y="-8" type="curve" smooth="yes"/>
			<point x="660.5" y="-8"/>
			<point x="717" y="63.5"/>
			<point x="717" y="181.5" type="curve"/>
			<point x="617" y="178.5" type="line"/>
			<point x="615" y="71.5"/>
			<point x="597.5" y="22"/>
			<point x="528" y="22" type="curve" smooth="yes"/>
			<point x="457.5" y="22"/>
			<point x="426.5" y="45.5"/>
			<point x="426.5" y="80" type="curve" smooth="yes"/>
			<point x="426.5" y="167.5"/>
			<point x="522.5" y="224"/>
			<point x="522.5" y="304" type="curve" smooth="yes"/>
			<point x="522.5" y="407.5"/>
			<point x="422" y="513.5"/>
			<point x="315.5" y="574" type="curve" smooth="yes"/>
			<point x="264" y="603.5"/>
			<point x="209" y="619"/>
			<point x="161" y="619" type="curve" smooth="yes"/>
			<point x="80.5" y="619"/>
			<point x="26" y="576"/>
			<point x="26" y="511" type="curve" smooth="yes"/>
			<point x="26" y="434.5"/>
			<point x="101" y="391"/>
			<point x="224" y="310" type="curve" smooth="yes"/>
			<point x="268" y="281"/>
			<point x="292.5" y="249.5"/>
			<point x="292.5" y="211" type="curve" smooth="yes"/>
			<point x="292.5" y="145"/>
			<point x="220.5" y="108"/>
			<point x="165" y="108" type="curve" smooth="yes"/>
			<point x="122.5" y="108"/>
			<point x="86.5" y="130"/>
			<point x="86.5" y="168.5" type="curve" smooth="yes"/>
			<point x="86.5" y="191.5"/>
			<point x="99.5" y="216"/>
			<point x="126" y="231" type="curve"/>
			<point x="109" y="242.5" type="line"/>
			<point x="59" y="212"/>
			<point x="26" y="150.5"/>
		</contour>
	</outline>
</glyph>
<glyph name="K.ss04" format="2">
	<advance width="540"/>
	<anchor x="260" y="700" name="top"/>
	<anchor x="260" y="0" name="bottom"/>
	<outline>
		<contour>
			<point x="362" y="0" type="line"/>
			<point x="463" y="0" type="line"/>
			<point x="292.5" y="606.5" type="line"/>
			<point x="214.5" y="552.5" type="line"/>
		</contour>
		<contour>
			<point x="293" y="0" type="line"/>
			<point x="513" y="0" type="line"/>
			<point x="513" y="30" type="line"/>
			<point x="293" y="30" type="line"/>
		</contour>
		<contour>
			<point x="131.5" y="516.5" type="line"/>
			<point x="184.5" y="516.5" type="line"/>
			<point x="449.5" y="700" type="line"/>
			<point x="396.5" y="700" type="line"/>
		</contour>
		<contour>
			<point x="293" y="670" type="line"/>
			<point x="464" y="670" type="line"/>
			<point x="464" y="700" type="line"/>
			<point x="293" y="700" type="line"/>
		</contour>
		<component base="_part.stemserifs" xOffset="-9"/>
	</outline>
</glyph>
<glyph name="L.ss01" format="2">
	<advance width="437"/>
	<outline>
		<contour>
			<point x="299.5" y="0" type="curve"/>
			<point x="318.5" y="0" type="line"/>
			<point x="383.5" y="72"/>
			<point x="398.5" y="123"/>
			<point x="398.5" y="167" type="curve" smooth="yes"/>
			<point x="398.5" y="208"/>
			<point x="385.5" y="243"/>
			<point x="374.5" y="275" type="curve" smooth="yes"/>
			<point x="367.5" y="297"/>
			<point x="364.5" y="323"/>
			<point x="364.5" y="346" type="curve" smooth="yes"/>
			<point x="364.5" y="394"/>
			<point x="377.5" y="441"/>
			<point x="405.5" y="471" type="curve"/>
			<point x="388.5" y="480" type="line"/>
			<point x="319" y="426"/>
			<point x="273.5" y="335"/>
			<point x="273.5" y="260" type="curve" smooth="yes"/>
			<point x="273.5" y="223"/>
			<point x="284.5" y="197"/>
			<point x="295.5" y="171" type="curve" smooth="yes"/>
			<point x="308.5" y="140"/>
			<point x="315.5" y="112"/>
			<point x="315.5" y="83" type="curve" smooth="yes"/>
			<point x="315.5" y="58"/>
			<point x="310.5" y="31"/>
		</contour>
		<contour>
			<point x="227" y="0" type="line"/>
			<point x="313" y="0" type="line"/>
			<point x="313" y="30" type="line"/>
			<point x="227" y="30" type="line"/>
		</contour>
		<component base="_part.stemserifs" xOffset="-9"/>
	</outline>
</glyph>
<glyph name="L.ss02" format="2">
	<advance width="417"/>
	<anchor x="209" y="350" name="center"/>
	<anchor x="209" y="700" name="top"/>
	<anchor x="395" y="700" name="topright"/>
	<anchor x="209" y="0" name="bottom"/>
	<outline>
		<contour>
			<point x="307" y="0" type="line"/>
			<point x="368" y="0" type="line"/>
			<point x="390" y="383" type="line"/>
			<point x="371" y="383" type="line"/>
		</contour>
		<contour>
			<point x="247" y="0" type="line"/>
			<point x="333" y="0" type="line"/>
			<point x="333" y="30" type="line"/>
			<point x="247" y="30" type="line"/>
		</contour>
		<component base="_part.stemserifs" xOffset="-9"/>
	</outline>
</glyph>
<glyph name="L.ss07" format="2">
	<advance width="447"/>
	<outline>
		<contour>
			<point x="247" y="0" type="line"/>
			<point x="318" y="0" type="line"/>
			<point x="350" y="283" type="line"/>
			<point x="331" y="283" type="line"/>
		</contour>
		<contour>
			<point x="247" y="0" type="line"/>
			<point x="348" y="0" type="line"/>
			<point x="348" y="30" type="line"/>
			<point x="247" y="30" type="line"/>
		</contour>
		<contour>
			<point x="319" y="0" type="line"/>
			<point x="370" y="0" type="line"/>
			<point x="425" y="168" type="line"/>
			<point x="406" y="168" type="line"/>
		</contour>
		<component base="_part.stemserifs" xOffset="-9"/>
	</outline>
</glyph>
<glyph name="L_L.dlig" format="2">
	<advance width="687.5"/>
	<outline>
		<contour>
			<point x="97" y="0" type="line"/>
			<point x="197" y="0" type="line"/>
			<point x="197" y="700" type="line"/>
			<point x="97" y="700" type="line"/>
		</contour>
		<contour>
			<point x="37" y="0" type="line"/>
			<point x="578.5" y="0" type="line"/>
			<point x="578.5" y="30" type="line"/>
			<point x="37" y="30" type="line"/>
		</contour>
		<contour>
			<point x="306.5" y="283" type="line"/>
			<point x="576.5" y="283" type="line"/>
			<point x="576.5" y="313" type="line"/>
			<point x="306.5" y="313" type="line"/>
		</contour>
		<contour>
			<point x="528.5" y="0" type="line"/>
			<point x="589.5" y="0" type="line"/>
			<point x="661.5" y="233" type="line"/>
			<point x="642.5" y="233" type="line"/>
		</contour>
		<contour>
			<point x="37" y="670" type="line"/>
			<point x="257" y="670" type="line"/>
			<point x="257" y="700" type="line"/>
			<point x="37" y="700" type="line"/>
		</contour>
		<contour>
			<point x="366.5" y="283" type="line"/>
			<point x="466.5" y="283" type="line"/>
			<point x="466.5" y="700" type="line"/>
			<point x="366.5" y="700" type="line"/>
		</contour>
		<contour>
			<point x="528.5" y="283" type="line"/>
			<point x="589.5" y="283" type="line"/>
			<point x="661.5" y="516" type="line"/>
			<point x="642.5" y="516" type="line"/>
		</contour>
		<contour>
			<point x="306.5" y="670" type="line"/>
			<point x="526.5" y="670" type="line"/>
			<point x="526.5" y="700" type="line"/>
			<point x="306.5" y="700" type="line"/>
		</contour>
	</outline>
</glyph>
<glyph name="M.ss03" format="2">
	<advance width="583"/>
	<outline>
		<contour>
			<point x="437" y="0" type="line"/>
			<point x="539" y="0" type="line"/>
			<point x="369.5" y="737" type="line"/>
			<point x="320" y="504" type="line"/>
		</contour>
		<contour>
			<point x="37" y="0" type="line"/>
			<point x="67.5" y="0" type="line"/>
			<point x="214" y="633.5" type="line"/>
			<point x="206.5" y="737" type="line"/>
		</contour>
		<contour>
			<point x="221.5" y="-57" type="line"/>
			<point x="272" y="208.5" type="line"/>
			<point x="206.5" y="737" type="line"/>
			<point x="139" y="443" type="line"/>
		</contour>
		<contour>
			<point x="221.5" y="-57" type="line"/>
			<point x="378.5" y="633" type="line"/>
			<point x="369.5" y="737" type="line"/>
			<point x="223.5" y="51.5" type="line"/>
		</contour>
		<component base="_part.longserif" xOffset="331" yOffset="-692"/>
		<component base="_part.shortserif" xOffset="-60" yOffset="-692"/>
	</outline>
</glyph>
<glyph name="M.ss04" format="2">
	<advance width="556.5"/>
	<outline>
		<contour>
			<point x="359.5" y="0" type="line"/>
			<point x="459.5" y="0" type="line"/>
			<point x="459.5" y="700" type="line"/>
			<point x="374" y="700" type="line"/>
			<point x="359.5" y="680" type="line"/>
		</contour>
		<contour>
			<point x="225" y="484" type="line"/>
			<point x="281.5" y="561.5" type="line"/>
			<point x="184.5" y="700" type="line"/>
			<point x="74.5" y="700" type="line"/>
		</contour>
		<contour>
			<point x="226" y="482.5" type="line"/>
			<point x="379" y="700" type="line"/>
			<point x="341.5" y="700" type="line"/>
			<point x="208" y="509" type="line"/>
		</contour>
		<component base="_part.stemthin" xOffset="11"/>
		<component base="_part.longserif" xScale="-1" yScale="-1" xOffset="566" yOffset="700"/>
		<component base="_part.shortserif" xOffset="346"/>
	</outline>
</glyph>
<glyph name="M.ss06" format="2">
	<advance width="584"/>
	<anchor x="292" y="700" name="top"/>
	<anchor x="292" y="0" name="bottom"/>
	<outline>
		<contour>
			<point x="246" y="-58" type="line"/>
			<point x="289" y="199.5" type="line"/>
			<point x="205" y="700" type="line"/>
			<point x="113" y="700" type="line"/>
		</contour>
		<contour>
			<point x="233" y="40" type="line"/>
			<point x="246" y="-58" type="line"/>
			<point x="379" y="700" type="line"/>
			<point x="348.5" y="700" type="line"/>
		</contour>
		<contour>
			<point x="65" y="0" type="line"/>
			<point x="95" y="0" type="line"/>
			<point x="127" y="700" type="line"/>
			<point x="97" y="700" type="line"/>
		</contour>
		<contour>
			<point x="408" y="0" type="line"/>
			<point x="508" y="0" type="line"/>
			<point x="476" y="700" type="line"/>
			<point x="376" y="700" type="line"/>
		</contour>
		<component base="_part.longserif" xScale="-1" yScale="-1" xOffset="614" yOffset="700"/>
		<component base="_part.shortserif" xOffset="364"/>
		<component base="_part.shortserif"/>
		<component base="_part.shortserif" xOffset="-30" yOffset="-670"/>
	</outline>
</glyph>
<glyph name="O.ss03" format="2">
	<advance width="554"/>
	<anchor x="277" y="350" name="center"/>
	<anchor x="493" y="10" name="ogonek"/>
	<anchor x="277" y="700" name="top"/>
	<anchor x="527" y="700" name="topright"/>
	<anchor x="27" y="700" name="topleft"/>
	<anchor x="277" y="0" name="bottom"/>
	<outline>
		<contour>
			<point x="407" y="350" type="curve"/>
			<point x="517" y="350" type="line"/>
			<point x="517" y="526"/>
			<point x="450" y="708"/>
			<point x="277" y="708" type="curve"/>
			<point x="277" y="678" type="line"/>
			<point x="369" y="678"/>
			<point x="407" y="558"/>
		</contour>
		<contour>
			<point x="277" y="-8" type="curve"/>
			<point x="277" y="22" type="line"/>
			<point x="185" y="22"/>
			<point x="147" y="142"/>
			<point x="147" y="350" type="curve"/>
			<point x="37" y="350" type="line"/>
			<point x="37" y="174"/>
			<point x="104" y="-8"/>
		</contour>
		<contour>
			<point x="277" y="22" type="curve"/>
			<point x="277" y="-8" type="line"/>
			<point x="450" y="-8"/>
			<point x="517" y="174"/>
			<point x="517" y="350" type="curve"/>
			<point x="407" y="350" type="line"/>
			<point x="407" y="142"/>
			<point x="369" y="22"/>
		</contour>
		<contour>
			<point x="277" y="299" type="curve" smooth="yes"/>
			<point x="305" y="299"/>
			<point x="328" y="322"/>
			<point x="328" y="350" type="curve" smooth="yes"/>
			<point x="328" y="378"/>
			<point x="305" y="401"/>
			<point x="277" y="401" type="curve" smooth="yes"/>
			<point x="249" y="401"/>
			<point x="226" y="378"/>
			<point x="226" y="350" type="curve" smooth="yes"/>
			<point x="226" y="322"/>
			<point x="249" y="299"/>
		</contour>
		<contour>
			<point x="37" y="350" type="curve"/>
			<point x="147" y="350" type="line"/>
			<point x="147" y="558"/>
			<point x="185" y="678"/>
			<point x="277" y="678" type="curve"/>
			<point x="277" y="708" type="line"/>
			<point x="104" y="708"/>
			<point x="37" y="526"/>
		</contour>
	</outline>
</glyph>
<glyph name="O.ss04" format="2">
	<advance width="770"/>
	<anchor x="385" y="350" name="center"/>
	<anchor x="693" y="10" name="ogonek"/>
	<anchor x="385" y="700" name="top"/>
	<anchor x="750" y="700" name="topright"/>
	<anchor x="20" y="700" name="topleft"/>
	<anchor x="385" y="0" name="bottom"/>
	<outline>
		<contour>
			<point x="385" y="-8" type="curve"/>
			<point x="385" y="22" type="line"/>
			<point x="242" y="22"/>
			<point x="147" y="140"/>
			<point x="147" y="350" type="curve"/>
			<point x="37" y="350" type="line"/>
			<point x="37" y="135"/>
			<point x="176" y="-8"/>
		</contour>
		<contour>
			<point x="37" y="350" type="curve"/>
			<point x="147" y="350" type="line"/>
			<point x="147" y="560"/>
			<point x="242" y="678"/>
			<point x="385" y="678" type="curve"/>
			<point x="385" y="708" type="line"/>
			<point x="176" y="708"/>
			<point x="37" y="565"/>
		</contour>
		<contour>
			<point x="385" y="22" type="curve"/>
			<point x="385" y="-8" type="line"/>
			<point x="594" y="-8"/>
			<point x="733" y="135"/>
			<point x="733" y="350" type="curve"/>
			<point x="623" y="350" type="line"/>
			<point x="623" y="140"/>
			<point x="528" y="22"/>
		</contour>
		<contour>
			<point x="623" y="350" type="curve"/>
			<point x="733" y="350" type="line"/>
			<point x="733" y="565"/>
			<point x="594" y="708"/>
			<point x="385" y="708" type="curve"/>
			<point x="385" y="678" type="line"/>
			<point x="528" y="678"/>
			<point x="623" y="560"/>
		</contour>
	</outline>
</glyph>
<glyph name="OE.001" format="2">
	<advance width="622"/>
	<outline>
		<contour>
			<point x="37" y="350" type="curve"/>
			<point x="147" y="350" type="line"/>
			<point x="147" y="558"/>
			<point x="185" y="670"/>
			<point x="312" y="670" type="curve"/>
			<point x="312" y="700" type="line"/>
			<point x="104" y="700"/>
			<point x="37" y="526"/>
		</contour>
		<contour>
			<point x="312" y="0" type="curve"/>
			<point x="312" y="30" type="line"/>
			<point x="185" y="30"/>
			<point x="147" y="142"/>
			<point x="147" y="350" type="curve"/>
			<point x="37" y="350" type="line"/>
			<point x="37" y="174"/>
			<point x="104" y="0"/>
		</contour>
		<contour>
			<point x="382" y="0" type="line"/>
			<point x="518" y="0" type="line"/>
			<point x="518" y="30" type="line"/>
			<point x="382" y="30" type="line"/>
		</contour>
		<contour>
			<point x="484" y="0" type="line"/>
			<point x="535" y="0" type="line"/>
			<point x="590" y="168" type="line"/>
			<point x="571" y="168" type="line"/>
		</contour>
		<contour>
			<point x="302" y="0" type="line"/>
			<point x="402" y="0" type="line"/>
			<point x="402" y="700" type="line"/>
			<point x="302" y="700" type="line"/>
		</contour>
		<contour>
			<point x="492" y="303" type="line"/>
			<point x="511" y="303" type="line"/>
			<point x="511" y="421" type="line"/>
			<point x="468.5" y="421" type="line"/>
		</contour>
		<contour>
			<point x="392" y="402" type="line"/>
			<point x="511" y="402" type="line"/>
			<point x="511" y="432" type="line"/>
			<point x="392" y="432" type="line"/>
		</contour>
		<contour>
			<point x="468.5" y="413" type="line"/>
			<point x="511" y="413" type="line"/>
			<point x="511" y="531" type="line"/>
			<point x="492" y="531" type="line"/>
		</contour>
		<contour>
			<point x="546.5" y="532" type="line"/>
			<point x="565.5" y="532" type="line"/>
			<point x="540.5" y="700" type="line"/>
			<point x="489.5" y="700" type="line"/>
		</contour>
		<contour>
			<point x="402" y="670" type="line"/>
			<point x="528" y="670" type="line"/>
			<point x="528" y="700" type="line"/>
			<point x="402" y="700" type="line"/>
		</contour>
	</outline>
</glyph>
<glyph name="Oslash.ss04" format="2">
	<advance width="770"/>
	<outline>
		<contour>
			<point x="192.5" y="-50" type="line"/>
			<point x="227.5" y="-50" type="line"/>
			<point x="577.5" y="750" type="line"/>
			<point x="542.5" y="750" type="line"/>
		</contour>
		<component base="O.ss04"/>
	</outline>
</glyph>
<glyph name="P.ss04" format="2">
	<advance width="476"/>
	<outline>
		<contour>
			<point x="194" y="492" type="line"/>
			<point x="216" y="492" type="line" smooth="yes"/>
			<point x="314.5" y="492"/>
			<point x="444.5" y="546"/>
			<point x="444.5" y="625" type="curve" smooth="yes"/>
			<point x="444.5" y="692.5"/>
			<point x="349.5" y="700"/>
			<point x="252" y="700" type="curve" smooth="yes"/>
			<point x="194" y="700" type="line"/>
			<point x="194" y="670" type="line"/>
			<point x="216" y="670" type="line" smooth="yes"/>
			<point x="282.5" y="670"/>
			<point x="349" y="662"/>
			<point x="349" y="613" type="curve" smooth="yes"/>
			<point x="349" y="559"/>
			<point x="281" y="511"/>
			<point x="216" y="511" type="curve" smooth="yes"/>
			<point x="194" y="511" type="line"/>
		</contour>
		<component base="_part.halfstemleft" xOffset="11"/>
	</outline>
</glyph>
<glyph name="P.ss06" format="2">
	<advance width="501.5"/>
	<anchor x="249" y="700" name="top"/>
	<anchor x="249" y="0" name="bottom"/>
	<outline>
		<contour>
			<point x="375" y="500" type="curve"/>
			<point x="470" y="500" type="line"/>
			<point x="470" y="630"/>
			<point x="381" y="700"/>
			<point x="253" y="700" type="curve" smooth="yes"/>
			<point x="194" y="700" type="line"/>
			<point x="194" y="670" type="line"/>
			<point x="216" y="670" type="line" smooth="yes"/>
			<point x="303" y="670"/>
			<point x="375" y="638"/>
		</contour>
		<contour>
			<point x="194" y="305" type="line"/>
			<point x="253" y="305" type="line" smooth="yes"/>
			<point x="381" y="305"/>
			<point x="470" y="377"/>
			<point x="470" y="500" type="curve"/>
			<point x="375" y="500" type="line"/>
			<point x="375" y="382"/>
			<point x="311" y="335"/>
			<point x="216" y="335" type="curve" smooth="yes"/>
			<point x="194" y="335" type="line"/>
		</contour>
		<component base="_part.stemserifs" xOffset="-9"/>
	</outline>
</glyph>
<glyph name="Q.ss03" format="2">
	<advance width="532"/>
	<outline>
		<contour>
			<point x="395.5" y="-145" type="curve"/>
			<point x="395.5" y="-137" type="line"/>
			<point x="354.5" y="-137"/>
			<point x="344.5" y="-82"/>
			<point x="344.5" y="0" type="curve"/>
			<point x="249.5" y="0" type="line"/>
			<point x="249.5" y="-104.5"/>
			<point x="290.5" y="-145"/>
		</contour>
		<contour>
			<point x="198.5" y="145" type="curve"/>
			<point x="198.5" y="137" type="line"/>
			<point x="239.5" y="137"/>
			<point x="249.5" y="82"/>
			<point x="249.5" y="0" type="curve"/>
			<point x="344.5" y="0" type="line"/>
			<point x="344.5" y="104.5"/>
			<point x="303.5" y="145"/>
		</contour>
		<component base="O.ss03"/>
	</outline>
</glyph>
<glyph name="Q.ss04" format="2">
	<advance width="770"/>
	<outline>
		<contour>
			<point x="520" y="-106.5" type="curve" smooth="yes"/>
			<point x="566.5" y="-106.5"/>
			<point x="622.5" y="-79"/>
			<point x="660" y="-37.5" type="curve"/>
			<point x="646.5" y="-24" type="line"/>
			<point x="615.5" y="-56.5"/>
			<point x="571" y="-78"/>
			<point x="534.5" y="-78" type="curve" smooth="yes"/>
			<point x="458.5" y="-78"/>
			<point x="410" y="-38.5"/>
			<point x="369.5" y="79" type="curve" smooth="yes"/>
			<point x="339" y="167.5"/>
			<point x="322" y="189.5"/>
			<point x="285.5" y="189.5" type="curve" smooth="yes"/>
			<point x="262" y="189.5"/>
			<point x="224" y="165"/>
			<point x="191" y="128.5" type="curve"/>
			<point x="200.5" y="111.5" type="line"/>
			<point x="211.5" y="121.5"/>
			<point x="224.5" y="128.5"/>
			<point x="233" y="128.5" type="curve" smooth="yes"/>
			<point x="263" y="128.5"/>
			<point x="283" y="85.5"/>
			<point x="306" y="36.5" type="curve" smooth="yes"/>
			<point x="345.5" y="-49.5"/>
			<point x="431" y="-106.5"/>
		</contour>
		<component base="O.ss04"/>
	</outline>
</glyph>
<glyph name="Q.ss06" format="2">
	<advance width="524"/>
	<anchor x="306" y="700" name="top"/>
	<anchor x="306" y="0" name="bottom"/>
	<outline>
		<contour>
			<point x="327.5" y="-104" type="curve" smooth="yes"/>
			<point x="357" y="-104"/>
			<point x="387.5" y="-81.5"/>
			<point x="406" y="-46.5" type="curve"/>
			<point x="387.5" y="-23" type="line"/>
			<point x="382.5" y="-34"/>
			<point x="368.5" y="-48.5"/>
			<point x="353.5" y="-48.5" type="curve" smooth="yes"/>
			<point x="337.5" y="-48.5"/>
			<point x="319" y="-31"/>
			<point x="307.5" y="47.5" type="curve" smooth="yes"/>
			<point x="290.5" y="160"/>
			<point x="279" y="181.5"/>
			<point x="249.5" y="181.5" type="curve" smooth="yes"/>
			<point x="219.5" y="181.5"/>
			<point x="176.5" y="167"/>
			<point x="145" y="145" type="curve"/>
			<point x="155.5" y="115.5" type="line"/>
			<point x="167.5" y="123.5"/>
			<point x="187" y="128.5"/>
			<point x="204" y="128.5" type="curve" smooth="yes"/>
			<point x="226.5" y="128.5"/>
			<point x="237" y="111"/>
			<point x="250.5" y="12.5" type="curve" smooth="yes"/>
			<point x="263.5" y="-83.5"/>
			<point x="292" y="-104"/>
		</contour>
		<component base="O"/>
	</outline>
</glyph>
<glyph name="R.ss01" format="2">
	<advance width="496"/>
	<anchor x="254" y="700" name="top"/>
	<anchor x="304" y="0" name="bottom"/>
	<outline>
		<contour>
			<point x="468" y="-8" type="curve" smooth="yes"/>
			<point x="491" y="-8"/>
			<point x="511" y="-4"/>
			<point x="519" y="1" type="curve"/>
			<point x="516" y="20" type="line"/>
			<point x="513" y="19"/>
			<point x="508" y="18"/>
			<point x="505" y="18" type="curve" smooth="yes"/>
			<point x="438.5" y="18"/>
			<point x="426" y="44"/>
			<point x="367" y="144" type="curve" smooth="yes"/>
			<point x="335.5" y="199"/>
			<point x="270" y="213"/>
			<point x="183" y="213" type="curve"/>
			<point x="183" y="188.5" type="line"/>
			<point x="246" y="188.5"/>
			<point x="270.5" y="167.5"/>
			<point x="287.5" y="103" type="curve" smooth="yes"/>
			<point x="302" y="48.5"/>
			<point x="343" y="-8"/>
		</contour>
		<contour>
			<point x="194" y="194" type="line"/>
			<point x="253" y="194" type="line" smooth="yes"/>
			<point x="377" y="194"/>
			<point x="460" y="254"/>
			<point x="460" y="450" type="curve"/>
			<point x="365" y="450" type="line"/>
			<point x="365" y="308"/>
			<point x="335" y="218.5"/>
			<point x="216" y="218.5" type="curve" smooth="yes"/>
			<point x="194" y="218.5" type="line"/>
		</contour>
		<contour>
			<point x="365" y="450" type="curve"/>
			<point x="460" y="450" type="line"/>
			<point x="460" y="600"/>
			<point x="377" y="700"/>
			<point x="253" y="700" type="curve" smooth="yes"/>
			<point x="194" y="700" type="line"/>
			<point x="194" y="670" type="line"/>
			<point x="216" y="670" type="line" smooth="yes"/>
			<point x="305.5" y="670"/>
			<point x="365" y="595"/>
		</contour>
		<component base="_part.stemserifs" xOffset="-9"/>
	</outline>
</glyph>
<glyph name="R.ss03" format="2">
	<advance width="504"/>
	<anchor x="269" y="700" name="top"/>
	<anchor x="269" y="0" name="bottom"/>
	<outline>
		<contour>
			<point x="638" y="-109.5" type="curve"/>
			<point x="638" y="-79.5" type="line"/>
			<point x="625.5" y="-81.5"/>
			<point x="614" y="-82.5"/>
			<point x="603" y="-82.5" type="curve" smooth="yes"/>
			<point x="513" y="-82.5"/>
			<point x="477" y="-40"/>
			<point x="447" y="82" type="curve" smooth="yes"/>
			<point x="426.5" y="167"/>
			<point x="399" y="233"/>
			<point x="327" y="233" type="curve" smooth="yes"/>
			<point x="286" y="233"/>
			<point x="241.5" y="212"/>
			<point x="191" y="184.5" type="curve"/>
			<point x="197.5" y="177.5" type="line"/>
			<point x="299.5" y="228"/>
			<point x="317.5" y="164"/>
			<point x="349.5" y="59" type="curve" smooth="yes"/>
			<point x="364.5" y="9.5"/>
			<point x="380" y="-39.5"/>
			<point x="406.5" y="-68.5" type="curve" smooth="yes"/>
			<point x="453.5" y="-120"/>
			<point x="544.5" y="-137.5"/>
		</contour>
		<contour>
			<point x="184.5" y="191.5" type="curve"/>
			<point x="193" y="182" type="line"/>
			<point x="367" y="267.5"/>
			<point x="454" y="371.5"/>
			<point x="454" y="516.5" type="curve" smooth="yes"/>
			<point x="454" y="616.5"/>
			<point x="391" y="700"/>
			<point x="253" y="700" type="curve" smooth="yes"/>
			<point x="194" y="700" type="line"/>
			<point x="194" y="670" type="line"/>
			<point x="216" y="670" type="line" smooth="yes"/>
			<point x="315" y="670"/>
			<point x="359" y="615"/>
			<point x="359" y="516.5" type="curve" smooth="yes"/>
			<point x="359" y="387.5"/>
			<point x="287.5" y="258.5"/>
		</contour>
		<component base="_part.stemserifs" xOffset="-9"/>
	</outline>
</glyph>
<glyph name="R.ss06" format="2">
	<advance width="519"/>
	<anchor x="249" y="700" name="top"/>
	<anchor x="249" y="0" name="bottom"/>
	<outline>
		<contour>
			<point x="499" y="-8" type="curve" smooth="yes"/>
			<point x="522" y="-8"/>
			<point x="542" y="-4"/>
			<point x="550" y="1" type="curve"/>
			<point x="547" y="30.5" type="line"/>
			<point x="543" y="29"/>
			<point x="540" y="28.5"/>
			<point x="536" y="28.5" type="curve" smooth="yes"/>
			<point x="459" y="28.5"/>
			<point x="429.5" y="71"/>
			<point x="308" y="330" type="curve"/>
			<point x="218" y="305" type="line"/>
			<point x="332" y="54.5"/>
			<point x="372" y="-8"/>
		</contour>
		<contour>
			<point x="194" y="305" type="line"/>
			<point x="253" y="305" type="line" smooth="yes"/>
			<point x="371" y="305"/>
			<point x="460" y="377"/>
			<point x="460" y="500" type="curve"/>
			<point x="365" y="500" type="line"/>
			<point x="365" y="382"/>
			<point x="301" y="335"/>
			<point x="216" y="335" type="curve" smooth="yes"/>
			<point x="194" y="335" type="line"/>
		</contour>
		<contour>
			<point x="365" y="500" type="curve"/>
			<point x="460" y="500" type="line"/>
			<point x="460" y="630"/>
			<point x="371" y="700"/>
			<point x="253" y="700" type="curve" smooth="yes"/>
			<point x="194" y="700" type="line"/>
			<point x="194" y="670" type="line"/>
			<point x="216" y="670" type="line" smooth="yes"/>
			<point x="293" y="670"/>
			<point x="365" y="638"/>
		</contour>
		<component base="_part.stemserifs" xOffset="-9"/>
	</outline>
</glyph>
<glyph name="S.ss06" format="2">
	<advance width="446"/>
	<anchor x="221" y="700" name="top"/>
	<anchor x="221" y="0" name="bottom"/>
	<outline>
		<contour>
			<point x="221" y="22" type="curve"/>
			<point x="221" y="-8" type="line"/>
			<point x="331.5" y="-8"/>
			<point x="413.5" y="72.5"/>
			<point x="413.5" y="193" type="curve" smooth="yes"/>
			<point x="413.5" y="280"/>
			<point x="347.5" y="344"/>
			<point x="302.5" y="389" type="curve" smooth="yes"/>
			<point x="257.5" y="434"/>
			<point x="154.5" y="530"/>
			<point x="154.5" y="605.5" type="curve" smooth="yes"/>
			<point x="154.5" y="646.5"/>
			<point x="189" y="678.5"/>
			<point x="240.5" y="678.5" type="curve" smooth="yes"/>
			<point x="332" y="678.5"/>
			<point x="341.5" y="609.5"/>
			<point x="332.5" y="510.5" type="curve" smooth="yes"/>
			<point x="329.5" y="477.5" type="line"/>
			<point x="349" y="477.5" type="line"/>
			<point x="416" y="703.5" type="line"/>
			<point x="394.5" y="705.5" type="line"/>
			<point x="384.5" y="679.5"/>
			<point x="375.5" y="667.5"/>
			<point x="359.5" y="667.5" type="curve" smooth="yes"/>
			<point x="336.5" y="667.5"/>
			<point x="297.5" y="708.5"/>
			<point x="240.5" y="708.5" type="curve" smooth="yes"/>
			<point x="141.5" y="708.5"/>
			<point x="72.5" y="643"/>
			<point x="72.5" y="551" type="curve" smooth="yes"/>
			<point x="72.5" y="459"/>
			<point x="176" y="363.5"/>
			<point x="220.5" y="318" type="curve" smooth="yes"/>
			<point x="265.5" y="272"/>
			<point x="331.5" y="214.5"/>
			<point x="331.5" y="127.5" type="curve" smooth="yes"/>
			<point x="331.5" y="64"/>
			<point x="287.5" y="22"/>
		</contour>
		<contour>
			<point x="221" y="-8" type="curve"/>
			<point x="221" y="22" type="line"/>
			<point x="133.5" y="22"/>
			<point x="75.5" y="92.5"/>
			<point x="94" y="231" type="curve"/>
			<point x="75" y="233" type="line"/>
			<point x="26" y="20" type="line"/>
			<point x="45" y="18" type="line"/>
			<point x="50" y="26"/>
			<point x="64" y="32"/>
			<point x="78" y="32" type="curve" smooth="yes"/>
			<point x="117" y="32"/>
			<point x="153" y="-8"/>
		</contour>
	</outline>
</glyph>
<glyph name="T.ss01" format="2">
	<advance width="469"/>
	<anchor x="235" y="350" name="center"/>
	<anchor x="235" y="0" name="bottom"/>
	<anchor x="235" y="700" name="top"/>
	<outline>
		<contour>
			<point x="424" y="317" type="line"/>
			<point x="443" y="317" type="line"/>
			<point x="421" y="700" type="line"/>
			<point x="360" y="700" type="line"/>
		</contour>
		<contour>
			<point x="26" y="317" type="line"/>
			<point x="45" y="317" type="line"/>
			<point x="109" y="700" type="line"/>
			<point x="48" y="700" type="line"/>
		</contour>
		<contour>
			<point x="78.5" y="670" type="line"/>
			<point x="164.5" y="670" type="line"/>
			<point x="164.5" y="700" type="line"/>
			<point x="78.5" y="700" type="line"/>
		</contour>
		<contour>
			<point x="304.5" y="670" type="line"/>
			<point x="390.5" y="670" type="line"/>
			<point x="390.5" y="700" type="line"/>
			<point x="304.5" y="700" type="line"/>
		</contour>
		<component base="_part.stemserifs" xOffset="79"/>
	</outline>
</glyph>
<glyph name="W.ss03" format="2">
	<advance width="583"/>
	<anchor x="341" y="700" name="top"/>
	<anchor x="291" y="0" name="bottom"/>
	<outline>
		<contour>
			<point x="213.5" y="-37" type="line"/>
			<point x="265" y="187" type="line"/>
			<point x="146" y="700" type="line"/>
			<point x="44" y="700" type="line"/>
		</contour>
		<contour>
			<point x="213.5" y="-37" type="line"/>
			<point x="344" y="531" type="line"/>
			<point x="330.5" y="607" type="line"/>
			<point x="200" y="41" type="line"/>
		</contour>
		<contour>
			<point x="376.5" y="-37" type="line"/>
			<point x="428" y="187" type="line"/>
			<point x="330.5" y="607" type="line"/>
			<point x="290.5" y="336" type="line"/>
		</contour>
		<contour>
			<point x="376.5" y="-37" type="line"/>
			<point x="546" y="700" type="line"/>
			<point x="515.5" y="700" type="line"/>
			<point x="362" y="36.5" type="line"/>
		</contour>
		<component base="_part.longserif" xOffset="-60"/>
		<component base="_part.shortserif" xOffset="423"/>
	</outline>
</glyph>
<glyph name="X.ss04" format="2">
	<advance width="446"/>
	<anchor x="238" y="700" name="top"/>
	<anchor x="9" y="700" name="topleft"/>
	<outline>
		<contour>
			<point x="277.5" y="0" type="line"/>
			<point x="380" y="0" type="line"/>
			<point x="266.5" y="540" type="line"/>
			<point x="185" y="500" type="line"/>
		</contour>
		<contour>
			<point x="82" y="0" type="line"/>
			<point x="112.5" y="0" type="line"/>
			<point x="212" y="540" type="line"/>
			<point x="181.5" y="540" type="line"/>
		</contour>
		<contour>
			<point x="185" y="500" type="line"/>
			<point x="266.5" y="540" type="line"/>
			<point x="155" y="700" type="line"/>
			<point x="55" y="700" type="line"/>
		</contour>
		<contour>
			<point x="245" y="523.5" type="line"/>
			<point x="263" y="497.5" type="line"/>
			<point x="408" y="700" type="line"/>
			<point x="373" y="700" type="line"/>
		</contour>
		<component base="_part.longserif" xScale="-1" yScale="-1" xOffset="484" yOffset="700"/>
		<component base="_part.longserif" xOffset="-38"/>
		<component base="_part.shortserif" xOffset="264"/>
		<component base="_part.shortserif" xOffset="-12" yOffset="-670"/>
	</outline>
</glyph>
<glyph name="Y.ss04" format="2">
	<advance width="393"/>
	<anchor x="236" y="700" name="top"/>
	<anchor x="206" y="0" name="bottom"/>
	<anchor x="1" y="700" name="topleft"/>
	<outline>
		<contour>
			<point x="157.5" y="0" type="line"/>
			<point x="257.5" y="0" type="line"/>
			<point x="257.5" y="540" type="line"/>
			<point x="157.5" y="540" type="line"/>
		</contour>
		<contour>
			<point x="157.5" y="531.5" type="line"/>
			<point x="257.5" y="531.5" type="line"/>
			<point x="144" y="700" type="line"/>
			<point x="44" y="700" type="line"/>
		</contour>
		<contour>
			<point x="224" y="531.5" type="line"/>
			<point x="240.5" y="502" type="line"/>
			<point x="376" y="700" type="line"/>
			<point x="339" y="700" type="line"/>
		</contour>
		<component base="_part.longserif" xScale="-1" yScale="-1" xOffset="364" yOffset="700"/>
		<component base="_part.longserif" xOffset="-60"/>
		<component base="_part.shortserif" xOffset="233"/>
	</outline>
</glyph>
<glyph name="Z.ss01" format="2">
	<advance width="415"/>
	<guideline x="382" y="700" angle="90"/>
	<anchor x="213" y="350" name="center"/>
	<anchor x="213" y="0" name="bottom"/>
	<anchor x="213" y="700" name="top"/>
	<outline>
		<contour>
			<point x="26" y="0" type="line"/>
			<point x="127" y="0" type="line"/>
			<point x="382" y="700" type="line"/>
			<point x="281" y="700" type="line"/>
		</contour>
		<contour>
			<point x="92" y="0" type="line"/>
			<point x="328" y="0" type="line"/>
			<point x="328" y="30" type="line"/>
			<point x="92" y="30" type="line"/>
		</contour>
		<contour>
			<point x="75" y="670" type="line"/>
			<point x="302" y="670" type="line"/>
			<point x="302" y="700" type="line"/>
			<point x="75" y="700" type="line"/>
		</contour>
		<contour>
			<point x="26" y="317" type="line"/>
			<point x="45" y="317" type="line"/>
			<point x="109" y="700" type="line"/>
			<point x="48" y="700" type="line"/>
		</contour>
		<contour>
			<point x="389" y="383" type="line"/>
			<point x="370" y="383" type="line"/>
			<point x="306" y="0" type="line"/>
			<point x="367" y="0" type="line"/>
		</contour>
	</outline>
</glyph>
<glyph name="_part.longserif" format="2">
	<advance width="312"/>
	<outline>
		<contour>
			<point x="46" y="670" type="line"/>
			<point x="266" y="670" type="line"/>
			<point x="266" y="700" type="line"/>
			<point x="46" y="700" type="line"/>
		</contour>
	</outline>
</glyph>
<glyph name="_part.shortserif" format="2">
	<advance width="220"/>
	<outline>
		<contour>
			<point x="46" y="670" type="line"/>
			<point x="174" y="670" type="line"/>
			<point x="174" y="700" type="line"/>
			<point x="46" y="700" type="line"/>
		</contour>
	</outline>
</glyph>
<glyph name="_part.stembdc" format="2">
	<advance width="312"/>
	<outline>
		<contour>
			<point x="106" y="0" type="line"/>
			<point x="206" y="0" type="line"/>
			<point x="206" y="700" type="line"/>
			<point x="106" y="700" type="line"/>
		</contour>
	</outline>
</glyph>
<glyph name="_part.verticalstrokethin" format="2">
	<advance width="180"/>
	<outline>
		<contour>
			<point x="75" y="0" type="line"/>
			<point x="105" y="0" type="line"/>
			<point x="105" y="700" type="line"/>
			<point x="75" y="700" type="line"/>
		</contour>
	</outline>
</glyph>
<glyph name="_part.wavestrokehorizontal" format="2">
	<advance width="356.5"/>
	<outline>
		<contour>
			<point x="175" y="279.5" type="curve" smooth="yes"/>
			<point x="208.5" y="279.5"/>
			<point x="256.5" y="317.5"/>
			<point x="295.5" y="374.5" type="curve"/>
			<point x="279" y="391.5" type="line"/>
			<point x="265.5" y="373"/>
			<point x="251" y="365"/>
			<point x="236.5" y="365" type="curve" smooth="yes"/>
			<point x="200" y="365"/>
			<point x="183" y="409.5"/>
			<point x="146" y="409.5" type="curve" smooth="yes"/>
			<point x="112" y="409.5"/>
			<point x="73" y="366.5"/>
			<point x="61" y="318.5" type="curve"/>
			<point x="71" y="308.5" type="line"/>
			<point x="71" y="318.5"/>
			<point x="79" y="324.5"/>
			<point x="90" y="324.5" type="curve" smooth="yes"/>
			<point x="119" y="324.5"/>
			<point x="137" y="279.5"/>
		</contour>
	</outline>
</glyph>
<glyph name="ampersand.ss09" format="2">
	<advance width="795.5"/>
	<outline>
		<contour>
			<point x="602" y="-8" type="curve" smooth="yes"/>
			<point x="727.5" y="-7.5"/>
			<point x="812" y="55"/>
			<point x="812" y="148" type="curve" smooth="yes"/>
			<point x="812" y="208"/>
			<point x="753.5" y="262.5"/>
			<point x="666" y="262.5" type="curve"/>
			<point x="665" y="243.5" type="line"/>
			<point x="705" y="241"/>
			<point x="732" y="209.5"/>
			<point x="732" y="155.5" type="curve" smooth="yes"/>
			<point x="732" y="72.5"/>
			<point x="686" y="22"/>
			<point x="623" y="22" type="curve" smooth="yes"/>
			<point x="571" y="22"/>
			<point x="517" y="55.5"/>
			<point x="486" y="97.5" type="curve" smooth="yes"/>
			<point x="431" y="173"/>
			<point x="367.5" y="287"/>
			<point x="301" y="421" type="curve" smooth="yes"/>
			<point x="267.5" y="489"/>
			<point x="241.5" y="561.5"/>
			<point x="241.5" y="615.5" type="curve" smooth="yes"/>
			<point x="241.5" y="647"/>
			<point x="268" y="678"/>
			<point x="331" y="678" type="curve"/>
			<point x="337.5" y="708" type="line"/>
			<point x="246.5" y="708"/>
			<point x="155" y="661"/>
			<point x="155" y="567.5" type="curve" smooth="yes"/>
			<point x="155" y="517"/>
			<point x="168.5" y="452"/>
			<point x="204" y="386.5" type="curve" smooth="yes"/>
			<point x="254" y="294.5"/>
			<point x="308.5" y="197"/>
			<point x="372" y="122.5" type="curve" smooth="yes"/>
			<point x="437" y="46"/>
			<point x="512" y="-8.5"/>
		</contour>
		<contour>
			<point x="251.5" y="397.5" type="curve"/>
			<point x="279" y="387.5" type="line"/>
			<point x="416.5" y="386.5"/>
			<point x="506.5" y="484"/>
			<point x="506.5" y="570.5" type="curve" smooth="yes"/>
			<point x="506.5" y="642.5"/>
			<point x="444" y="708"/>
			<point x="337.5" y="708" type="curve"/>
			<point x="331" y="678" type="line"/>
			<point x="393" y="678"/>
			<point x="416.5" y="649"/>
			<point x="416.5" y="588.5" type="curve" smooth="yes"/>
			<point x="416.5" y="508.5"/>
			<point x="356.5" y="410"/>
		</contour>
		<contour>
			<point x="26" y="173.5" type="curve" smooth="yes"/>
			<point x="26" y="64.5"/>
			<point x="131.5" y="-8"/>
			<point x="289.5" y="-8" type="curve" smooth="yes"/>
			<point x="369.5" y="-8"/>
			<point x="435" y="19.5"/>
			<point x="491" y="69.5" type="curve" smooth="yes"/>
			<point x="562" y="132"/>
			<point x="618.5" y="229"/>
			<point x="671" y="350" type="curve" smooth="yes"/>
			<point x="751.5" y="535"/>
			<point x="789.5" y="654"/>
			<point x="934.5" y="654" type="curve" smooth="yes"/>
			<point x="1048" y="654"/>
			<point x="1118.5" y="578.5"/>
			<point x="1118.5" y="469" type="curve" smooth="yes"/>
			<point x="1118.5" y="261.5"/>
			<point x="836.5" y="323"/>
			<point x="836.5" y="156.5" type="curve" smooth="yes"/>
			<point x="836.5" y="70"/>
			<point x="932.5" y="-8"/>
			<point x="1097" y="-8" type="curve" smooth="yes"/>
			<point x="1192.5" y="-8"/>
			<point x="1256" y="26.5"/>
			<point x="1256" y="78.5" type="curve" smooth="yes"/>
			<point x="1256" y="100.5"/>
			<point x="1244.5" y="127"/>
			<point x="1226.5" y="159.5" type="curve" smooth="yes"/>
			<point x="1210.5" y="187.5"/>
			<point x="1194" y="216"/>
			<point x="1194" y="255.5" type="curve" smooth="yes"/>
			<point x="1194" y="324.5"/>
			<point x="1248.5" y="354.5"/>
			<point x="1308" y="354.5" type="curve" smooth="yes"/>
			<point x="1358.5" y="354.5"/>
			<point x="1409" y="348.5"/>
			<point x="1409" y="253" type="curve" smooth="yes"/>
			<point x="1409" y="211.5"/>
			<point x="1383.5" y="197"/>
			<point x="1356" y="178" type="curve" smooth="yes"/>
			<point x="1326" y="157"/>
			<point x="1293.5" y="130.5"/>
			<point x="1293.5" y="77" type="curve" smooth="yes"/>
			<point x="1293.5" y="18.5"/>
			<point x="1348.5" y="-8.5"/>
			<point x="1409.5" y="-8.5" type="curve" smooth="yes"/>
			<point x="1486" y="-8.5"/>
			<point x="1582.5" y="39.5"/>
			<point x="1582.5" y="115.5" type="curve" smooth="yes"/>
			<point x="1582.5" y="153"/>
			<point x="1567" y="209"/>
			<point x="1549.5" y="256" type="curve"/>
			<point x="1532.5" y="246" type="line"/>
			<point x="1540.5" y="228"/>
			<point x="1544" y="211.5"/>
			<point x="1544" y="196.5" type="curve" smooth="yes"/>
			<point x="1544" y="129.5"/>
			<point x="1449" y="85.5"/>
			<point x="1390.5" y="85.5" type="curve" smooth="yes"/>
			<point x="1364" y="85.5"/>
			<point x="1345" y="94.5"/>
			<point x="1345" y="114" type="curve" smooth="yes"/>
			<point x="1345" y="126.5"/>
			<point x="1355" y="141"/>
			<point x="1374.5" y="153.5" type="curve" smooth="yes"/>
			<point x="1417.5" y="180.5"/>
			<point x="1493" y="198"/>
			<point x="1493" y="266.5" type="curve" smooth="yes"/>
			<point x="1493" y="321.5"/>
			<point x="1450.5" y="384.5"/>
			<point x="1308" y="384.5" type="curve" smooth="yes"/>
			<point x="1189" y="384.5"/>
			<point x="1107" y="327.5"/>
			<point x="1107" y="234.5" type="curve" smooth="yes"/>
			<point x="1107" y="203.5"/>
			<point x="1114.5" y="174"/>
			<point x="1130" y="136" type="curve" smooth="yes"/>
			<point x="1144.5" y="99"/>
			<point x="1158" y="82.5"/>
			<point x="1158" y="58" type="curve" smooth="yes"/>
			<point x="1158" y="33"/>
			<point x="1135" y="22"/>
			<point x="1100.5" y="22" type="curve" smooth="yes"/>
			<point x="1037" y="22"/>
			<point x="944.5" y="54.5"/>
			<point x="944.5" y="146" type="curve" smooth="yes"/>
			<point x="944.5" y="279.5"/>
			<point x="1148.5" y="277"/>
			<point x="1148.5" y="469" type="curve" smooth="yes"/>
			<point x="1148.5" y="611"/>
			<point x="1028.5" y="708"/>
			<point x="873" y="708" type="curve" smooth="yes"/>
			<point x="704.5" y="708"/>
			<point x="657" y="594"/>
			<point x="602.5" y="414" type="curve" smooth="yes"/>
			<point x="548" y="233.5"/>
			<point x="477.5" y="22"/>
			<point x="289.5" y="22" type="curve" smooth="yes"/>
			<point x="191.5" y="22"/>
			<point x="126" y="83.5"/>
			<point x="126" y="208.5" type="curve" smooth="yes"/>
			<point x="126" y="295"/>
			<point x="166.5" y="361"/>
			<point x="250.5" y="392.5" type="curve"/>
			<point x="224" y="407.5" type="line"/>
			<point x="103.5" y="369.5"/>
			<point x="26" y="276.5"/>
		</contour>
	</outline>
</glyph>
<glyph name="bullet.ss06" format="2">
	<advance width="242"/>
	<outline>
		<contour>
			<point x="36" y="285" type="line"/>
			<point x="111" y="210" type="line"/>
			<point x="131" y="210" type="line"/>
			<point x="206" y="285" type="line"/>
			<point x="206" y="305" type="line"/>
			<point x="131" y="380" type="line"/>
			<point x="111" y="380" type="line"/>
			<point x="36" y="305" type="line"/>
		</contour>
	</outline>
</glyph>
<glyph name="dagger.ss06" format="2">
	<advance width="286"/>
	<outline>
		<contour>
			<point x="25" y="536.5" type="line"/>
			<point x="86.5" y="514" type="line"/>
			<point x="135.5" y="539" type="line"/>
			<point x="110.5" y="465" type="line"/>
			<point x="133" y="283.5" type="line"/>
			<point x="153" y="283.5" type="line"/>
			<point x="175.5" y="465" type="line"/>
			<point x="150.5" y="539" type="line"/>
			<point x="199.5" y="514" type="line"/>
			<point x="261" y="536.5" type="line"/>
			<point x="261" y="556.5" type="line"/>
			<point x="199.5" y="579" type="line"/>
			<point x="150.5" y="554" type="line"/>
			<point x="175.5" y="628" type="line"/>
			<point x="153" y="709.5" type="line"/>
			<point x="133" y="709.5" type="line"/>
			<point x="110.5" y="628" type="line"/>
			<point x="135.5" y="554" type="line"/>
			<point x="86.5" y="579" type="line"/>
			<point x="25" y="556.5" type="line"/>
		</contour>
	</outline>
</glyph>
<glyph name="notdef" format="2">
	<advance width="588"/>
	<outline>
		<contour>
			<point x="294" y="91" type="curve" smooth="yes"/>
			<point x="437" y="91"/>
			<point x="553" y="207"/>
			<point x="553" y="350" type="curve" smooth="yes"/>
			<point x="553" y="493"/>
			<point x="437" y="609"/>
			<point x="294" y="609" type="curve" smooth="yes"/>
			<point x="151" y="609"/>
			<point x="35" y="493"/>
			<point x="35" y="350" type="curve" smooth="yes"/>
			<point x="35" y="207"/>
			<point x="151" y="91"/>
		</contour>
		<contour>
			<point x="154" y="464" type="curve" smooth="yes"/>
			<point x="154" y="479"/>
			<point x="159" y="497"/>
			<point x="183" y="501" type="curve" smooth="yes"/>
			<point x="204" y="504"/>
			<point x="254" y="506"/>
			<point x="296" y="506" type="curve" smooth="yes"/>
			<point x="338" y="506"/>
			<point x="388" y="505"/>
			<point x="408" y="501" type="curve" smooth="yes"/>
			<point x="432" y="496"/>
			<point x="438" y="479"/>
			<point x="438" y="464" type="curve" smooth="yes"/>
			<point x="438" y="449"/>
			<point x="429" y="438"/>
			<point x="367" y="438" type="curve" smooth="yes"/>
			<point x="352" y="438"/>
			<point x="340" y="439"/>
			<point x="328" y="440" type="curve"/>
			<point x="330" y="318" type="line" smooth="yes"/>
			<point x="330" y="301"/>
			<point x="313" y="293"/>
			<point x="296" y="293" type="curve" smooth="yes"/>
			<point x="278" y="293"/>
			<point x="262" y="301"/>
			<point x="262" y="318" type="curve" smooth="yes"/>
			<point x="263" y="440" type="line"/>
			<point x="252" y="439"/>
			<point x="239" y="438"/>
			<point x="224" y="438" type="curve" smooth="yes"/>
			<point x="162" y="438"/>
			<point x="154" y="449"/>
		</contour>
		<contour>
			<point x="157" y="374" type="curve" smooth="yes"/>
			<point x="157" y="391"/>
			<point x="170" y="405"/>
			<point x="188" y="405" type="curve" smooth="yes"/>
			<point x="208" y="405"/>
			<point x="217" y="391"/>
			<point x="217" y="374" type="curve" smooth="yes"/>
			<point x="217" y="354"/>
			<point x="208" y="345"/>
			<point x="188" y="345" type="curve" smooth="yes"/>
			<point x="170" y="345"/>
			<point x="157" y="354"/>
		</contour>
		<contour>
			<point x="371" y="374" type="curve" smooth="yes"/>
			<point x="371" y="391"/>
			<point x="381" y="405"/>
			<point x="400" y="405" type="curve" smooth="yes"/>
			<point x="419" y="405"/>
			<point x="431" y="391"/>
			<point x="431" y="374" type="curve" smooth="yes"/>
			<point x="431" y="354"/>
			<point x="419" y="345"/>
			<point x="400" y="345" type="curve" smooth="yes"/>
			<point x="381" y="345"/>
			<point x="371" y="354"/>
		</contour>
		<contour>
			<point x="158" y="286" type="curve" smooth="yes"/>
			<point x="158" y="305"/>
			<point x="170" y="315"/>
			<point x="183" y="315" type="curve" smooth="yes"/>
			<point x="195" y="315"/>
			<point x="209" y="307"/>
			<point x="217" y="291" type="curve" smooth="yes"/>
			<point x="222" y="281"/>
			<point x="240" y="239"/>
			<point x="296" y="239" type="curve" smooth="yes"/>
			<point x="351" y="239"/>
			<point x="370" y="281"/>
			<point x="375" y="291" type="curve" smooth="yes"/>
			<point x="382" y="307"/>
			<point x="396" y="315"/>
			<point x="408" y="315" type="curve" smooth="yes"/>
			<point x="421" y="315"/>
			<point x="432" y="305"/>
			<point x="432" y="286" type="curve" smooth="yes"/>
			<point x="432" y="220"/>
			<point x="364" y="173"/>
			<point x="296" y="173" type="curve" smooth="yes"/>
			<point x="229" y="173"/>
			<point x="158" y="219"/>
		</contour>
	</outline>
</glyph>
<glyph name="quotedblleft.ss08" format="2">
	<advance width="275"/>
	<outline>
		<contour>
			<point x="141" y="500" type="line"/>
			<point x="211" y="500" type="line"/>
			<point x="239.5" y="750" type="line"/>
			<point x="226" y="750" type="line"/>
		</contour>
		<contour>
			<point x="36" y="500" type="line"/>
			<point x="106" y="500" type="line"/>
			<point x="134.5" y="750" type="line"/>
			<point x="121" y="750" type="line"/>
		</contour>
	</outline>
</glyph>
<glyph name="quotedblright.ss08" format="2">
	<advance width="275"/>
	<outline>
		<contour>
			<point x="141" y="450" type="line"/>
			<point x="154.5" y="450" type="line"/>
			<point x="239.5" y="700" type="line"/>
			<point x="169.5" y="700" type="line"/>
		</contour>
		<contour>
			<point x="36" y="450" type="line"/>
			<point x="49.5" y="450" type="line"/>
			<point x="134.5" y="700" type="line"/>
			<point x="64.5" y="700" type="line"/>
		</contour>
	</outline>
</glyph>
<glyph name="uni0304.narrow" format="2">
	<advance width="0"/>
	<anchor x="-121" y="800" name="top"/>
	<anchor x="-121" y="700" name="_top"/>
	<outline>
		<contour>
			<point x="-206" y="770" type="line"/>
			<point x="-36" y="770" type="line"/>
			<point x="-36" y="800" type="line"/>
			<point x="-206" y="800" type="line"/>
		</contour>
	</outline>
</glyph>
<glyph name="uni1E9E.ss01" format="2">
	<advance width="577"/>
	<outline>
		<contour>
			<point x="-19" y="296.5" type="curve" smooth="yes"/>
			<point x="-19" y="106"/>
			<point x="179.5" y="-9.5"/>
			<point x="342.5" y="-9.5" type="curve" smooth="yes"/>
			<point x="467.5" y="-9.5"/>
			<point x="551" y="62.5"/>
			<point x="551" y="170.5" type="curve" smooth="yes"/>
			<point x="551" y="271"/>
			<point x="481" y="368"/>
			<point x="373" y="403" type="curve"/>
			<point x="347" y="399.5" type="line"/>
			<point x="418.5" y="372.5"/>
			<point x="466.5" y="296"/>
			<point x="466.5" y="208.5" type="curve" smooth="yes"/>
			<point x="466.5" y="67.5"/>
			<point x="391.5" y="30"/>
			<point x="305.5" y="30" type="curve" smooth="yes"/>
			<point x="149" y="30"/>
			<point x="48.5" y="157.5"/>
			<point x="48.5" y="305.5" type="curve" smooth="yes"/>
			<point x="48.5" y="360.5"/>
			<point x="69.5" y="403"/>
			<point x="119" y="403" type="curve"/>
			<point x="119" y="433" type="line"/>
			<point x="22.5" y="433"/>
			<point x="-19" y="362"/>
		</contour>
		<contour>
			<point x="51" y="0" type="line"/>
			<point x="306" y="0" type="line"/>
			<point x="306" y="8" type="line"/>
			<point x="51" y="8" type="line"/>
		</contour>
		<contour>
			<point x="111" y="0" type="line"/>
			<point x="211" y="0" type="line"/>
			<point x="211" y="571.5" type="line"/>
			<point x="111" y="568.5" type="line"/>
		</contour>
		<contour>
			<point x="465" y="161" type="curve"/>
			<point x="470" y="179.5" type="line"/>
			<point x="411" y="227.5"/>
			<point x="366.5" y="285.5"/>
			<point x="366.5" y="335" type="curve" smooth="yes"/>
			<point x="366.5" y="373"/>
			<point x="396" y="405"/>
			<point x="424.5" y="443.5" type="curve" smooth="yes"/>
			<point x="459" y="489.5"/>
			<point x="480" y="534.5"/>
			<point x="480" y="574" type="curve" smooth="yes"/>
			<point x="480" y="652"/>
			<point x="411.5" y="708"/>
			<point x="300" y="708" type="curve" smooth="yes"/>
			<point x="149" y="708"/>
			<point x="111" y="680"/>
			<point x="111" y="568.5" type="curve"/>
			<point x="211" y="571.5" type="line"/>
			<point x="213" y="652.5"/>
			<point x="230.5" y="678"/>
			<point x="300" y="678" type="curve" smooth="yes"/>
			<point x="353" y="678"/>
			<point x="426.5" y="655.5"/>
			<point x="426.5" y="609" type="curve" smooth="yes"/>
			<point x="426.5" y="521.5"/>
			<point x="280.5" y="489.5"/>
			<point x="280.5" y="396" type="curve" smooth="yes"/>
			<point x="280.5" y="337"/>
			<point x="353" y="242"/>
		</contour>
	</outline>
</glyph>
<glyph name="uni2E4B.ss06" format="2">
	<advance width="286"/>
	<outline>
		<contour>
			<point x="25" y="240.5" type="line"/>
			<point x="86.5" y="218" type="line"/>
			<point x="135.5" y="243" type="line"/>
			<point x="110.5" y="169" type="line"/>
			<point x="133" y="87.5" type="line"/>
			<point x="153" y="87.5" type="line"/>
			<point x="175.5" y="169" type="line"/>
			<point x="150.5" y="243" type="line"/>
			<point x="199.5" y="218" type="line"/>
			<point x="261" y="240.5" type="line"/>
			<point x="261" y="260.5" type="line"/>
			<point x="199.5" y="283" type="line"/>
			<point x="150.5" y="258" type="line"/>
			<point x="175.5" y="317" type="line"/>
			<point x="150.5" y="391" type="line"/>
			<point x="199.5" y="366" type="line"/>
			<point x="261" y="388.5" type="line"/>
			<point x="261" y="408.5" type="line"/>
			<point x="199.5" y="431" type="line"/>
			<point x="150.5" y="406" type="line"/>
			<point x="175.5" y="480" type="line"/>
			<point x="150.5" y="539" type="line"/>
			<point x="199.5" y="514" type="line"/>
			<point x="261" y="536.5" type="line"/>
			<point x="261" y="556.5" type="line"/>
			<point x="199.5" y="579" type="line"/>
			<point x="150.5" y="554" type="line"/>
			<point x="175.5" y="628" type="line"/>
			<point x="153" y="709.5" type="line"/>
			<point x="133" y="709.5" type="line"/>
			<point x="110.5" y="628" type="line"/>
			<point x="135.5" y="554" type="line"/>
			<point x="86.5" y="579" type="line"/>
			<point x="25" y="556.5" type="line"/>
			<point x="25" y="536.5" type="line"/>
			<point x="86.5" y="514" type="line"/>
			<point x="135.5" y="539" type="line"/>
			<point x="110.5" y="480" type="line"/>
			<point x="135.5" y="406" type="line"/>
			<point x="86.5" y="431" type="line"/>
			<point x="25" y="408.5" type="line"/>
			<point x="25" y="388.5" type="line"/>
			<point x="86.5" y="366" type="line"/>
			<point x="135.5" y="391" type="line"/>
			<point x="110.5" y="317" type="line"/>
			<point x="135.5" y="258" type="line"/>
			<point x="86.5" y="283" type="line"/>
			<point x="25" y="260.5" type="line"/>
		</contour>
	</outline>
</glyph>
